<svg xmlns="http://www.w3.org/2000/svg" version="1.1" xmlns:xlink="http://www.w3.org/1999/xlink" width="512" height="512" x="0" y="0" viewBox="0 0 64 64" style="enable-background:new 0 0 512 512" xml:space="preserve" class=""><g><path fill="#fab400" d="m32.786 4.649 1.354 2.744c.169.343.497.581.876.637l3.029.44a1.163 1.163 0 0 1 .645 1.984l-2.192 2.136a1.166 1.166 0 0 0-.335 1.03l.517 3.016a1.164 1.164 0 0 1-1.688 1.227l-2.709-1.424a1.165 1.165 0 0 0-1.083 0l-2.709 1.424a1.163 1.163 0 0 1-1.688-1.227l.517-3.016a1.161 1.161 0 0 0-.335-1.03l-2.192-2.136c-.691-.673-.31-1.846.645-1.985l3.029-.44c.379-.055.707-.293.876-.637l1.354-2.744c.429-.864 1.662-.864 2.089.001z" opacity="1" data-original="#fab400" class=""></path><path fill="#01a0c8" d="M14 28h36v28H14z" opacity="1" data-original="#01a0c8"></path><path fill="#0082aa" d="M19 28h26v28H19z" opacity="1" data-original="#0082aa"></path><path fill="#0a5078" d="M52 27v2c0 .55-.45 1-1 1H13c-.55 0-1-.45-1-1v-2c0-.55.45-1 1-1h38c.55 0 1 .45 1 1z" opacity="1" data-original="#0a5078" class=""></path><path fill="#00325a" d="M19 26h26v4H19z" opacity="1" data-original="#00325a"></path><path fill="#fab400" d="M20 20h24v40H20z" opacity="1" data-original="#fab400" class=""></path><path fill="#0a5078" d="M45 24H19a1 1 0 0 1-1-1v-2a1 1 0 0 1 1-1h26a1 1 0 0 1 1 1v2a1 1 0 0 1-1 1z" opacity="1" data-original="#0a5078" class=""></path><path fill="#00325a" d="M56 60H8v-3a1 1 0 0 1 1-1h46a1 1 0 0 1 1 1z" opacity="1" data-original="#00325a"></path><path fill="#0a5078" d="M52 56H12v-3a1 1 0 0 1 1-1h38a1 1 0 0 1 1 1z" opacity="1" data-original="#0a5078" class=""></path><g fill="#f0f0f0"><path d="M27 30h-2a1 1 0 0 1-1-1v-2a1 1 0 0 1 1-1h2a1 1 0 0 1 1 1v2a1 1 0 0 1-1 1zM33 30h-2a1 1 0 0 1-1-1v-2a1 1 0 0 1 1-1h2a1 1 0 0 1 1 1v2a1 1 0 0 1-1 1zM39 30h-2a1 1 0 0 1-1-1v-2a1 1 0 0 1 1-1h2a1 1 0 0 1 1 1v2a1 1 0 0 1-1 1zM27 36h-2a1 1 0 0 1-1-1v-2a1 1 0 0 1 1-1h2a1 1 0 0 1 1 1v2a1 1 0 0 1-1 1zM33 36h-2a1 1 0 0 1-1-1v-2a1 1 0 0 1 1-1h2a1 1 0 0 1 1 1v2a1 1 0 0 1-1 1zM39 36h-2a1 1 0 0 1-1-1v-2a1 1 0 0 1 1-1h2a1 1 0 0 1 1 1v2a1 1 0 0 1-1 1zM27 42h-2a1 1 0 0 1-1-1v-2a1 1 0 0 1 1-1h2a1 1 0 0 1 1 1v2a1 1 0 0 1-1 1zM33 42h-2a1 1 0 0 1-1-1v-2a1 1 0 0 1 1-1h2a1 1 0 0 1 1 1v2a1 1 0 0 1-1 1zM39 42h-2a1 1 0 0 1-1-1v-2a1 1 0 0 1 1-1h2a1 1 0 0 1 1 1v2a1 1 0 0 1-1 1zM36 52h-8v-7a1 1 0 0 1 1-1h6a1 1 0 0 1 1 1z" fill="#f0f0f0" opacity="1" data-original="#f0f0f0" class=""></path></g><path fill="#c8094f" d="M45 12h-2a1 1 0 0 1 0-2h2a1 1 0 0 1 0 2zM43.293 6.121l-1.414 1.414a.999.999 0 1 1-1.414-1.414l1.414-1.414a.999.999 0 1 1 1.414 1.414zM43.293 15.707l-1.414-1.414a.999.999 0 1 0-1.414 1.414l1.414 1.414a.999.999 0 1 0 1.414-1.414zM19 10h2a1 1 0 0 1 0 2h-2a1 1 0 0 1 0-2zM20.707 15.707l1.414-1.414a.999.999 0 1 1 1.414 1.414l-1.414 1.414a.999.999 0 1 1-1.414-1.414zM20.707 6.121l1.414 1.414a.999.999 0 1 0 1.414-1.414l-1.414-1.414a.999.999 0 1 0-1.414 1.414z" opacity="1" data-original="#c8094f"></path></g></svg>
