<svg xmlns="http://www.w3.org/2000/svg" version="1.1" xmlns:xlink="http://www.w3.org/1999/xlink" width="512" height="512" x="0" y="0" viewBox="0 0 512 512" style="enable-background:new 0 0 512 512" xml:space="preserve" class=""><g><path fill="#7d3826" d="M480.133 32.929c-17.6 0-31.867 14.267-31.867 31.867v157.743L296.963 341.51 256 448.265V482h192.266v-33.734c0-21.017 4.353-41.806 12.784-61.058L512 270.871V64.797c0-17.6-14.267-31.868-31.867-31.868z" opacity="1" data-original="#7d3826"></path><path fill="#a94525" d="M438.932 199.475c-12.445-12.445-32.622-12.445-45.067 0l-119.24 119.24C263.093 330.248 256 346.22 256 363.817h-15l15 84.448c47.476 0 85.963-38.487 85.963-85.963V341.51l96.969-96.969c12.445-12.444 12.445-32.621 0-45.066zM31.867 32.929c17.6 0 31.867 14.267 31.867 31.867v157.743L215.037 341.51 256 448.265V482H63.734v-33.734c0-21.017-4.353-41.806-12.784-61.058L0 270.871V64.797c0-17.6 14.267-31.868 31.867-31.868z" opacity="1" data-original="#a94525" class=""></path><path fill="#d45223" d="M73.068 199.475c12.445-12.445 32.622-12.445 45.067 0l119.24 119.24C248.907 330.248 256 346.22 256 363.817v84.448c-47.476 0-85.963-38.487-85.963-85.963V341.51l-96.969-96.969c-12.445-12.444-12.445-32.621 0-45.066z" opacity="1" data-original="#d45223"></path><path fill="#fdd35e" d="M300.414 81.207 256 0l-34.782 125.621L256 251.241l44.414-81.207 81.207-44.413z" opacity="1" data-original="#fdd35e"></path><path fill="#fff173" d="m211.586 81.207-81.207 44.414 81.207 44.413L256 251.241V0z" opacity="1" data-original="#fff173" class=""></path><path fill="#c5c6ce" d="M481.041 448.265H256l-30 31.868L256 512h248.941z" opacity="1" data-original="#c5c6ce" class=""></path><path fill="#e0e0e0" d="M30.959 448.265 7.059 512H256v-63.735z" opacity="1" data-original="#e0e0e0"></path></g></svg>
