<?xml version="1.0" encoding="utf-8"?>
<!-- Generator: Adobe Illustrator 25.4.1, SVG Export Plug-In . SVG Version: 6.00 Build 0)  -->
<svg version="1.1" id="Layer_1" xmlns="http://www.w3.org/2000/svg" xmlns:xlink="http://www.w3.org/1999/xlink" x="0px" y="0px"
	 viewBox="0 0 856.7 571.8" style="enable-background:new 0 0 856.7 571.8;" xml:space="preserve">
<style type="text/css">
	.st0{clip-path:url(#SVGID_00000120533011093814408570000001755770068501278138_);}
	.st1{fill:url(#SVGID_00000083779767714436366880000002999341025323832712_);}
	.st2{clip-path:url(#SVGID_00000047747291805632348120000007546422154335275137_);}
	.st3{fill:url(#SVGID_00000034079796255383109420000011794036204893524876_);}
	.st4{clip-path:url(#SVGID_00000075874527794448169230000011944665074445148571_);}
	.st5{fill:url(#SVGID_00000142860131609073563080000001918800523088955522_);}
	.st6{clip-path:url(#SVGID_00000036971366102015585230000002395970378155236273_);}
	.st7{fill:url(#SVGID_00000074419899580334909220000007378126381964973482_);}
	.st8{clip-path:url(#SVGID_00000062187558499320680890000001566386692235595953_);}
	.st9{fill:#00A0D8;}
	.st10{fill:#004A6D;}
</style>
<g>
	<defs>
		<polygon id="SVGID_1_" points="737.2,53.1 682,124.8 703.1,186.3 		"/>
	</defs>
	<clipPath id="SVGID_00000080182676439602227410000005684666161786451118_">
		<use xlink:href="#SVGID_1_"  style="overflow:visible;"/>
	</clipPath>
	<g style="clip-path:url(#SVGID_00000080182676439602227410000005684666161786451118_);">

			<linearGradient id="SVGID_00000057110876878217518960000008217622960341038736_" gradientUnits="userSpaceOnUse" x1="-84.9017" y1="-286.1401" x2="-83.9017" y2="-286.1401" gradientTransform="matrix(55.28 0 0 55.28 5374.5601 15937.5527)">
			<stop  offset="0" style="stop-color:#00639E"/>
			<stop  offset="0.71" style="stop-color:#008BBF"/>
			<stop  offset="0.99" style="stop-color:#00B6F1"/>
			<stop  offset="1" style="stop-color:#00B6F1"/>
		</linearGradient>

			<rect x="682" y="53.1" style="fill:url(#SVGID_00000057110876878217518960000008217622960341038736_);" width="55.3" height="133.2"/>
	</g>
</g>
<g>
	<defs>
		<polygon id="SVGID_00000178891241939339353850000015011798115225866900_" points="737.5,53 660.8,101.3 601.6,74.4 		"/>
	</defs>
	<clipPath id="SVGID_00000060730673883094285360000018397306810126327198_">
		<use xlink:href="#SVGID_00000178891241939339353850000015011798115225866900_"  style="overflow:visible;"/>
	</clipPath>
	<g style="clip-path:url(#SVGID_00000060730673883094285360000018397306810126327198_);">

			<linearGradient id="SVGID_00000062887724459634813700000004465808330328357311_" gradientUnits="userSpaceOnUse" x1="-83.5066" y1="-287.6544" x2="-82.5066" y2="-287.6544" gradientTransform="matrix(135.88 0 0 135.88 11948.459 39163.6328)">
			<stop  offset="0" style="stop-color:#003E56"/>
			<stop  offset="0.65" style="stop-color:#00517B"/>
			<stop  offset="0.99" style="stop-color:#008BBF"/>
			<stop  offset="1" style="stop-color:#008BBF"/>
		</linearGradient>

			<rect x="601.6" y="53" style="fill:url(#SVGID_00000062887724459634813700000004465808330328357311_);" width="135.9" height="48.2"/>
	</g>
</g>
<g>
	<defs>
		<path id="SVGID_00000141445279136742089860000000843340126570142380_" d="M328.3,364.3c32.8,22.9,71.8,35.1,111.7,35.1
			c108.1,0,195.7-87.6,195.7-195.7c0-12-1.1-24-3.3-35.8C578.2,240.9,446.5,396.1,328.3,364.3"/>
	</defs>
	<clipPath id="SVGID_00000152248969657405211730000012484441730342057374_">
		<use xlink:href="#SVGID_00000141445279136742089860000000843340126570142380_"  style="overflow:visible;"/>
	</clipPath>
	<g style="clip-path:url(#SVGID_00000152248969657405211730000012484441730342057374_);">

			<linearGradient id="SVGID_00000071547311069810369580000005611004351957336719_" gradientUnits="userSpaceOnUse" x1="-82.9729" y1="-288.2271" x2="-81.9729" y2="-288.2271" gradientTransform="matrix(307.38 0 0 307.38 25833.7402 88878.8594)">
			<stop  offset="0" style="stop-color:#00B6F1"/>
			<stop  offset="1.000000e-02" style="stop-color:#00B6F1"/>
			<stop  offset="0.57" style="stop-color:#008BBF"/>
			<stop  offset="1" style="stop-color:#00639E"/>
		</linearGradient>

			<rect x="328.4" y="167.9" style="fill:url(#SVGID_00000071547311069810369580000005611004351957336719_);" width="307.4" height="231.4"/>
	</g>
</g>
<g>
	<defs>
		<path id="SVGID_00000121988804452794790090000004802732110334270864_" d="M245.2,204.9c0,14.9,1.7,29.7,5,44.2
			c-14.8,2.3-30.3-12.8-30.3-12.8c9.3,17.5,23,32.3,39.8,42.8l0.2,0.5c6.5,3.9,13.3,7.3,20.3,10.1c9.2,3.8,18.7,6.4,28.5,8
			c67.5,11.7,168.6-18.7,316.5-158.1C597.7,61.4,523.8,9.2,440.9,9.2C332.8,9.2,245.2,96.8,245.2,204.9"/>
	</defs>
	<clipPath id="SVGID_00000114041262872421782320000005773947054397131690_">
		<use xlink:href="#SVGID_00000121988804452794790090000004802732110334270864_"  style="overflow:visible;"/>
	</clipPath>
	<g style="clip-path:url(#SVGID_00000114041262872421782320000005773947054397131690_);">

			<radialGradient id="SVGID_00000034811631645110916080000018215201412639966088_" cx="-82.9029" cy="-288.2874" r="1" gradientTransform="matrix(367.07 0 0 367.07 30713.1484 105982.5391)" gradientUnits="userSpaceOnUse">
			<stop  offset="0" style="stop-color:#008BBF"/>
			<stop  offset="1.000000e-02" style="stop-color:#008BBF"/>
			<stop  offset="0.35" style="stop-color:#00517B"/>
			<stop  offset="1" style="stop-color:#003E56"/>
		</radialGradient>

			<rect x="220" y="9.2" style="fill:url(#SVGID_00000034811631645110916080000018215201412639966088_);" width="405.4" height="300.2"/>
	</g>
</g>
<g>
	<defs>
		<rect id="SVGID_00000010302207253685017580000017266099128350958768_" x="-221.7" y="-310.6" width="1300" height="1300"/>
	</defs>
	<clipPath id="SVGID_00000116221980937585268970000001072759470376574081_">
		<use xlink:href="#SVGID_00000010302207253685017580000017266099128350958768_"  style="overflow:visible;"/>
	</clipPath>
	<g style="clip-path:url(#SVGID_00000116221980937585268970000001072759470376574081_);">
		<path class="st9" d="M31.5,433.8c8.1-0.1,15.9,3.2,21.4,9.1c12,12.1,12,31.6,0,43.7c-5.8,5.9-13.7,9.2-21.9,9
			c-8.2,0.1-16.1-3.2-21.9-9.1C-3,474.5-3,454.9,9.1,442.8c0,0,0.1-0.1,0.1-0.1C15.1,436.8,23.1,433.6,31.5,433.8 M30.9,451.1
			c-3.5,0-6.8,1.4-9.2,4c-5.1,5.4-5.1,13.8,0,19.2c4.8,5.1,12.8,5.3,17.9,0.5c0.2-0.2,0.3-0.3,0.5-0.5c5-5.4,5-13.8,0-19.2
			C37.7,452.5,34.4,451.1,30.9,451.1"/>
		<path class="st9" d="M107.3,494.1H91.1v-24.3c0-2.5-1-3.7-3.1-3.7s-3,1.2-3,3.7v24.3H68.9v-24c-0.1-5.3,1.9-10.4,5.6-14.2
			c3.5-3.8,8.5-5.9,13.6-5.8c5.7-0.2,11.2,2.3,14.8,6.7c2.9,3.5,4.3,8.3,4.3,14.5L107.3,494.1z"/>
		<path class="st9" d="M159,475.2h-24.5c-0.8-2.5-0.7-5.2,0.2-7.6h8.2c-0.6-3.2-2.4-4.8-5.4-4.8c-2,0-3.8,0.9-4.9,2.6
			c-1.3,1.9-2,4.2-1.9,6.6c-0.1,2.4,0.5,4.8,1.8,6.8c1,1.6,2.9,2.6,4.8,2.6c1.8-0.1,3.5-1,4.7-2.4l9.2,11c-4,3.3-9.1,5.1-14.3,5.1
			c-6,0.2-11.8-2.2-16.1-6.4c-8.7-8.9-8.7-23.1,0.1-31.9c4.3-4.3,10.1-6.7,16.2-6.5c12-0.2,21.9,9.4,22.1,21.4c0,0.2,0,0.4,0,0.7
			C159.1,472.9,159.1,473.9,159,475.2"/>
		<path class="st9" d="M216.6,435v16.8c-0.9-0.4-1.9-0.6-2.9-0.6c-1.3,0-2.5,0.5-3.4,1.5c-0.9,0.9-1.4,2.2-1.4,3.5
			c0.1,1.6,0.7,3.1,1.6,4.5l1.3,2.3c2.3,3.7,3.5,7.9,3.6,12.2c0.1,5.5-2.1,10.8-6.1,14.5c-3.9,3.9-9.3,6.1-14.9,6
			c-2.9,0-5.8-0.7-8.4-2v-17c1.3,0.9,2.8,1.5,4.4,1.6c1.4,0,2.8-0.4,3.8-1.3c1-0.8,1.6-2,1.5-3.3c0-0.9-0.8-2.8-2.5-5.6
			c-2.5-4.2-3.8-8.9-3.9-13.8c-0.1-5.4,2-10.7,5.9-14.5c3.7-3.9,8.8-6.1,14.2-6C211.9,433.8,214.3,434.2,216.6,435"/>
		<path class="st9" d="M238.6,435.2v16.5h7.2v17h-7.2c0,3.4,0.5,5.8,1.6,7.1s3.1,2,5.9,2v17c-0.8,0-1.4,0-1.9,0
			c-3.6,0-7.2-0.9-10.3-2.5c-3.1-1.6-5.8-4-7.8-6.9c-2.5-3.7-3.7-8.6-3.7-14.8v-35.3H238.6z"/>
		<path class="st9" d="M274.2,450.2c5.9-0.1,11.6,2.3,15.7,6.6c8.7,8.7,8.7,22.9,0,31.6c0,0,0,0-0.1,0.1c-8.9,8.8-23.1,8.8-32,0
			c-4.3-4.1-6.7-9.9-6.7-15.9c-0.1-6,2.3-11.8,6.7-15.9C262.2,452.4,268.1,450.1,274.2,450.2 M273.8,466.2c-1.7,0-3.3,0.7-4.4,1.9
			c-2.4,2.6-2.4,6.6,0,9.2c2.3,2.4,6,2.6,8.5,0.3c0.1-0.1,0.2-0.2,0.3-0.3c2.4-2.6,2.4-6.6,0-9.2
			C277.1,466.8,275.4,466.1,273.8,466.2"/>
		<path class="st9" d="M318.4,510.1h-16.1v-35.9c0-6.6,1.7-12,5.2-16.1c2.1-2.4,4.7-4.4,7.6-5.7c8.6-4,18.8-2.3,25.6,4.4
			c4.3,4.1,6.7,9.9,6.6,15.9c0.1,5.9-2.3,11.6-6.6,15.8c-4,4.3-9.7,6.7-15.5,6.6c-1,0-2.4-0.1-4.3-0.3V477c1.1,1,2.5,1.6,4,1.6
			c1.6,0,3.2-0.7,4.3-1.9c1.2-1.2,1.8-2.8,1.8-4.4c0-1.6-0.7-3.2-1.9-4.3c-1.2-1.2-2.8-1.8-4.4-1.8c-4.2,0-6.2,2.9-6.2,8.6
			L318.4,510.1z"/>
		<polygon class="st10" points="420,435.2 394.3,497.5 368.8,435.2 389.1,435.2 394.5,453.6 400.4,435.2 		"/>
		<path class="st10" d="M438.7,494.1h-16.1v-43h16.1L438.7,494.1z M430.7,431.9c2.1,0,4.2,0.8,5.7,2.3c3.1,2.9,3.2,7.7,0.4,10.8
			c-0.1,0.1-0.1,0.2-0.2,0.2c-3.3,2.9-8.3,2.9-11.6,0c-3-2.9-3-7.8-0.1-10.8c0.1-0.1,0.2-0.2,0.2-0.2
			C426.6,432.7,428.6,431.9,430.7,431.9"/>
		<path class="st10" d="M475.2,451.7v17c-2.3,0-3.8,0.4-4.7,1.3s-1.4,2.5-1.6,5c-0.7,8.3-4,14.2-9.7,17.6c-3,1.8-7.3,2.7-12.9,2.7
			h-2.2v-17.1h0.8c2.6,0,4.4-0.5,5.5-1.6c1.1-1.1,1.8-3,1.9-5.7c0-3.1,0.5-6.2,1.2-9.3c0.8-2,2-3.9,3.6-5.3
			c3.2-3.1,7.6-4.6,13.2-4.6L475.2,451.7z"/>
		<path class="st10" d="M504.4,478v16.7c-1.2,0.2-2.4,0.3-3.6,0.3c-6,0.2-11.9-2.1-16.2-6.4c-8.8-8.8-8.8-23,0-31.8
			c4.2-4.2,10-6.6,16-6.6c7,0,12.4,2,16.5,6.1c4,4.1,6,9.6,6,16.7v21.1h-16.1v-19.9c0.1-1.9-0.5-3.9-1.7-5.4c-1.1-1.3-2.7-2.1-4.5-2
			c-3.5,0.1-6.3,2.9-6.3,6.4c0,1.6,0.6,3.1,1.7,4.2c1.1,1.1,2.7,1.8,4.3,1.7C501.8,479.2,503.2,478.8,504.4,478"/>
		<path class="st10" d="M583.4,435v16.8c-0.9-0.4-1.9-0.6-2.9-0.6c-1.3,0-2.5,0.5-3.4,1.5c-0.9,0.9-1.5,2.2-1.4,3.5
			c0.1,1.6,0.7,3.1,1.6,4.5l1.3,2.3c2.3,3.7,3.5,7.9,3.6,12.2c0.1,5.5-2.1,10.8-6.1,14.5c-3.9,3.9-9.3,6.1-14.9,6
			c-2.9,0-5.8-0.7-8.4-2v-17c1.3,0.9,2.8,1.5,4.5,1.6c1.4,0,2.8-0.4,3.8-1.3c1-0.8,1.6-2,1.5-3.3c0-0.9-0.8-2.8-2.5-5.6
			c-2.5-4.2-3.9-8.9-3.9-13.8c-0.1-5.4,2.1-10.7,5.9-14.5c3.7-3.9,8.8-6.1,14.2-6C578.7,433.8,581.1,434.2,583.4,435"/>
		<path class="st10" d="M611.5,450.2c5.9-0.1,11.6,2.3,15.7,6.6c8.7,8.7,8.7,22.9,0,31.6c0,0,0,0-0.1,0.1c-8.9,8.8-23.1,8.8-32,0
			c-4.3-4.1-6.7-9.9-6.6-15.9c-0.1-6,2.3-11.8,6.6-15.9C599.4,452.4,605.3,450.1,611.5,450.2 M611,466.2c-1.7,0-3.3,0.7-4.4,1.9
			c-2.4,2.6-2.4,6.6,0,9.2c2.3,2.4,6,2.6,8.5,0.3c0.1-0.1,0.2-0.2,0.3-0.3c2.4-2.6,2.4-6.6,0-9.2C614.3,466.8,612.7,466.1,611,466.2
			"/>
		<rect x="640.4" y="435.2" class="st10" width="16.1" height="58.9"/>
		<path class="st10" d="M666,451.7h16.1V476c0,2.4,1,3.7,3.1,3.7c2,0,3-1.2,3-3.7v-24.3h16.1v24c0.1,5.3-1.9,10.3-5.5,14.1
			c-7.5,7.6-19.8,7.7-27.4,0.2c-0.4-0.4-0.7-0.7-1.1-1.1c-2.9-3.5-4.4-8.3-4.4-14.5L666,451.7z"/>
		<path class="st10" d="M728.1,435.2v16.5h7.2v17h-7.2c0,3.4,0.5,5.8,1.6,7.1c1.1,1.3,3.1,2,5.9,2v17c-0.8,0-1.5,0-1.9,0
			c-3.6,0-7.1-0.9-10.3-2.5c-3.1-1.6-5.8-4-7.8-6.9c-2.5-3.7-3.7-8.6-3.7-14.8v-35.3H728.1z"/>
		<path class="st10" d="M759.5,494.1h-16.1v-43h16.1V494.1z M751.5,431.9c2.1,0,4.2,0.8,5.7,2.3c3.1,2.9,3.2,7.7,0.4,10.8
			c-0.1,0.1-0.1,0.2-0.2,0.2c-3.3,2.9-8.3,2.9-11.6,0c-3-3-3-7.8-0.1-10.8c0.1-0.1,0.1-0.1,0.2-0.2
			C747.3,432.7,749.3,431.9,751.5,431.9"/>
		<path class="st10" d="M789.4,450.2c5.9-0.1,11.6,2.3,15.7,6.6c8.7,8.7,8.7,22.8,0,31.6c0,0-0.1,0.1-0.1,0.1
			c-8.9,8.8-23.1,8.8-32,0c-4.3-4.1-6.7-9.9-6.7-15.9c-0.1-6,2.3-11.8,6.7-15.9C777.3,452.4,783.2,450.1,789.4,450.2 M788.9,466.1
			c-1.7,0-3.3,0.7-4.4,1.9c-2.4,2.6-2.4,6.6,0,9.2c2.3,2.4,6.1,2.5,8.6,0.2c0.1-0.1,0.2-0.2,0.2-0.2c2.4-2.6,2.4-6.6,0-9.2
			C792.1,466.8,790.5,466.1,788.9,466.1"/>
		<path class="st10" d="M856.7,494.1h-16.1v-24.3c0-2.5-1-3.7-3.1-3.7c-2,0-3,1.2-3,3.7v24.3h-16.2v-24c-0.1-5.3,1.9-10.4,5.6-14.1
			c7.5-7.6,19.8-7.7,27.4-0.2c0.4,0.3,0.7,0.7,1,1.1c2.9,3.5,4.4,8.3,4.4,14.5L856.7,494.1z"/>
		<path class="st9" d="M68.9,560.5l7.9-15.4l6.9-13.6l1.4-3c0.4,0,0.8,0,1.3,0c0.5,0,0.9,0,1.3,0l4.5,12.9l6.9,19.1H98H97
			c-0.4-1.5-1.2-4-2.5-7.5s-2.2-6.1-2.8-7.8H78.4l-7.4,15.3H70L68.9,560.5 M79.2,543.6h12l-5-13.7L79.2,543.6z"/>
		<path class="st9" d="M103.5,560.5c0.7-13,1.1-23.7,1.3-32h1h1l-0.6,11.4l-0.7,20.6h-1H103.5"/>
		<path class="st9" d="M112.5,560.5c0.7-13,1.1-23.7,1.3-32h1h1l-0.6,11.4l-0.7,20.6h-1H112.5"/>
		<path class="st9" d="M128.7,571.4c0-0.6-0.1-1.2-0.1-1.8c0.4,0.2,0.8,0.3,1.2,0.5c0.4,0.1,0.8,0.2,1.1,0.2
			c0.4,0.1,0.8,0.1,1.2,0.1c0.9,0,1.7-0.2,2.5-0.7c1-0.7,1.8-1.7,2.4-2.8c1-1.9,2-3.8,2.8-5.7l-5.2-14.4l-3.7-10h1.1h1.1l0.4,1.7
			c0.2,0.6,0.4,1.3,0.6,1.9c0.3,0.9,0.7,2.1,1.2,3.6l5.3,15.2l7.4-16.5c0.7-1.5,1.1-2.6,1.4-3.3s0.6-1.6,1-2.7h1.1h1.1
			c-0.8,1.8-2.2,4.9-4.3,9.3l-4.6,9.9l-4.4,9.7c-0.5,1.1-1.1,2.2-1.8,3.3c-0.4,0.5-0.8,1-1.3,1.4c-0.3,0.3-0.7,0.5-1.1,0.7
			c-0.5,0.3-1,0.4-1.6,0.6c-0.6,0.2-1.2,0.2-1.9,0.2C130.7,571.9,129.7,571.7,128.7,571.4"/>
		<path class="st9" d="M165.7,536.3c1.4,0,2.8,0.2,4.2,0.6c1.3,0.4,2.6,1.1,3.6,2.1c1.1,1.1,1.9,2.4,2.4,3.8c0.6,1.6,0.8,3.3,0.8,5
			c0,1.9-0.3,3.7-0.9,5.5c-0.5,1.6-1.3,3.1-2.5,4.4c-1,1.1-2.3,2-3.7,2.5c-2.5,0.8-5.3,0.9-7.9,0.3c-1.1-0.3-2.1-0.7-3-1.3
			c-1-0.6-1.8-1.4-2.5-2.4c-0.7-1-1.3-2.2-1.6-3.5c-0.4-1.3-0.6-2.7-0.6-4.1c0-2.4,0.5-4.7,1.4-6.9c0.8-2,2.3-3.6,4.2-4.6
			C161.6,536.8,163.6,536.3,165.7,536.3 M165.7,537.6c-1.8,0-3.6,0.5-5.2,1.4c-1.6,0.9-2.9,2.4-3.5,4.2c-0.8,1.9-1.2,4-1.1,6.1
			c0,1.5,0.2,3,0.6,4.4c0.4,1.3,1.1,2.5,2.1,3.5c0.9,0.9,1.9,1.6,3.1,2c1.1,0.4,2.3,0.6,3.5,0.5c1.3,0,2.7-0.2,3.9-0.7
			c1.2-0.5,2.4-1.3,3.2-2.3c1-1.1,1.6-2.5,2-3.9c0.4-1.6,0.7-3.3,0.7-4.9c0-1.5-0.2-3.1-0.6-4.5c-0.4-1.3-1-2.5-2-3.4
			c-0.9-0.8-1.9-1.4-3.1-1.8C168,537.8,166.8,537.6,165.7,537.6"/>
		<path class="st9" d="M202.4,560.5h-0.9h-0.9l0.2-5.1c-0.3,0.6-0.6,1.2-0.9,1.7c-0.3,0.4-0.6,0.8-0.9,1.1c-0.4,0.4-0.9,0.8-1.4,1.1
			c-0.6,0.4-1.2,0.7-1.9,0.9c-0.7,0.2-1.5,0.4-2.3,0.5c-0.8,0.1-1.6,0.2-2.3,0.2c-1.3,0-2.5-0.1-3.8-0.5c-1.1-0.3-2.2-0.8-3.1-1.5
			c-0.8-0.7-1.5-1.5-1.8-2.6c-0.3-1.1-0.5-2.2-0.5-3.3c0-1,0.1-3.3,0.3-7.1s0.3-6.8,0.3-9.2h0.9h0.9c-0.1,1.3-0.3,4.1-0.6,8.4
			c-0.2,4.2-0.4,6.9-0.4,8c0,1,0.1,2,0.5,3c0.3,0.8,0.9,1.6,1.6,2c0.8,0.5,1.7,0.9,2.6,1.1c1,0.2,2,0.3,3,0.3c1.1,0,2.1-0.1,3.1-0.4
			c0.9-0.2,1.7-0.6,2.5-1c0.7-0.4,1.2-0.9,1.7-1.5c0.6-0.7,1.1-1.5,1.5-2.4c0.4-1,0.7-2,0.8-3c0.2-1.2,0.3-3.3,0.4-6.4
			s0.2-5.7,0.2-8.2h0.9h0.9l-0.9,16.4l-0.1,3.5C202.4,558.2,202.4,559.4,202.4,560.5"/>
		<path class="st9" d="M209,560.5c0.2-3.3,0.4-7.2,0.5-11.6c0.2-4.5,0.3-7.8,0.3-9.9v-2.1h0.9h0.9l-0.2,4.4c0.4-0.9,0.9-1.7,1.5-2.4
			c0.4-0.5,1-1,1.6-1.4c0.7-0.4,1.4-0.7,2.1-0.8c0.8-0.2,1.7-0.3,2.5-0.3c0.7,0,1.3,0.1,1.9,0.2c0,0.5,0,1.1,0.1,1.6
			c-0.9-0.2-1.8-0.4-2.7-0.4c-0.7,0-1.4,0.1-2,0.3c-0.6,0.2-1.2,0.5-1.7,0.9c-0.6,0.5-1.1,1-1.5,1.6c-0.5,0.7-0.9,1.4-1.1,2.2
			c-0.4,1.1-0.6,2.2-0.6,3.3c-0.2,2-0.3,4.3-0.3,6.8c-0.1,3.4-0.1,6-0.1,7.7H210L209,560.5"/>
		<path class="st9" d="M245.8,559c-0.1,0.5-0.2,1-0.3,1.5c-1.1,0.3-2.3,0.4-3.5,0.5c-0.8,0-1.6-0.1-2.4-0.3c-0.7-0.2-1.2-0.5-1.7-1
			c-0.4-0.5-0.7-1.1-0.9-1.7c-0.1-0.7-0.2-1.3-0.2-2c0-0.1,0-0.3,0-0.6s0-0.8,0.1-1.8l0.8-15.5h-2.8c0.1-0.4,0.1-0.8,0.1-1.3h2.9
			c0.1-1,0.1-2.5,0.2-4.4c0.5-0.1,1-0.2,1.5-0.3c-0.1,2.5-0.2,4.1-0.2,4.7h7c-0.1,0.4-0.1,0.8-0.1,1.3h-7l-0.8,16.1v1
			c-0.1,1,0.1,2,0.5,2.9c0.3,0.6,0.7,1,1.3,1.3c0.5,0.3,1.1,0.4,1.7,0.4c0.4,0,0.9,0,1.3-0.1C243.8,559.5,244.7,559.3,245.8,559"/>
		<path class="st9" d="M249.3,560.5c0.2-3.3,0.4-7.2,0.5-11.6c0.2-4.5,0.3-7.8,0.3-9.9v-2.1h0.9h0.9l-0.2,4.4
			c0.4-0.9,0.9-1.7,1.5-2.4c0.4-0.5,1-1,1.6-1.4c0.7-0.4,1.4-0.7,2.1-0.8c0.8-0.2,1.7-0.3,2.5-0.3c0.7,0,1.3,0.1,1.9,0.2
			c0,0.5,0,1.1,0.1,1.6c-0.9-0.2-1.8-0.4-2.7-0.4c-0.7,0-1.4,0.1-2,0.3c-0.6,0.2-1.2,0.5-1.7,0.9c-0.6,0.5-1.1,1-1.5,1.6
			c-0.5,0.7-0.9,1.4-1.1,2.2c-0.3,1.1-0.6,2.2-0.6,3.3c-0.2,2-0.3,4.3-0.3,6.8c-0.1,3.4-0.1,6-0.1,7.7h-0.9H249.3"/>
		<path class="st9" d="M265.9,539.3c0.1-0.6,0.2-1.2,0.3-1.8c1.4-0.4,2.7-0.7,4.1-0.9c1.2-0.2,2.4-0.3,3.6-0.2
			c1.3,0,2.6,0.1,3.9,0.4c1.1,0.2,2.1,0.6,2.9,1.2c0.7,0.5,1.2,1.2,1.5,2c0.2,0.7,0.4,1.5,0.4,2.2c0,0.8,0,1.8-0.1,3
			s-0.1,2.5-0.2,3.8s-0.2,3.1-0.3,5.2s-0.1,3.5-0.1,4.4v2h-1h-1c0.2-2.4,0.4-4.3,0.5-5.8c0.1-1.5,0.2-3.1,0.2-4.8s0.1-3.3,0.2-4.8
			c-0.5,0.4-0.9,0.7-1.1,0.9c-0.3,0.2-0.5,0.4-0.8,0.5c-0.3,0.2-0.7,0.3-1.1,0.5s-0.8,0.3-1.2,0.4s-1.2,0.4-2.6,0.7s-2.4,0.7-3,0.8
			c-1.1,0.3-2.1,0.7-3.1,1.2c-0.7,0.4-1.4,0.8-2,1.4c-0.4,0.4-0.8,0.9-1,1.4c-0.3,0.6-0.4,1.2-0.4,1.9c0,1,0.3,1.9,0.9,2.7
			c0.6,0.7,1.4,1.3,2.3,1.6c1.1,0.3,2.2,0.5,3.4,0.5c0.6,0,1.3,0,1.9-0.1c0.6-0.1,1.2-0.2,1.7-0.3s1.3-0.3,2.3-0.7
			c-0.1,0.6-0.3,1.2-0.4,1.8c-1,0.2-2.1,0.4-3.1,0.5c-0.8,0.1-1.5,0.1-2.2,0.1c-1.2,0-2.4-0.1-3.6-0.3c-1-0.2-2-0.6-2.8-1.2
			c-0.7-0.5-1.3-1.3-1.7-2.1c-0.4-0.8-0.5-1.6-0.5-2.5c0-0.7,0.1-1.3,0.3-1.9c0.2-0.6,0.6-1.2,1-1.8c0.4-0.5,0.9-1,1.5-1.3
			c0.8-0.5,1.6-0.9,2.4-1.3c1.1-0.4,2.2-0.8,3.3-1.1c0.3-0.1,1.6-0.4,3.9-1c1-0.3,1.9-0.6,2.9-1c0.8-0.3,1.6-0.9,2.1-1.7
			c0.5-0.6,0.7-1.4,0.8-2.2c0-0.5-0.1-1.1-0.4-1.5c-0.3-0.6-0.7-1-1.2-1.4c-0.7-0.5-1.4-0.8-2.2-0.9c-0.9-0.2-1.9-0.3-2.8-0.3
			c-1.1,0-2.1,0.1-3.2,0.2c-0.9,0.1-1.7,0.3-2.5,0.5c-0.7,0.2-1.5,0.5-2.6,0.9"/>
		<path class="st9" d="M294.7,560.5c-0.9-2.5-1.9-5.4-3.1-8.5l-5.7-15.1h1h1l0.6,2c0.1,0.4,0.2,0.8,0.4,1.1l6.9,19.2l8.8-20.3l0.8-2
			h1.1h1l-9.4,20.7l-1.3,3h-1.1L294.7,560.5"/>
		<path class="st9" d="M327.8,558.2c-0.1,0.6-0.2,1.2-0.3,1.8c-1.1,0.3-2.3,0.6-3.5,0.8c-1,0.1-2.1,0.2-3.2,0.2
			c-1.7,0-3.4-0.2-5-0.8c-1.4-0.5-2.7-1.4-3.7-2.5c-1-1.2-1.8-2.5-2.2-4c-0.4-1.5-0.7-3.1-0.7-4.7c0-2.1,0.4-4.2,1.1-6.1
			c1.6-4.1,5.7-6.8,10.1-6.6c1.6,0,3.3,0.3,4.8,1c1.4,0.7,2.6,1.8,3.3,3.2c0.8,1.6,1.2,3.4,1.2,5.2c0,0.4,0,0.7,0,1.1h-18.6
			c-0.1,1-0.1,1.8-0.1,2.3c0,1.5,0.2,2.9,0.7,4.3c0.4,1.3,1.1,2.5,2,3.5c0.9,0.9,2,1.7,3.2,2.1c1.3,0.5,2.6,0.7,3.9,0.7
			C323.3,559.5,325.6,559,327.8,558.2 M311.5,545.5h16.7c0-0.8-0.1-1.7-0.2-2.5c-0.1-0.6-0.3-1.2-0.6-1.8c-0.3-0.6-0.6-1.1-1.1-1.6
			c-0.4-0.5-0.9-0.8-1.5-1.1c-0.6-0.3-1.3-0.5-1.9-0.7c-0.7-0.2-1.4-0.2-2.2-0.2c-0.8,0-1.6,0.1-2.4,0.3c-0.8,0.2-1.5,0.4-2.2,0.8
			c-0.7,0.3-1.3,0.8-1.9,1.2c-0.5,0.5-1,1-1.4,1.7c-0.3,0.5-0.6,1.1-0.8,1.7C311.8,544,311.6,544.7,311.5,545.5"/>
		<path class="st9" d="M334.3,560.5c0.7-13,1.1-23.7,1.3-32h1h1l-0.7,11.4l-0.7,20.6h-1H334.3"/>
		<path class="st9" d="M356.6,539.3c0.1-0.6,0.2-1.2,0.3-1.8c1.4-0.4,2.7-0.7,4.1-0.9c1.2-0.2,2.4-0.3,3.6-0.2
			c1.3,0,2.6,0.1,3.9,0.4c1.1,0.2,2.1,0.6,2.9,1.2c0.7,0.5,1.2,1.2,1.5,2c0.2,0.7,0.4,1.5,0.4,2.2c0,0.8,0,1.8-0.1,3
			s-0.1,2.5-0.2,3.8s-0.2,3.1-0.3,5.2s-0.1,3.5-0.1,4.4v2h-1h-1c0.2-2.4,0.4-4.3,0.5-5.8c0.1-1.5,0.2-3.1,0.2-4.8s0.1-3.3,0.2-4.8
			c-0.5,0.4-0.8,0.7-1.1,0.9c-0.3,0.2-0.5,0.4-0.8,0.5c-0.3,0.2-0.7,0.3-1.1,0.5s-0.8,0.3-1.2,0.4s-1.2,0.4-2.6,0.7s-2.4,0.7-3,0.8
			c-1.1,0.3-2.1,0.7-3.1,1.2c-0.7,0.4-1.4,0.8-2,1.4c-0.4,0.4-0.8,0.9-1,1.4c-0.3,0.6-0.4,1.2-0.4,1.9c0,1,0.3,1.9,0.9,2.7
			c0.6,0.7,1.4,1.3,2.3,1.6c1.1,0.3,2.2,0.5,3.4,0.5c0.6,0,1.3,0,1.9-0.1c0.6-0.1,1.2-0.2,1.7-0.3s1.3-0.3,2.3-0.7
			c-0.1,0.6-0.3,1.2-0.4,1.8c-1,0.2-2.1,0.4-3.1,0.5c-0.8,0.1-1.5,0.1-2.2,0.1c-1.2,0-2.4-0.1-3.6-0.3c-1-0.2-2-0.6-2.8-1.2
			c-0.7-0.5-1.3-1.3-1.7-2.1c-0.4-0.8-0.5-1.6-0.5-2.5c0-0.7,0.1-1.3,0.3-1.9c0.2-0.6,0.6-1.2,1-1.8c0.4-0.5,0.9-1,1.5-1.3
			c0.8-0.5,1.6-0.9,2.4-1.3c1.1-0.4,2.2-0.8,3.3-1.1c0.3-0.1,1.6-0.4,3.9-1c1-0.3,1.9-0.6,2.9-1c0.8-0.3,1.6-0.9,2.1-1.7
			c0.5-0.6,0.7-1.4,0.8-2.2c0-0.5-0.1-1.1-0.4-1.5c-0.3-0.6-0.7-1-1.2-1.4c-0.7-0.5-1.4-0.8-2.2-0.9c-0.9-0.2-1.9-0.3-2.8-0.3
			c-1.1,0-2.1,0.1-3.2,0.2c-0.9,0.1-1.7,0.3-2.5,0.5c-0.7,0.2-1.5,0.5-2.6,0.9"/>
		<path class="st9" d="M379.6,560.5l0.4-8.3l0.4-14.1h-3c0.1-0.4,0.1-0.9,0.1-1.3h2.9c0.1-2.3,0.1-3.6,0.2-4c0.1-0.7,0.2-1.4,0.4-2
			c0.2-0.4,0.4-0.9,0.7-1.2c0.3-0.4,0.7-0.7,1.2-1c0.5-0.3,1.1-0.5,1.7-0.7c0.7-0.2,1.5-0.2,2.3-0.2c0.5,0,1,0,1.5,0.1
			c0.5,0.1,1.2,0.2,2.1,0.4c0.1,0.6,0.1,1.1,0.3,1.6c-1.3-0.5-2.6-0.7-4-0.8c-0.6,0-1.2,0.1-1.8,0.3c-0.5,0.1-0.9,0.4-1.3,0.7
			c-0.3,0.3-0.6,0.6-0.8,1c-0.2,0.4-0.4,0.8-0.5,1.3c-0.1,0.7-0.2,1.4-0.2,2.1c0,0.2,0,1-0.1,2.5h7c-0.1,0.4-0.1,0.9-0.1,1.3h-6.9
			l-0.5,22.4h-1H379.6"/>
		<path class="st9" d="M391.6,560.5l0.4-8.3l0.4-14.1h-3c0.1-0.4,0.1-0.9,0.1-1.3h2.9c0.1-2.3,0.1-3.6,0.2-4c0.1-0.7,0.2-1.4,0.4-2
			c0.2-0.4,0.4-0.9,0.7-1.2c0.3-0.4,0.7-0.7,1.2-1c0.5-0.3,1.1-0.5,1.7-0.7c0.7-0.2,1.5-0.2,2.3-0.2c0.5,0,1,0,1.5,0.1
			c0.5,0.1,1.2,0.2,2.1,0.4c0,0.6,0.1,1.1,0.2,1.6c-1.3-0.5-2.6-0.7-4-0.8c-0.6,0-1.2,0.1-1.8,0.3c-0.5,0.1-0.9,0.4-1.3,0.7
			c-0.3,0.3-0.6,0.6-0.8,1c-0.2,0.4-0.4,0.8-0.5,1.3c-0.1,0.7-0.2,1.4-0.2,2.1c0,0.2,0,1-0.1,2.5h7c-0.1,0.4-0.1,0.9-0.1,1.3h-6.9
			l-0.5,22.4h-1H391.6"/>
		<path class="st9" d="M404.5,539.3c0.1-0.6,0.2-1.2,0.3-1.8c1.4-0.4,2.7-0.7,4.1-0.9c1.2-0.2,2.4-0.3,3.6-0.2
			c1.3,0,2.6,0.1,3.9,0.4c1.1,0.2,2.1,0.6,2.9,1.2c0.7,0.5,1.2,1.2,1.5,2c0.2,0.7,0.4,1.5,0.4,2.2c0,0.8,0,1.8-0.1,3
			s-0.1,2.5-0.2,3.8s-0.2,3.1-0.2,5.2s-0.1,3.5-0.1,4.4v2h-1h-1c0.2-2.4,0.4-4.3,0.5-5.8c0.1-1.5,0.1-3.1,0.2-4.8s0.1-3.3,0.2-4.8
			l-1.1,0.9c-0.3,0.2-0.6,0.4-0.9,0.5c-0.4,0.2-0.7,0.3-1.1,0.5c-0.4,0.2-0.8,0.3-1.2,0.4s-1.2,0.4-2.6,0.7s-2.4,0.7-3,0.8
			c-1.1,0.3-2.1,0.7-3.1,1.2c-0.7,0.4-1.4,0.8-2,1.4c-0.4,0.4-0.8,0.9-1,1.4c-0.3,0.6-0.4,1.2-0.4,1.9c0,1,0.3,1.9,0.9,2.7
			c0.6,0.7,1.4,1.3,2.3,1.6c1.1,0.3,2.2,0.5,3.4,0.5c0.6,0,1.3,0,1.9-0.1c0.6-0.1,1.2-0.2,1.7-0.3s1.3-0.3,2.3-0.7
			c-0.1,0.6-0.2,1.2-0.4,1.8c-1,0.2-2,0.4-3.1,0.5c-0.8,0.1-1.5,0.1-2.2,0.1c-1.2,0-2.4-0.1-3.6-0.3c-1-0.2-2-0.6-2.8-1.2
			c-0.7-0.5-1.3-1.2-1.7-2.1c-0.4-0.8-0.5-1.6-0.5-2.5c0-0.6,0.1-1.3,0.3-1.9c0.2-0.6,0.6-1.2,1-1.8c0.4-0.5,0.9-0.9,1.5-1.3
			c0.8-0.5,1.6-0.9,2.4-1.3c1-0.4,2.1-0.8,3.3-1.1c0.3-0.1,1.6-0.4,3.9-1c1-0.3,1.9-0.6,2.9-1c0.8-0.3,1.6-0.9,2.1-1.7
			c0.5-0.6,0.7-1.4,0.8-2.2c0-0.5-0.1-1.1-0.4-1.5c-0.3-0.6-0.7-1.1-1.2-1.5c-0.7-0.5-1.4-0.8-2.2-0.9c-0.9-0.2-1.9-0.3-2.8-0.3
			c-1.9,0-3.9,0.3-5.7,0.7C406.4,538.6,405.6,538.9,404.5,539.3"/>
		<path class="st9" d="M427.3,560.5c0.2-2.3,0.4-6.4,0.6-12.3c0.2-5.8,0.4-9.6,0.4-11.4h0.9h1c-0.2,3-0.4,7-0.6,12.2
			c-0.2,5.1-0.3,9-0.3,11.5h-0.9L427.3,560.5 M428.2,530.8l0.1-2.3c0.4,0,0.8,0,1.2,0s0.8,0,1.2,0l-0.1,2.3c-0.4,0-0.8,0-1.2,0
			S428.6,530.8,428.2,530.8"/>
		<path class="st9" d="M436,560.5c0.2-3.3,0.4-7.2,0.5-11.6c0.2-4.5,0.3-7.8,0.3-9.9v-2.1h0.9h0.9l-0.2,4.4c0.4-0.9,0.9-1.7,1.5-2.4
			c0.4-0.5,1-1,1.6-1.4c0.7-0.4,1.4-0.7,2.1-0.8c0.8-0.2,1.7-0.3,2.5-0.3c0.7,0,1.3,0.1,2,0.2c0,0.5,0,1.1,0.1,1.6
			c-0.9-0.2-1.8-0.4-2.7-0.4c-1.3,0-2.6,0.4-3.7,1.2c-0.6,0.5-1.1,1-1.5,1.6c-0.5,0.7-0.9,1.4-1.1,2.2c-0.3,1.1-0.6,2.2-0.6,3.3
			c-0.2,2-0.3,4.3-0.3,6.8c-0.1,3.4-0.1,6-0.1,7.7h-0.9H436"/>
		<path class="st9" d="M449.6,560c0-0.7-0.1-1.3-0.2-2c1.1,0.5,2.3,0.9,3.5,1.1c1,0.2,2,0.3,3,0.3c1,0,2.1-0.1,3.1-0.5
			c0.8-0.3,1.5-0.8,1.9-1.5c0.4-0.6,0.7-1.3,0.7-2.1c0-0.6-0.1-1.3-0.4-1.9c-0.2-0.3-0.3-0.6-0.5-0.8c-0.3-0.3-0.5-0.6-0.8-0.9
			c-0.4-0.3-0.8-0.7-1.2-1.1c-0.5-0.4-1.2-1-2.2-1.8s-1.8-1.5-2.5-2.2c-0.6-0.5-1.1-1.2-1.6-1.8c-0.4-0.5-0.7-1.1-0.9-1.7
			c-0.2-0.5-0.3-1-0.3-1.6c0-0.9,0.3-1.9,0.9-2.6c0.6-0.9,1.5-1.6,2.5-2c1.3-0.5,2.7-0.7,4.1-0.7c1.6,0,3.1,0.2,4.6,0.5
			c0,0.7,0.1,1.3,0.1,2c-0.9-0.4-1.8-0.7-2.7-0.8c-0.8-0.1-1.6-0.2-2.4-0.2c-1,0-1.9,0.1-2.8,0.5c-0.8,0.2-1.4,0.7-1.9,1.3
			c-0.4,0.5-0.6,1.2-0.6,1.9c0,0.4,0,0.7,0.1,1.1c0.1,0.4,0.2,0.7,0.4,1c0.2,0.4,0.5,0.7,0.8,1c0.4,0.4,0.8,0.8,1.2,1.2
			c0.5,0.5,1.2,1.1,2.2,1.9s1.7,1.4,2.1,1.8s0.9,0.8,1.2,1.1c0.4,0.4,0.7,0.7,1,1.1c0.3,0.4,0.5,0.8,0.7,1.2
			c0.2,0.4,0.3,0.8,0.4,1.2c0.1,0.4,0.1,0.8,0.1,1.2c0,1-0.3,2-0.9,2.8c-0.6,0.9-1.5,1.6-2.5,2.1c-1.3,0.5-2.6,0.8-4,0.7
			c-0.7,0-1.4-0.1-2.2-0.1c-0.9-0.1-1.6-0.2-2.1-0.3S450.5,560.2,449.6,560"/>
		<path class="st9" d="M501,560.5h-0.9h-0.9l0.2-5.1c-0.3,0.6-0.5,1.2-0.9,1.7c-0.3,0.4-0.6,0.8-0.9,1.1c-0.4,0.4-0.9,0.8-1.4,1.1
			c-0.6,0.4-1.2,0.7-1.9,0.9c-0.7,0.3-1.5,0.4-2.3,0.5c-0.8,0.1-1.6,0.2-2.3,0.2c-1.3,0-2.5-0.1-3.8-0.5c-1.1-0.3-2.2-0.8-3.1-1.5
			c-0.8-0.7-1.5-1.5-1.8-2.6c-0.3-1.1-0.5-2.2-0.5-3.3c0-1,0.1-3.3,0.3-7.1c0.2-3.8,0.3-6.8,0.3-9.2h0.9h0.9
			c-0.1,1.3-0.3,4.1-0.5,8.4c-0.2,4.2-0.4,6.9-0.4,8c0,1,0.1,2,0.5,3c0.3,0.8,0.9,1.5,1.6,2c0.8,0.6,1.7,0.9,2.6,1.2
			c1,0.2,2,0.3,3,0.3c1.1,0,2.1-0.1,3.1-0.4c0.9-0.2,1.7-0.6,2.5-1c0.7-0.4,1.2-0.9,1.7-1.5c0.6-0.7,1.1-1.5,1.5-2.4
			c0.4-1,0.7-2,0.8-3c0.2-1.2,0.3-3.3,0.4-6.4s0.2-5.7,0.2-8.2h0.9h0.9l-0.9,16.4l-0.1,3.5C501,558.2,501,559.4,501,560.5"/>
		<path class="st9" d="M507.6,560.5l0.8-14.3l0.2-6.7c0-1.2,0-2.1,0-2.6h0.9h0.9l-0.3,5.3c0.3-0.7,0.6-1.3,0.8-1.7
			c0.3-0.4,0.6-0.8,0.9-1.2c0.4-0.5,0.9-0.9,1.4-1.2c0.6-0.4,1.2-0.8,1.9-1c0.8-0.3,1.5-0.4,2.3-0.6c0.8-0.1,1.6-0.2,2.4-0.2
			c1.3,0,2.6,0.1,3.8,0.5c1.1,0.2,2.2,0.8,3.1,1.5c0.8,0.7,1.4,1.5,1.7,2.5c0.3,1,0.5,2,0.5,3c0,0.5,0,1.2-0.1,2.2l-0.5,10.7
			l-0.1,3.8h-0.9h-0.9c0.2-2,0.3-3.8,0.4-5.6l0.3-6c0.1-2.2,0.2-3.8,0.2-4.8c0-0.9-0.1-1.9-0.4-2.8c-0.3-0.8-0.8-1.5-1.5-2
			c-0.8-0.6-1.7-1-2.6-1.2c-1-0.3-2-0.4-3.1-0.4c-1.3,0-2.7,0.2-3.9,0.6c-1.1,0.4-2,1-2.8,1.7c-0.9,0.8-1.5,1.8-2,2.9
			c-0.5,1.1-0.8,2.3-0.9,3.5c-0.2,1.3-0.3,3.5-0.5,6.4s-0.2,5.5-0.2,7.6h-0.9L507.6,560.5"/>
		<path class="st9" d="M555.4,560.5c-0.4,0-0.7,0-0.9,0h-1l0.3-6c-0.3,0.7-0.7,1.5-1,2.2c-0.3,0.6-0.7,1.1-1.2,1.6
			c-0.5,0.5-1.1,1-1.8,1.4c-0.8,0.4-1.6,0.8-2.4,1c-0.9,0.2-1.9,0.4-2.9,0.4c-1.5,0-2.9-0.3-4.2-0.8c-1.3-0.5-2.4-1.3-3.4-2.3
			c-0.9-1-1.6-2.2-2-3.5c-0.4-1.4-0.6-2.8-0.6-4.2c0-2,0.4-3.9,1.1-5.7c1.4-3.6,4.3-6.3,8-7.3c1.8-0.5,3.7-0.8,5.6-0.8
			c1.8,0,3.5,0.2,5.3,0.5c0.1-1.5,0.1-2.9,0.1-4.3c0-1.2,0-2.6-0.1-4.1h1h1c-0.2,2.9-0.3,6-0.4,9.2l-0.3,11.3
			c-0.1,4.3-0.2,7.2-0.2,8.6L555.4,560.5z M554.2,538.4c-1.7-0.5-3.4-0.8-5.2-0.8c-1.7,0-3.4,0.2-5,0.8c-1.6,0.5-3,1.3-4.2,2.4
			c-1.2,1.2-2.2,2.6-2.8,4.3c-0.6,1.6-1,3.3-1,5.1c0,1.7,0.3,3.4,1.1,5c0.6,1.4,1.7,2.6,3,3.4c1.3,0.7,2.8,1.1,4.4,1.1
			c0.9,0,1.8-0.1,2.6-0.3c0.8-0.2,1.5-0.6,2.1-1c0.7-0.4,1.3-1,1.8-1.6c0.6-0.7,1.1-1.5,1.5-2.4c0.4-1,0.8-2,1-3
			c0.3-1.7,0.4-3.3,0.4-5L554.2,538.4z"/>
		<path class="st9" d="M579.9,558.2c-0.1,0.6-0.2,1.2-0.3,1.8c-1.1,0.3-2.3,0.6-3.5,0.8c-1,0.1-2.1,0.2-3.2,0.2
			c-1.7,0-3.4-0.2-5-0.8c-1.4-0.5-2.7-1.4-3.7-2.5c-1-1.2-1.8-2.5-2.2-4c-1-3.6-0.8-7.3,0.5-10.8c1.6-4.1,5.7-6.8,10.1-6.6
			c1.6,0,3.3,0.3,4.8,1c1.4,0.7,2.6,1.8,3.3,3.2c0.8,1.6,1.2,3.4,1.2,5.2c0,0.4,0,0.7,0,1.1h-18.6c-0.1,1-0.1,1.8-0.1,2.3
			c0,1.5,0.2,2.9,0.7,4.3c0.4,1.3,1.1,2.5,2,3.5c0.9,0.9,2,1.7,3.2,2.1c1.3,0.5,2.6,0.7,3.9,0.7C575.3,559.5,577.7,559,579.9,558.2
			 M563.5,545.5h16.7c0-0.8-0.1-1.7-0.2-2.5c-0.1-0.6-0.3-1.2-0.6-1.8c-0.3-0.6-0.6-1.1-1.1-1.6c-0.4-0.5-0.9-0.8-1.5-1.1
			c-0.6-0.3-1.2-0.5-1.9-0.7c-0.7-0.2-1.4-0.2-2.2-0.2c-0.8,0-1.6,0.1-2.5,0.3c-0.8,0.2-1.5,0.4-2.2,0.8c-0.7,0.3-1.3,0.8-1.8,1.2
			c-0.5,0.5-1,1-1.4,1.7c-0.3,0.5-0.6,1.1-0.8,1.7C563.9,543.9,563.7,544.7,563.5,545.5"/>
		<path class="st9" d="M586.2,560.5c0.2-3.3,0.4-7.2,0.5-11.6s0.2-7.8,0.2-9.9v-2.1h0.9h0.9l-0.2,4.4c0.4-0.9,0.9-1.7,1.5-2.4
			c0.4-0.5,1-1,1.6-1.4c0.7-0.4,1.4-0.7,2.1-0.8c0.8-0.2,1.7-0.3,2.5-0.3c0.7,0,1.3,0.1,2,0.2c0,0.5,0,1.1,0.1,1.6
			c-0.9-0.2-1.8-0.4-2.7-0.4c-1.3,0-2.6,0.4-3.7,1.2c-0.6,0.5-1.1,1-1.5,1.6c-0.5,0.7-0.9,1.4-1.1,2.2c-0.3,1.1-0.6,2.2-0.6,3.3
			c-0.2,2-0.3,4.3-0.3,6.8c-0.1,3.4-0.1,6-0.1,7.7h-0.9H586.2"/>
		<path class="st9" d="M624.3,536.3c1.4,0,2.8,0.2,4.2,0.6c1.3,0.4,2.6,1.1,3.6,2.1c1.1,1.1,1.9,2.4,2.4,3.8c0.6,1.6,0.8,3.3,0.8,5
			c0,1.9-0.3,3.7-0.9,5.5c-0.5,1.6-1.3,3.1-2.5,4.4c-1,1.1-2.3,2-3.7,2.5c-2.5,0.8-5.3,0.9-7.9,0.3c-1.1-0.3-2.1-0.7-3-1.3
			c-1-0.6-1.8-1.4-2.5-2.4c-0.7-1-1.3-2.2-1.6-3.5c-0.4-1.3-0.6-2.7-0.5-4.1c0-2.4,0.5-4.7,1.4-6.9c0.8-2,2.3-3.6,4.2-4.6
			C620.2,536.8,622.3,536.3,624.3,536.3 M624.4,537.6c-1.8,0-3.6,0.5-5.2,1.4c-1.6,0.9-2.9,2.4-3.5,4.2c-0.8,1.9-1.1,4-1.1,6.1
			c0,1.5,0.2,3,0.6,4.4c0.4,1.3,1.1,2.5,2.1,3.5c0.9,0.9,1.9,1.6,3.1,2c1.1,0.4,2.3,0.6,3.5,0.5c1.3,0,2.7-0.2,3.9-0.7
			c1.3-0.5,2.4-1.3,3.2-2.3c0.9-1.1,1.6-2.5,2-3.9c0.4-1.6,0.7-3.3,0.7-4.9c0-1.5-0.2-3.1-0.6-4.5c-0.7-2.5-2.6-4.5-5.1-5.2
			C626.7,537.8,625.5,537.6,624.4,537.6"/>
		<path class="st9" d="M640.3,560.5l0.8-14.3l0.2-6.7c0-1.2,0-2.1,0-2.6h0.9h0.9l-0.3,5.3c0.3-0.7,0.6-1.3,0.8-1.7
			c0.3-0.4,0.6-0.8,0.9-1.2c0.4-0.5,0.9-0.9,1.4-1.2c0.6-0.4,1.3-0.8,2-1c0.8-0.3,1.5-0.4,2.3-0.6c2.1-0.3,4.2-0.2,6.2,0.3
			c1.1,0.2,2.2,0.8,3.1,1.5c0.8,0.7,1.3,1.5,1.7,2.5c0.3,1,0.5,2,0.5,3c0,0.5,0,1.2-0.1,2.2l-0.5,10.7l-0.1,3.8h-0.9
			c-0.3,0-0.6,0-0.9,0c0.2-2,0.3-3.8,0.4-5.6l0.3-6c0.1-2.2,0.2-3.8,0.2-4.8c0-0.9-0.1-1.9-0.5-2.8c-0.3-0.8-0.8-1.5-1.5-2
			c-0.8-0.6-1.7-1-2.6-1.2c-1-0.2-2-0.4-3.1-0.4c-1.3,0-2.7,0.2-3.9,0.6c-1,0.4-2,1-2.8,1.7c-0.9,0.8-1.5,1.8-2,2.9
			c-0.5,1.1-0.8,2.3-0.9,3.5c-0.2,1.3-0.3,3.5-0.5,6.4s-0.2,5.5-0.2,7.6h-0.9L640.3,560.5"/>
		<path class="st9" d="M685.5,558.2c-0.1,0.6-0.2,1.2-0.3,1.8c-1.1,0.3-2.3,0.6-3.5,0.8c-1,0.1-2.1,0.2-3.2,0.2
			c-1.7,0-3.4-0.2-5-0.8c-1.4-0.5-2.7-1.4-3.7-2.5c-1-1.2-1.8-2.5-2.2-4c-0.4-1.5-0.7-3.1-0.7-4.7c0-2.1,0.4-4.2,1.1-6.1
			c1.6-4.1,5.7-6.8,10.1-6.6c1.6,0,3.3,0.3,4.8,1c1.4,0.7,2.6,1.8,3.3,3.2c0.8,1.6,1.2,3.4,1.2,5.2c0,0.4,0,0.7,0,1.1l-18.6,0.1
			c-0.1,1-0.1,1.8-0.1,2.3c0,1.5,0.2,2.9,0.7,4.3c0.4,1.3,1.1,2.5,2,3.5c0.9,0.9,2,1.7,3.2,2.1c1.3,0.5,2.6,0.7,3.9,0.7
			C680.9,559.6,683.3,559.1,685.5,558.2 M669.1,545.5h16.7c0-0.8-0.1-1.7-0.2-2.5c-0.1-0.6-0.3-1.2-0.6-1.8
			c-0.3-0.6-0.6-1.1-1.1-1.6c-0.4-0.5-0.9-0.8-1.5-1.1c-0.6-0.3-1.2-0.5-1.9-0.7c-0.7-0.2-1.4-0.2-2.2-0.2c-0.8,0-1.6,0.1-2.4,0.3
			c-0.8,0.2-1.5,0.4-2.2,0.8c-0.7,0.3-1.3,0.8-1.8,1.2c-0.5,0.5-1,1-1.4,1.7c-0.3,0.5-0.6,1.1-0.8,1.7
			C669.5,544,669.3,544.8,669.1,545.5"/>
		<path class="st9" d="M703.9,560.5c0.2-3.3,0.4-7.2,0.5-11.6c0.2-4.5,0.3-7.8,0.3-9.9v-2.1h0.9h0.9l-0.2,4.4
			c0.4-0.9,0.9-1.7,1.5-2.4c0.5-0.5,1-1,1.6-1.4c0.7-0.4,1.4-0.7,2.1-0.8c0.8-0.2,1.7-0.3,2.5-0.3c0.7,0,1.3,0.1,2,0.2
			c0,0.5,0,1.1,0.1,1.6c-0.9-0.2-1.8-0.4-2.7-0.4c-0.7,0-1.4,0.1-2,0.3c-0.6,0.2-1.2,0.5-1.7,0.9c-0.6,0.5-1.1,1-1.5,1.6
			c-0.5,0.7-0.9,1.4-1.1,2.2c-0.3,1.1-0.6,2.2-0.6,3.3c-0.2,2-0.3,4.3-0.3,6.8c-0.1,3.4-0.1,6-0.1,7.7h-1H703.9"/>
		<path class="st9" d="M730,536.3c1.4,0,2.8,0.2,4.2,0.6c1.3,0.4,2.6,1.1,3.6,2.1c1.1,1.1,1.9,2.4,2.4,3.8c0.6,1.6,0.8,3.3,0.8,5
			c0,1.9-0.3,3.7-0.9,5.5c-0.5,1.6-1.3,3.1-2.5,4.4c-1,1.1-2.3,2-3.7,2.5c-2.5,0.8-5.3,0.9-7.9,0.3c-1.1-0.3-2.1-0.7-3-1.3
			c-1-0.6-1.8-1.4-2.5-2.4c-0.7-1-1.3-2.2-1.6-3.5c-0.4-1.3-0.6-2.7-0.5-4.1c0-2.4,0.5-4.7,1.4-6.9c0.8-2,2.3-3.6,4.2-4.6
			C725.8,536.8,727.9,536.3,730,536.3 M729.9,537.6c-1.8,0-3.6,0.5-5.2,1.4c-1.6,0.9-2.9,2.4-3.5,4.2c-0.8,1.9-1.1,4-1.1,6.1
			c0,1.5,0.2,3,0.6,4.4c0.4,1.3,1.1,2.5,2.1,3.5c0.9,0.9,1.9,1.6,3.1,2c2.4,0.8,5,0.7,7.4-0.1c1.3-0.5,2.4-1.3,3.2-2.3
			c1-1.1,1.6-2.5,2-3.9c0.4-1.6,0.7-3.3,0.7-4.9c0-1.5-0.2-3.1-0.6-4.5c-0.7-2.5-2.6-4.5-5.1-5.2
			C732.3,537.8,731.1,537.6,729.9,537.6"/>
		<path class="st9" d="M757,536.3c1.4,0,2.8,0.2,4.2,0.6c1.3,0.4,2.6,1.1,3.6,2.1c1.1,1.1,1.9,2.4,2.4,3.8c0.6,1.6,0.8,3.3,0.8,5
			c0,1.9-0.3,3.7-0.9,5.5c-0.5,1.6-1.3,3.1-2.5,4.4c-1,1.1-2.3,2-3.7,2.5c-2.5,0.8-5.3,0.9-7.9,0.3c-1.1-0.3-2.1-0.7-3-1.3
			c-1-0.6-1.8-1.4-2.5-2.4c-0.7-1-1.3-2.2-1.6-3.5c-0.4-1.3-0.6-2.7-0.5-4.1c0-2.4,0.5-4.7,1.4-6.9c0.8-2,2.3-3.6,4.2-4.6
			C752.8,536.8,754.9,536.3,757,536.3 M756.9,537.6c-1.8,0-3.6,0.5-5.2,1.4c-1.6,0.9-2.9,2.4-3.5,4.2c-0.8,1.9-1.1,4-1.1,6.1
			c0,1.5,0.2,3,0.6,4.4c0.4,1.3,1.1,2.5,2.1,3.5c0.9,0.9,1.9,1.6,3.1,2c2.4,0.8,5,0.7,7.4-0.1c1.3-0.5,2.4-1.3,3.2-2.3
			c1-1.1,1.6-2.5,2-3.9c0.4-1.6,0.7-3.3,0.7-4.9c0-1.5-0.2-3.1-0.6-4.5c-0.7-2.5-2.6-4.5-5.1-5.2
			C759.3,537.8,758.1,537.6,756.9,537.6"/>
		<path class="st9" d="M773.5,560.5l0.4-8.3l0.4-14.1h-3c0.1-0.4,0.1-0.9,0.1-1.3h2.9c0.1-2.3,0.1-3.6,0.2-4c0.1-0.7,0.2-1.4,0.4-2
			c0.2-0.4,0.4-0.9,0.7-1.2c0.3-0.4,0.7-0.7,1.2-1c0.5-0.3,1.1-0.5,1.7-0.7c0.8-0.1,1.5-0.2,2.3-0.1c0.5,0,1,0,1.5,0.1
			c0.5,0.1,1.2,0.2,2.2,0.4c0,0.5,0.1,1.1,0.2,1.6c-1.3-0.5-2.6-0.7-4-0.8c-0.6,0-1.2,0.1-1.8,0.3c-0.5,0.1-0.9,0.4-1.3,0.7
			c-0.3,0.3-0.6,0.6-0.8,1c-0.2,0.4-0.4,0.8-0.5,1.3c-0.1,0.7-0.2,1.4-0.2,2.1c0,0.2,0,1-0.1,2.5h7c-0.1,0.4-0.1,0.9-0.1,1.3H776
			l-0.5,22.4h-1L773.5,560.5"/>
	</g>
</g>
</svg>
