<?xml version="1.0" encoding="utf-8"?>
<!-- Generator: Adobe Illustrator 16.0.0, SVG Export Plug-In . SVG Version: 6.00 Build 0)  -->
<!DOCTYPE svg PUBLIC "-//W3C//DTD SVG 1.1//EN" "http://www.w3.org/Graphics/SVG/1.1/DTD/svg11.dtd">
<svg version="1.1" id="Layer_1" xmlns="http://www.w3.org/2000/svg" xmlns:xlink="http://www.w3.org/1999/xlink" x="0px" y="0px"
	 width="319.769px" height="143.525px" viewBox="0 0 319.769 143.525" enable-background="new 0 0 319.769 143.525"
	 xml:space="preserve">
<g>
	<path fill="#1B75BB" d="M23.646,85.272H0V15.437h18.297c5.765,0,10.265,0.776,13.496,2.324c3.232,1.549,5.699,3.684,7.398,6.398
		c1.701,2.717,2.55,5.858,2.55,9.423c0,6.866-3.549,11.782-10.647,14.748c5.099,0.966,9.155,3.066,12.172,6.298
		c3.016,3.233,4.524,7.099,4.524,11.597c0,3.567-0.917,6.747-2.75,9.547s-4.522,5.083-8.072,6.849
		C33.418,84.388,28.978,85.272,23.646,85.272 M18.597,24.334H9.998V45.33h6.649c5.332,0,9.122-1.016,11.372-3.049
		c2.25-2.033,3.374-4.664,3.374-7.899C31.394,27.685,27.127,24.334,18.597,24.334 M19.347,54.227H9.998v22.146h9.849
		c5.465,0,9.172-0.424,11.122-1.273c1.949-0.852,3.516-2.176,4.699-3.975c1.183-1.8,1.774-3.731,1.774-5.799
		c0-2.133-0.625-4.083-1.875-5.847c-1.25-1.767-3.024-3.083-5.323-3.95C27.944,54.661,24.312,54.227,19.347,54.227"/>
	<path fill="#1B75BB" d="M152.055,85.272V15.438h17.495c7.065,0,12.674,1.748,16.822,5.248c4.148,3.498,6.223,8.231,6.223,14.197
		c0,4.066-1.016,7.581-3.049,10.547c-2.033,2.966-4.949,5.182-8.748,6.65c2.232,1.465,4.416,3.465,6.549,5.997
		c2.131,2.534,5.131,6.949,8.998,13.247c2.432,3.966,4.381,6.949,5.85,8.948l3.697,5h-11.896l-3.045-4.603
		c-0.102-0.166-0.301-0.449-0.6-0.851l-1.947-2.752l-3.096-5.099l-3.344-5.453c-2.064-2.869-3.955-5.151-5.674-6.847
		c-1.718-1.696-3.271-2.92-4.654-3.669c-1.385-0.746-3.711-1.122-6.98-1.122h-2.604v30.394H152.055z M165.052,23.935h-3v22.044h3.8
		c5.065,0,8.538-0.432,10.423-1.299c1.882-0.867,3.35-2.174,4.398-3.925c1.049-1.748,1.574-3.739,1.574-5.974
		c0-2.199-0.582-4.188-1.75-5.972c-1.166-1.783-2.807-3.041-4.924-3.774C173.458,24.303,169.951,23.935,165.052,23.935"/>
	<polygon fill="#1B75BB" points="310.835,16.413 319.769,16.413 319.769,84.109 311.681,84.109 267.765,31.972 267.765,84.109 
		258.925,84.109 258.925,16.413 266.544,16.413 310.835,68.992 	"/>
	<polygon fill="#1B75BB" points="210.489,15.541 250.079,15.541 250.079,24.44 220.487,24.44 220.487,45.733 249.081,45.733 
		249.081,54.682 220.487,54.682 220.487,76.376 251.03,76.376 251.03,85.275 210.489,85.275 	"/>
	<path fill="#72BE44" d="M42.076,141.957l-5.303-9.945h-23.56l-5.122,9.945H0.139l21.691-40.131h6.267l22.055,40.131H42.076z
		 M24.783,109.658l-8.737,16.871h17.777L24.783,109.658z"/>
	<polygon fill="#72BE44" points="104.615,141.957 97.987,141.957 84.731,111.287 71.292,141.957 64.604,141.957 47.311,101.828 
		55.444,101.828 68.222,133.097 81.777,101.828 87.804,101.828 101.844,133.097 114.618,101.828 122.572,101.828 	"/>
	<path fill="#72BE44" d="M161.536,141.957l-5.304-9.945h-23.559l-5.122,9.945h-7.955l21.692-40.131h6.268l22.054,40.131H161.536z
		 M144.242,109.658l-8.739,16.871h17.777L144.242,109.658z"/>
	<path fill="#72BE44" d="M210.692,141.957c-2.047,0-2.951-2.834-3.191-6.447l-0.242-4.1c-0.24-3.977-1.869-5.662-9.4-5.662h-14.222
		v16.209h-7.531v-40.131h21.874c12.051,0,17.475,4.818,17.475,11.027c0,4.398-2.23,8.557-10.064,10
		c7.834,0.604,9.521,4.158,9.582,8.857l0.061,3.316c0.059,2.771,0.541,4.762,2.471,6.75v0.18H210.692z M207.86,113.816
		c0-2.893-2.348-5.725-8.797-5.725h-15.427v12.051h16.091c5.543,0,8.133-2.65,8.133-5.842V113.816z"/>
	<path fill="#72BE44" d="M246.593,141.957h-20.547v-40.129h20.547c14.221,0,23.26,8.615,23.26,19.461v1.328
		C269.853,133.279,260.813,141.957,246.593,141.957 M262.319,121.41c0-7.777-6.086-13.318-15.906-13.318h-12.834v27.719h12.834
		c9.82,0,15.906-5.664,15.906-13.438V121.41z"/>
	<path fill="#72BE44" d="M298.161,143.525c-8.137,0-15.668-2.23-21.875-5.186l2.771-5.961c6.326,3.131,13.016,4.998,19.463,4.998
		c8.678,0,12.533-2.832,12.533-5.904c0-9.582-33.623-3.195-33.623-17.896c0-7.473,8.074-13.197,20.789-13.197
		c7.893,0,15.246,2.773,19.764,5.725l-4.096,5.062c-3.738-2.41-9.883-4.643-15.91-4.643c-7.832,0-13.014,2.652-13.014,6.088
		c0,8.736,33.682,2.893,33.682,18.074C318.646,138.521,310.091,143.525,298.161,143.525"/>
	<path fill="#1B75BB" d="M97.53,0C72.191,0,51.65,20.541,51.65,45.88s20.541,45.879,45.88,45.879
		c25.338,0,45.88-20.541,45.88-45.879S122.868,0,97.53,0 M97.579,86.921c-22.658,0-41.026-18.367-41.026-41.025
		S74.921,4.87,97.579,4.87s41.025,18.368,41.025,41.026S120.237,86.921,97.579,86.921"/>
	<path fill="#1B75BB" d="M96.555,8.179c-0.722-0.144-3.928-0.249-2.329,0.931c0.874,0.645,1.56,0.534,2.655,0.154
		C98.749,8.619,96.863,7.33,96.555,8.179C96.476,8.163,96.569,8.14,96.555,8.179"/>
	<path fill="#1B75BB" d="M95.503,9.854c-0.467,0-0.931-0.14-1.443-0.519c-0.177-0.13-0.714-0.526-0.513-0.982
		c0.306-0.689,2.22-0.544,2.856-0.475c0.151-0.193,0.39-0.287,0.668-0.254c0.396,0.048,0.854,0.38,0.901,0.831
		c0.028,0.262-0.064,0.751-1,1.074C96.443,9.712,95.972,9.854,95.503,9.854 M94.062,8.58c0.015,0.004,0.068,0.11,0.331,0.304
		c0.751,0.553,1.321,0.487,2.396,0.115c0.403-0.139,0.643-0.325,0.625-0.485c-0.015-0.144-0.219-0.309-0.41-0.333
		c-0.146-0.015-0.17,0.052-0.186,0.093L96.736,8.5l-0.001-0.001v0.002L96.483,8.45C95.808,8.32,94.266,8.345,94.062,8.58"/>
	<path fill="#1B75BB" d="M99.449,16.935c0.238-0.115,1.608,1.177,2.062-0.72c0.37-1.547-1.052-1.007-1.901-0.284
		C100.204,16.263,100.112,16.616,99.449,16.935"/>
	<path fill="#1B75BB" d="M100.576,17.54c-0.338,0-0.656-0.142-0.893-0.247c-0.076-0.034-0.179-0.08-0.212-0.086
		c0.001,0,0.043,0.008,0.099-0.019l-0.243-0.506c0.367-0.176,0.397-0.295,0.397-0.296c0,0-0.021-0.082-0.252-0.211l-0.353-0.197
		l0.308-0.262c0.495-0.419,1.488-1.032,2.081-0.668c0.33,0.203,0.422,0.617,0.275,1.232c-0.145,0.601-0.388,0.978-0.744,1.155
		C100.886,17.511,100.729,17.54,100.576,17.54 M100.076,16.851c0.235,0.098,0.51,0.182,0.715,0.081
		c0.244-0.121,0.378-0.492,0.446-0.782c0.095-0.392,0.048-0.581-0.022-0.624c-0.159-0.098-0.646,0.055-1.14,0.4
		c0.146,0.146,0.216,0.306,0.211,0.478C100.28,16.565,100.212,16.713,100.076,16.851"/>
	<path fill="#1B75BB" d="M104.84,16.548c-1.578-0.547-1.877-2.461-1.852-3.476c-1.976,0.889-0.33,3.246-0.643,4.558
		c-0.295,0.18-0.59,0.36-0.885,0.54C102.723,18.465,105.228,16.589,104.84,16.548"/>
	<path fill="#1B75BB" d="M101.75,18.481c-0.123,0-0.242-0.012-0.354-0.037l-0.666-0.156l1.361-0.833
		c0.053-0.378-0.054-0.87-0.166-1.389c-0.247-1.147-0.556-2.574,0.948-3.251l0.407-0.183l-0.012,0.446
		c-0.007,0.266-0.02,2.595,1.633,3.194l0.136,0.015l0.102,0.18c0.077,0.196-0.07,0.367-0.119,0.424
		C104.644,17.328,102.96,18.481,101.75,18.481 M102.721,13.559c-0.599,0.488-0.489,1.262-0.246,2.39
		c0.137,0.634,0.266,1.233,0.144,1.746l-0.011,0.049c0.718-0.263,1.479-0.757,1.83-1.059
		C103.078,16.017,102.779,14.423,102.721,13.559"/>
	<path fill="#1B75BB" d="M115.015,9.81c-1.852,0.826-3,1.036-4.425-1.082c0.938,0.419,1.499-1.009,2.489-0.829
		c-0.935-4.345-7.735-1.307-10.139,0.738c-0.941,0.8-2.985,2.513-3.293,3.413c-0.888,2.59,0.982,2.378,2.333,1.236
		c-0.064,1.022,0.422,1.859,0.644,2.859c1.907-0.755,2.904-8.264,4.989-5.64c-3.791,1.581,0.851,2.597,2.172,2.704
		c-1.438,0.07-2.328,0.648-2.092,2.086c-0.62-0.346-5.737,3.782-6.196-0.154c-0.641,2.631-4.977,4.353-6.839,5.098
		c1.063,0.337,1.811,1.264,1.288,2.395c-0.656,1.416-2.618,0.007-3.683,1.043c-1.503,1.465-0.124,3.479,1.55,3.515
		c2.85,0.061,2.659-2.961,5.028-3.554c2.175-0.543,5.288,1.188,5.553,3.245c0.591-0.509,0.261-0.661,0.321-1.236
		c0.608-0.015,0.433,0.307,0.806,0c-1.439-0.952-5.067-4.642-1.61-2.742c2.1,1.153,2.342,3.849,4.184,4.751
		c-0.957-2.112,0.842-2.232,2.575-3.013c-0.832-1.279,0.332-2.716,2.011-2.395c-0.187,0.154-0.375,0.309-0.562,0.463
		c0.873,0.053,0.953,0.132,1.77-0.231c0.049-0.807-0.637-0.705,1.288-1.005c-1.582,1.793,0.793,2.102,1.608,3.554
		c-2.093,0.595-3.851-1.202-5.793,0.309c-2.336,1.818-0.368,1.84,0.704,2.434c0.122,0.067,2.395,0.14,2.434,0.193
		c0.397,0.533-0.305,2.842-0.865,3.264c-1.566,1.178-4.61-0.804-5.812-0.869c-1.185-0.065-0.864,0.968-2.454,0.836
		c-1.505-0.125-3.047-1.389-3.903-2.15c-1.09-0.968,0.965-1.081-1.086-1.912c-1.02-0.414-2.56,0.265-3.42,0.386
		c-2.187,0.31-2.995,0.451-4.224,1.488c-1.169,0.985-1.779,2.379-2.737,3.537c-1.036,1.252-2.917,2.301-3.419,3.917
		c-0.255,0.823-0.282,4.92-0.161,5.833c0.152,1.139,0.979,3.063,1.819,3.953c3.401,3.605,7.103-0.625,10.613,1.571
		c1.916,1.198,0.343,1.26,0.985,3.558c0.423,1.513,2.081,2.696,2.399,4.361c0.394,2.057-0.852,3.796-0.73,6.025
		c0.083,1.517,1.25,4.759,1.73,6.142c2.096,6.028,7.668,3.477,9.777-1.854c0.395-1,0.85-2.73,1.565-3.701
		c0.526-0.713,2.231-0.92,2.739-1.784c1.003-1.714-0.208-5.503-0.564-7.185c1.44-1.851,8.077-6.403,6.76-9.811
		c-3.467,1.465-5.32-0.626-6.841-3.554c-1.104-2.127-3.3-5.242-3.621-7.648c-0.129-0.014,0.791,0.764,0.806,0.773
		c0.054-0.232,0.107-0.464,0.162-0.696c0.395,2.645,3.01,4.492,4.022,6.799c1.545,3.522,2.5,5.145,6.438,2.24
		c1.997-1.474,3.943-3.603,1.347-5.639c-0.933-0.733-5.663-0.526-4.646-3.863c2.417,2.156,3.776,3.205,6.899,3.901
		c1.153,0.257,2.784-0.071,3.809,0.445c1.56,0.786-4.269,1.614-2.104,1.071c1.073,2.835,2.867,7.138,6.064,8.914
		c2.798,1.555,3.128-13.127-1.283-20.833C131.429,20.653,122.19,8.735,115.015,9.81"/>
	<path fill="#1B75BB" d="M106.689,71.673h-0.078c-1.775-0.038-3.2-1.343-4.012-3.677l-0.111-0.322
		c-0.543-1.555-1.555-4.448-1.633-5.896c-0.059-1.079,0.187-2.033,0.423-2.955c0.263-1.025,0.511-1.993,0.312-3.032
		c-0.158-0.828-0.696-1.56-1.216-2.267c-0.475-0.648-0.967-1.318-1.178-2.072c-0.288-1.028-0.159-1.642-0.066-2.09
		c0.112-0.533,0.149-0.713-0.799-1.306c-1.487-0.931-3.009-0.634-4.617-0.32c-2.006,0.391-4.078,0.795-6.05-1.296
		c-0.897-0.95-1.739-2.953-1.895-4.108c-0.119-0.905-0.102-5.074,0.173-5.953c0.35-1.13,1.295-1.969,2.208-2.782
		c0.471-0.418,0.916-0.813,1.262-1.231c0.353-0.427,0.666-0.9,0.97-1.357c0.513-0.776,1.045-1.578,1.802-2.216
		c1.266-1.067,2.11-1.232,4.366-1.551c0.228-0.032,0.521-0.11,0.833-0.193c0.853-0.226,1.914-0.507,2.731-0.175
		c0.679,0.275,0.997,0.5,1.098,0.778c0.091,0.248-0.016,0.452-0.095,0.601c-0.107,0.204-0.156,0.298,0.165,0.582
		c0.543,0.483,2.195,1.952,3.738,2.081c0.737,0.056,0.969-0.143,1.233-0.38c0.259-0.232,0.548-0.49,1.213-0.457
		c0.427,0.023,1.012,0.244,1.69,0.501c1.333,0.504,2.995,1.132,3.939,0.424c0.447-0.337,1.007-2.251,0.849-2.786
		c-0.199-0.019-0.618-0.042-0.94-0.06c-1.218-0.069-1.344-0.086-1.444-0.141c-0.208-0.115-0.463-0.211-0.71-0.304
		c-0.564-0.213-1.148-0.432-1.226-0.94c-0.068-0.45,0.3-0.961,1.195-1.657c1.221-0.951,2.381-0.701,3.504-0.461
		c0.674,0.146,1.317,0.286,1.993,0.187c-0.243-0.294-0.558-0.541-0.862-0.782c-0.531-0.42-1.031-0.816-1.085-1.414
		c-0.023-0.251,0.039-0.512,0.188-0.789c-0.199,0.034-0.354,0.064-0.447,0.09c0.03,0.12,0.074,0.299,0.059,0.549l-0.01,0.17
		l-0.156,0.069c-0.732,0.326-0.932,0.328-1.567,0.279l-1.045-0.067l0.535-0.441c-0.444,0.066-0.826,0.283-1.052,0.62
		c-0.276,0.411-0.265,0.908,0.031,1.363l0.179,0.274l-0.299,0.135c-0.325,0.146-0.652,0.27-0.964,0.388
		c-0.782,0.296-1.458,0.551-1.65,1.017c-0.122,0.295-0.062,0.7,0.18,1.236l0.323,0.711l-0.702-0.343
		c-0.945-0.463-1.502-1.361-2.027-2.245l-0.245,0.201c-0.228,0.187-0.398,0.263-0.649,0.127c-0.016-0.008-0.031-0.017-0.05-0.025
		c0.004,0.029,0.008,0.058,0.012,0.086c0.05,0.349,0.048,0.628-0.435,1.044l-0.396,0.341l-0.065-0.518
		c-0.099-0.765-0.668-1.554-1.563-2.165c-1.143-0.78-2.572-1.111-3.643-0.843c-0.967,0.242-1.467,0.934-1.996,1.667
		c-0.686,0.949-1.413,1.928-3.107,1.895c-0.999-0.021-1.951-0.682-2.315-1.607c-0.33-0.838-0.12-1.71,0.578-2.39
		c0.585-0.569,1.37-0.513,2.062-0.467c0.823,0.057,1.304,0.062,1.561-0.492c0.177-0.384,0.191-0.748,0.046-1.081
		c-0.185-0.415-0.607-0.753-1.163-0.929l-0.748-0.236l0.728-0.292c1.839-0.736,6.067-2.428,6.671-4.904l0.27-1.103
		c-0.677,0.391-1.417,0.564-1.913,0.225c-0.357-0.244-0.681-0.83-0.199-2.237c0.296-0.868,1.842-2.233,3.269-3.444l0.107-0.092
		c1.639-1.394,6.011-3.73,8.708-2.818c1.007,0.342,1.641,1.093,1.887,2.234l0.087,0.41l-0.412-0.075
		c-0.347-0.064-0.646,0.156-0.988,0.412c-0.249,0.184-0.533,0.396-0.861,0.471c1.141,1.42,2.103,1.22,3.724,0.496l0.072-0.021
		c7.17-1.079,16.37,10.406,19.462,15.808c3.79,6.617,4.24,18.939,2.177,21.03c-0.367,0.372-0.817,0.438-1.272,0.187
		c-3.328-1.849-5.199-6.462-6.066-8.736c-0.184,0.023-0.315,0.032-0.352,0.029l-0.234-0.026l-0.044-0.245
		c-0.018-0.273,0.238-0.337,0.702-0.453l0.242-0.06l0.053,0.14c0.662-0.128,1.579-0.374,1.825-0.584
		c-0.019-0.012-0.043-0.027-0.076-0.044c-0.548-0.275-1.338-0.286-2.102-0.296c-0.562-0.007-1.141-0.014-1.641-0.126
		c-0.851-0.19-1.575-0.406-2.23-0.665c0.08,0.041,0.151,0.084,0.211,0.132c0.913,0.716,1.37,1.511,1.357,2.362
		c-0.019,1.173-0.904,2.392-2.71,3.724c-1.753,1.293-2.981,1.751-3.98,1.482c-1.26-0.336-1.989-1.801-2.881-3.835
		c-0.399-0.909-1.053-1.74-1.744-2.62c-0.779-0.99-1.579-2.006-2.016-3.17l-0.311-0.185c-0.004-0.001-0.078-0.052-0.183-0.134
		c0.447,1.524,1.448,3.243,2.349,4.79c0.386,0.662,0.751,1.288,1.042,1.849c1.364,2.625,3.09,4.858,6.481,3.425l0.266-0.113
		l0.106,0.27c1.054,2.727-2.425,5.928-4.962,8.266c-0.742,0.682-1.389,1.278-1.757,1.718c0.056,0.249,0.125,0.538,0.203,0.854
		c0.477,1.941,1.194,4.873,0.298,6.401c-0.315,0.541-0.973,0.834-1.608,1.117c-0.464,0.207-0.944,0.421-1.146,0.692
		c-0.499,0.675-0.883,1.792-1.19,2.69c-0.12,0.349-0.233,0.675-0.34,0.947C111.612,69.417,109.067,71.673,106.689,71.673
		 M96.047,46.87c0.86,0,1.724,0.175,2.582,0.711c1.22,0.764,1.197,1.197,1.051,1.897c-0.087,0.413-0.194,0.928,0.057,1.824
		c0.183,0.655,0.624,1.255,1.091,1.891c0.557,0.758,1.132,1.541,1.314,2.493c0.223,1.163-0.054,2.238-0.319,3.277
		c-0.227,0.882-0.46,1.793-0.406,2.785c0.074,1.369,1.105,4.322,1.602,5.741l0.113,0.324c0.739,2.126,1.946,3.266,3.492,3.299
		c0.021,0.001,0.044,0.001,0.064,0.001c2.119,0,4.505-2.159,5.693-5.165c0.105-0.266,0.214-0.583,0.331-0.924
		c0.338-0.982,0.72-2.095,1.27-2.84c0.289-0.391,0.813-0.624,1.369-0.872c0.555-0.247,1.128-0.502,1.354-0.888
		c0.781-1.331,0.095-4.131-0.36-5.983c-0.092-0.38-0.175-0.72-0.233-1.001l-0.027-0.128l0.079-0.103
		c0.378-0.485,1.084-1.135,1.9-1.887c2.198-2.024,5.476-5.042,4.903-7.379c-3.63,1.371-5.532-1.138-6.911-3.797
		c-0.286-0.549-0.646-1.169-1.028-1.825c-1.11-1.905-2.367-4.063-2.62-5.892c-0.015-0.052-0.017-0.101-0.003-0.144l0.07-0.215
		l0.457,0.042l0.023,0.178c0.075,0.078,0.222,0.212,0.364,0.337l0.321-1.392c-0.068,0.094-0.139,0.168-0.205,0.218
		c-1.191,0.895-3.014,0.206-4.477-0.347c-0.608-0.231-1.181-0.448-1.521-0.466c-0.422-0.016-0.58,0.112-0.809,0.316
		c-0.301,0.268-0.681,0.602-1.653,0.52c-1.729-0.144-3.487-1.707-4.065-2.22c-0.65-0.577-0.414-1.023-0.288-1.264
		c0.024-0.048,0.064-0.123,0.063-0.148c-0.001-0.003-0.052-0.154-0.78-0.449c-0.646-0.264-1.606-0.007-2.377,0.197
		c-0.329,0.088-0.64,0.17-0.898,0.206c-2.234,0.317-2.929,0.451-4.083,1.424c-0.696,0.587-1.182,1.321-1.697,2.097
		c-0.311,0.47-0.633,0.956-1.006,1.406c-0.372,0.451-0.854,0.879-1.32,1.293c-0.855,0.761-1.74,1.547-2.045,2.529
		c-0.228,0.733-0.275,4.777-0.15,5.711c0.14,1.049,0.932,2.937,1.745,3.798c1.761,1.867,3.594,1.509,5.533,1.13
		C94.409,47.028,95.226,46.87,96.047,46.87 M129.84,37.73c0.862,2.251,2.669,6.613,5.773,8.336c0.229,0.13,0.408,0.103,0.599-0.091
		c1.725-1.747,1.564-13.673-2.262-20.356c-2.58-4.508-11.832-16.541-18.855-15.538c-1.775,0.788-3.157,1.149-4.738-1.196
		l-0.547-0.813l0.895,0.4c0.325,0.142,0.58-0.024,1-0.337c0.294-0.218,0.617-0.458,1.009-0.519c-0.244-0.751-0.713-1.237-1.428-1.48
		c-2.37-0.803-6.509,1.307-8.163,2.714l-0.109,0.093c-0.846,0.719-2.829,2.404-3.101,3.198c-0.282,0.825-0.287,1.405-0.015,1.592
		c0.35,0.238,1.183-0.053,1.901-0.662l0.503-0.425l-0.042,0.657c-0.038,0.618,0.146,1.179,0.342,1.771
		c0.068,0.205,0.139,0.414,0.199,0.63c0.573-0.496,1.114-1.743,1.599-2.861c0.707-1.633,1.318-3.044,2.233-3.165
		c0.414-0.052,0.813,0.166,1.199,0.652l0.23,0.291l-0.342,0.143c-0.993,0.414-1.313,0.762-1.285,0.951
		c0.084,0.527,2.101,1.111,3.372,1.214l-0.009,0.56c-0.793,0.038-1.337,0.235-1.619,0.583c-0.225,0.279-0.294,0.664-0.21,1.177
		l0.094,0.574l-0.508-0.284c-0.107,0.004-0.679,0.282-1.138,0.504c-1.302,0.634-3.087,1.5-4.234,0.873
		c-0.33-0.181-0.58-0.47-0.747-0.865c-1.12,2.043-4.222,3.448-6.064,4.203c0.402,0.242,0.709,0.573,0.878,0.954
		c0.212,0.481,0.195,1.014-0.05,1.543c-0.433,0.933-1.323,0.87-2.108,0.816c-0.632-0.043-1.227-0.085-1.632,0.31
		c-0.722,0.705-0.59,1.419-0.447,1.782c0.284,0.72,1.027,1.235,1.807,1.252c1.41,0.016,1.984-0.754,2.64-1.662
		c0.565-0.783,1.149-1.592,2.315-1.883c1.235-0.31,2.807,0.044,4.095,0.923c0.737,0.504,1.285,1.127,1.579,1.781
		c-0.018-0.121-0.031-0.268-0.012-0.453l0.026-0.245l0.24-0.006c-1.043-0.862-2.818-2.502-2.465-3.087
		c0.205-0.341,0.68-0.241,1.809,0.379c1.137,0.625,1.742,1.643,2.327,2.628c0.371,0.626,0.729,1.228,1.202,1.669
		c-0.055-0.327-0.028-0.613,0.077-0.866c0.284-0.691,1.065-0.986,1.969-1.327c0.213-0.081,0.433-0.164,0.655-0.256
		c-0.256-0.569-0.211-1.183,0.131-1.693c0.465-0.692,1.379-1.02,2.326-0.841l0.588,0.112l-0.476,0.392
		c0.249,0.006,0.415-0.035,0.759-0.18c-0.009-0.085-0.024-0.155-0.042-0.219c-0.031-0.129-0.072-0.288,0.031-0.445
		c0.145-0.218,0.384-0.255,1.538-0.435l0.768-0.119l-0.514,0.582c-0.331,0.376-0.481,0.682-0.458,0.936
		c0.031,0.357,0.422,0.666,0.875,1.023c0.433,0.342,0.922,0.73,1.228,1.272l0.174,0.31l-0.342,0.098
		c-0.957,0.268-1.821,0.085-2.657-0.095c-1.088-0.234-2.026-0.435-3.042,0.355c-0.959,0.747-0.996,1.054-0.984,1.13
		c0.028,0.183,0.494,0.358,0.868,0.498c0.266,0.1,0.541,0.204,0.784,0.339c0.065,0.007,0.751,0.046,1.204,0.071
		c1.223,0.069,1.223,0.069,1.319,0.2c0.439,0.591-0.084,2.46-0.625,3.305l0.194,1.301c0.222,1.492,1.22,2.76,2.186,3.986
		c0.683,0.869,1.39,1.767,1.817,2.741c0.828,1.889,1.494,3.247,2.512,3.519c0.81,0.215,1.924-0.226,3.502-1.392
		c1.633-1.204,2.469-2.308,2.482-3.281c0.01-0.666-0.375-1.309-1.141-1.911c-0.208-0.163-0.746-0.292-1.315-0.43
		c-1.202-0.29-2.697-0.65-3.312-1.726c-0.315-0.551-0.354-1.228-0.116-2.01l0.129-0.419l0.327,0.292
		c2.468,2.204,3.771,3.168,6.773,3.836c0.443,0.099,0.97,0.106,1.524,0.113c0.829,0.011,1.686,0.022,2.349,0.356
		c0.455,0.23,0.449,0.515,0.404,0.664C131.897,37.239,130.711,37.567,129.84,37.73 M120.974,32.503
		c-0.067,0.439-0.012,0.811,0.169,1.127c0.495,0.866,1.86,1.195,2.956,1.46c0.386,0.092,0.727,0.174,1.003,0.271
		C123.632,34.726,122.493,33.843,120.974,32.503 M102.853,22.708c0.409,0.623,1.858,2.066,2.823,2.704l0.198,0.131
		c-0.542-0.911-1.105-1.847-2.098-2.393C103.312,22.896,103.026,22.771,102.853,22.708 M102.556,16.473
		c0.919,0.381,2.534-0.406,3.617-0.934c0.555-0.269,0.932-0.448,1.207-0.515c-0.032-0.528,0.089-0.965,0.364-1.304
		c0.155-0.193,0.358-0.351,0.609-0.474c-1.062-0.243-2.352-0.691-2.472-1.442c-0.078-0.495,0.333-0.952,1.256-1.394
		c-0.154-0.133-0.304-0.194-0.432-0.175c-0.601,0.079-1.233,1.542-1.792,2.832c-0.665,1.535-1.294,2.985-2.188,3.339L102.556,16.473
		z M101.634,13.888l0.144,1.221c0.073,0.64,0.274,1.059,0.612,1.278l-0.04-0.181c-0.072-0.328-0.178-0.646-0.279-0.954
		c-0.15-0.452-0.304-0.915-0.356-1.416C101.687,13.854,101.661,13.871,101.634,13.888"/>
	<path fill="#1B75BB" d="M107.137,23.016c0.114,0.412-0.375,0.489,0.241,0.695C107.689,23.048,107.256,23.443,107.137,23.016"/>
	<path fill="#1B75BB" d="M107.526,24.056l-0.237-0.079c-0.232-0.078-0.402-0.164-0.477-0.329c-0.071-0.161-0.01-0.302,0.027-0.387
		c0.031-0.074,0.045-0.107,0.027-0.169V23.09l0.54-0.15l0.001,0.001c0.007,0.028,0.015,0.036,0.015,0.036
		c0.108,0.039,0.25,0.088,0.315,0.244c0.071,0.169,0.012,0.358-0.105,0.609L107.526,24.056z"/>
	<path fill="#1B75BB" d="M103.033,18.689c0,0.017,0.014,0.022,0.032,0.02C103.047,18.684,103.033,18.672,103.033,18.689"/>
	<polygon fill="#1B75BB" points="102.961,18.997 102.759,18.825 102.753,18.487 103.142,18.352 103.598,18.96 	"/>
	<path fill="#1B75BB" d="M66.503,74.699c-0.054,0.553-0.434,0.793,0.161,1.158C66.61,75.471,66.557,75.084,66.503,74.699"/>
	<path fill="#1B75BB" d="M67.022,76.406l-0.506-0.31c-0.607-0.372-0.476-0.772-0.38-1.063c0.037-0.112,0.074-0.228,0.087-0.361
		l0.23-2.367L67.022,76.406z"/>
	<path fill="#1B75BB" d="M72.493,81.828c-0.554,0.049-0.795-0.678-1.046,0.541c0.59,0.033,1.18,0.059,1.77,0.078
		C73.054,82.164,72.812,81.958,72.493,81.828"/>
	<path fill="#1B75BB" d="M118.35,61.646c-0.272,1.308,0.258,2.446,1.671,2.134c0.963-0.213,1.479-2.837,1.793-3.6
		c0.714-1.739,1.742-2.945,0.479-4.56C121.362,57.998,118.91,58.96,118.35,61.646"/>
	<path fill="#1B75BB" d="M119.572,64.113c-0.524,0-0.862-0.209-1.066-0.411c-0.459-0.453-0.616-1.223-0.431-2.113v-0.001
		c0.326-1.558,1.254-2.561,2.151-3.532c0.725-0.783,1.407-1.522,1.806-2.538l0.179-0.458l0.303,0.388
		c1.136,1.45,0.567,2.655-0.033,3.932c-0.136,0.287-0.277,0.588-0.407,0.906c-0.07,0.172-0.151,0.442-0.247,0.757
		c-0.357,1.187-0.846,2.812-1.745,3.011C119.896,64.095,119.726,64.113,119.572,64.113 M118.625,61.703
		c-0.144,0.69-0.04,1.288,0.275,1.6c0.24,0.237,0.597,0.306,1.06,0.203c0.578-0.127,1.066-1.752,1.329-2.625
		c0.102-0.336,0.188-0.624,0.265-0.808c0.134-0.328,0.279-0.636,0.418-0.932c0.523-1.112,0.92-1.952,0.37-2.944
		c-0.444,0.88-1.084,1.57-1.703,2.24C119.754,59.394,118.918,60.297,118.625,61.703L118.625,61.703z"/>
	<path fill="#1B75BB" d="M108.671,55.61c-0.003,0.001-0.006,0.002-0.006,0.006C108.665,55.625,108.668,55.621,108.671,55.61"/>
	<polygon fill="#1B75BB" points="108.89,55.917 108.386,55.873 108.386,55.443 109.071,55.096 	"/>
	<path fill="#1B75BB" d="M63.372,33.723c0.236,0.101,2.791,3.37,2.59,1.251"/>
	<path fill="#1B75BB" d="M65.693,35.968c-0.528,0-1.237-0.708-2.088-1.617c-0.154-0.165-0.328-0.351-0.376-0.387l0.252-0.499
		c0.103,0.044,0.195,0.14,0.533,0.502c0.895,0.956,1.454,1.44,1.666,1.44h0.001c-0.008-0.016,0.028-0.121,0.001-0.407l0.56-0.053
		c0.018,0.196,0.074,0.792-0.333,0.975C65.841,35.953,65.769,35.968,65.693,35.968"/>
	<path fill="#1B75BB" d="M52.41,38.967c1.984-0.519,3.553,0.411,4.924,1.643c0.833,0.749,1.777,1.828,2.791,2.65
		c0.641,0.52,1.994,0.115,2.091,0.241c1.752,2.26-2.249,5.187-2.598,7.034c-0.528,2.791,1.804,5.438,3.658,7.58
		c1.209,1.396,0.946,2.657,1.624,4.371c0.624,1.578,2.763,3.67,3.072,5.395c0.33,1.841,0.512,4.462,0.955,6.394
		c1.023,4.469,2.15,6.555,7.252,9.615c0.777-1.989-2.261-2.307-2.36-4.155c-0.066-1.267,0.809-2.415-0.146-3.875
		c0.279,0.108,0.557,0.216,0.836,0.322c-0.034-0.407,0.067-1.163,0.084-1.606c1.944,0.395,3.024-0.959,1.338-2.328
		c2.766,0.031,2.362-3.444,3.136-5.18c0.383-0.857-0.119-1.159,0.627-1.967c0.548-0.593,2.058,0.399,2.51,0
		c1.333-1.179,0.898-2.753,1.276-4.176c0.668-2.522,3.226-4.865,1.65-7.226c-1.341-2.013-4.802-2.196-6.69-3.293
		c0.015-0.024-0.502,1.213-0.502,1.125c0-3.729-0.398-5.294-3.936-7.867c-1.88-1.368-5.879-2.745-7.773-1.127
		c-0.013-0.237,0.208-0.648,0.251-0.883c-1.556-0.002-2.399,0.569-3.345,1.606c-3.069-1.289-3.298-1.103-2.76-4.737
		c-4.487,1.052-1.691-1.93-1.505-3.694c-1.89-0.075-2.414,2.739-4.099,2.409c-2.394-0.47-0.416-6.372,0.92-7.307
		c0.892-0.624,3.628-0.897,4.517-0.884c3.654,0.057,2.64,1.948,4.211,4.345c0.427-0.75-0.385-3.561-0.029-4.063
		c0.639-0.905,1.116-0.877,2.007-1.647c1.551-1.34,2.821-2.471,4.411-3.814c2.262-1.909,11.504-1.941,10.285-4.175
		c-0.907-1.66-1.473-2.663-5.915-1.084c1.908-1.734,6.847-1.282,6.858-4.256c-0.308,0.08-0.613,0.161-0.92,0.241
		c0.421-0.409,0.316-0.616,1.004-0.964c-0.479-0.911-0.799-2.083-0.92-3.292c-0.396,0.462-0.834,0.681-1.172,1.205
		c0.299-1.269-0.07-2.415-1.464-2.73c-1.777-0.403-1.095,0.846-1.881,1.686c-0.464,0.495-3.714,4.968-4.6,4.958
		c-3.216-0.036-1.573-7.039-7.218-1.744C58.492,19.693,52.438,31.119,52.41,38.967"/>
	<path fill="#1B75BB" d="M76.32,84.302l-0.285-0.171c-5.096-3.058-6.313-5.127-7.381-9.794c-0.263-1.146-0.434-2.513-0.598-3.836
		c-0.115-0.934-0.225-1.815-0.36-2.571c-0.167-0.933-0.933-2.019-1.672-3.069c-0.569-0.809-1.108-1.573-1.385-2.272
		c-0.259-0.655-0.382-1.23-0.501-1.787c-0.191-0.9-0.357-1.677-1.073-2.504l-0.074-0.084c-1.869-2.159-4.195-4.844-3.649-7.732
		c0.136-0.712,0.732-1.526,1.366-2.389c1.103-1.503,2.241-3.055,1.348-4.337c-0.064,0.004-0.158,0.012-0.238,0.019
		c-0.504,0.048-1.348,0.127-1.869-0.297c-0.618-0.502-1.198-1.084-1.759-1.647c-0.363-0.365-0.713-0.715-1.043-1.012
		c-1.123-1.01-2.668-2.1-4.665-1.581l-0.354,0.092l0.001-0.365c0.029-8.215,6.511-19.796,12.546-25.457
		c1.647-1.544,2.832-2.189,3.718-2.031c0.865,0.154,1.292,1.005,1.703,1.829c0.479,0.956,0.932,1.859,1.991,1.87
		c0.567-0.016,2.926-3.023,3.701-4.011c0.336-0.428,0.579-0.738,0.691-0.858c0.229-0.245,0.311-0.543,0.39-0.831
		c0.189-0.688,0.452-1.236,1.759-0.937c0.656,0.148,1.143,0.47,1.445,0.955c0.214,0.343,0.326,0.753,0.333,1.214
		c0.035-0.032,0.07-0.062,0.104-0.092c0.168-0.146,0.327-0.284,0.478-0.46l0.427-0.499l0.066,0.653
		c0.12,1.192,0.435,2.325,0.888,3.19l0.133,0.252l-0.254,0.128c-0.164,0.083-0.272,0.153-0.354,0.22l0.426-0.11l-0.001,0.364
		c-0.008,2.033-2.009,2.61-3.945,3.167c-0.041,0.013-0.081,0.024-0.122,0.036c1.792-0.127,2.392,0.723,3.089,2.002
		c0.213,0.39,0.15,0.707,0.06,0.903c-0.442,0.959-2.602,1.409-5.1,1.929c-2.156,0.449-4.387,0.913-5.31,1.692
		c-1.031,0.87-1.927,1.652-2.854,2.459c-0.502,0.437-1.011,0.882-1.556,1.352c-0.367,0.317-0.665,0.504-0.929,0.669
		c-0.394,0.246-0.677,0.424-1.033,0.928c-0.103,0.166,0.003,1.029,0.074,1.601c0.124,1.009,0.241,1.962-0.03,2.439l-0.227,0.399
		l-0.251-0.384c-0.513-0.781-0.756-1.496-0.97-2.127c-0.451-1.326-0.698-2.055-3.012-2.091c-0.932-0.021-3.568,0.285-4.351,0.832
		c-0.912,0.639-2.24,4.013-1.857,5.827c0.121,0.57,0.393,0.889,0.83,0.975c0.694,0.132,1.162-0.403,1.713-1.025
		c0.594-0.671,1.259-1.429,2.342-1.389l0.3,0.012l-0.031,0.298c-0.056,0.524-0.31,1.119-0.557,1.694
		c-0.293,0.684-0.626,1.46-0.397,1.732c0.121,0.145,0.558,0.331,2.117-0.035l0.401-0.095l-0.061,0.409
		c-0.468,3.171-0.468,3.171,2.004,4.194l0.406,0.168c0.908-0.962,1.824-1.552,3.408-1.552h0.011l0.336,0.001l-0.062,0.331
		c-0.011,0.058-0.029,0.126-0.055,0.2c2.102-0.991,5.595,0.171,7.466,1.531c3.278,2.386,3.928,3.965,4.033,6.887l0.237,0.088
		l0.002-0.005l0.141-0.243c0.654,0.38,1.515,0.649,2.426,0.934c1.694,0.529,3.445,1.076,4.357,2.445
		c1.157,1.736,0.266,3.453-0.597,5.114c-0.396,0.764-0.808,1.554-1.017,2.341c-0.112,0.423-0.147,0.858-0.187,1.319
		c-0.086,1.038-0.176,2.111-1.175,2.994c-0.316,0.282-0.814,0.156-1.341,0.023c-0.452-0.113-0.964-0.242-1.147-0.042
		c-0.366,0.397-0.372,0.61-0.381,0.932c-0.008,0.247-0.016,0.554-0.196,0.959c-0.206,0.462-0.326,1.068-0.453,1.711
		c-0.289,1.46-0.643,3.24-2.305,3.578c0.463,0.546,0.603,1.123,0.372,1.613c-0.291,0.618-1.109,0.928-2.084,0.817
		c-0.007,0.08-0.014,0.166-0.021,0.254c-0.03,0.357-0.063,0.763-0.043,1.002l0.037,0.445l-0.582-0.223
		c0.276,0.789,0.13,1.504-0.002,2.15c-0.084,0.41-0.164,0.797-0.143,1.189c0.037,0.709,0.604,1.17,1.203,1.657
		c0.769,0.624,1.639,1.332,1.138,2.614L76.32,84.302z M62.092,43.195c0.158,0,0.266,0.03,0.346,0.133
		c1.265,1.632-0.145,3.553-1.277,5.097c-0.594,0.809-1.156,1.574-1.266,2.162c-0.496,2.62,1.731,5.193,3.521,7.259l0.073,0.085
		c0.81,0.936,0.999,1.819,1.199,2.754c0.113,0.534,0.231,1.086,0.474,1.698c0.251,0.636,0.771,1.374,1.321,2.155
		c0.774,1.1,1.577,2.237,1.766,3.294c0.138,0.77,0.248,1.659,0.365,2.6c0.162,1.309,0.331,2.662,0.587,3.78
		c1.006,4.395,2.151,6.398,6.81,9.248c0.105-0.657-0.353-1.072-1.061-1.646c-0.637-0.519-1.36-1.106-1.41-2.064
		c-0.025-0.465,0.065-0.905,0.153-1.332c0.161-0.789,0.313-1.534-0.254-2.403l-0.477-0.729l1.265,0.488
		c0.009-0.209,0.027-0.439,0.047-0.664c0.017-0.201,0.032-0.392,0.039-0.545l0.012-0.33l0.324,0.066
		c0.981,0.201,1.612-0.096,1.781-0.455c0.178-0.377-0.075-0.893-0.676-1.38l-0.626-0.508l0.807,0.009h0.032
		c1.723,0,2.028-1.546,2.353-3.182c0.133-0.674,0.26-1.311,0.491-1.831c0.136-0.303,0.142-0.518,0.147-0.745
		c0.01-0.367,0.021-0.746,0.53-1.298c0.41-0.444,1.093-0.273,1.697-0.121c0.275,0.07,0.738,0.184,0.832,0.101
		c0.829-0.734,0.905-1.65,0.986-2.62c0.039-0.465,0.079-0.946,0.204-1.417c0.225-0.846,0.649-1.665,1.061-2.456
		c0.823-1.586,1.602-3.084,0.628-4.543c-0.803-1.204-2.457-1.721-4.058-2.221c-0.812-0.254-1.585-0.496-2.235-0.82
		c-0.145,0.407-0.412,1.052-0.702,1l-0.242-0.034l-0.002-0.249c0-3.6-0.313-5.088-3.821-7.64c-1.698-1.235-5.631-2.67-7.424-1.14
		l-0.433,0.369l-0.03-0.567c-0.01-0.187,0.062-0.398,0.14-0.604c-1.227,0.086-1.933,0.608-2.747,1.501l-0.133,0.146l-0.768-0.32
		c-2.529-1.045-2.84-1.272-2.402-4.392c-1.225,0.245-1.934,0.169-2.275-0.239c-0.449-0.536-0.079-1.399,0.312-2.314
		c0.175-0.408,0.354-0.827,0.451-1.198c-0.63,0.117-1.088,0.634-1.569,1.177c-0.608,0.689-1.231,1.407-2.241,1.203
		c-0.463-0.09-1.059-0.408-1.27-1.409c-0.414-1.955,0.928-5.594,2.083-6.403c0.975-0.681,3.764-0.95,4.682-0.933
		c2.708,0.041,3.073,1.114,3.534,2.472c0.138,0.406,0.289,0.848,0.518,1.315c-0.01-0.429-0.074-0.958-0.129-1.394
		c-0.131-1.065-0.194-1.683,0.025-1.993c0.42-0.596,0.779-0.82,1.194-1.08c0.258-0.162,0.524-0.329,0.858-0.617
		c0.544-0.47,1.054-0.914,1.555-1.351c0.928-0.809,1.825-1.593,2.859-2.465c1.031-0.871,3.332-1.35,5.558-1.813
		c2.053-0.428,4.38-0.912,4.704-1.615c0.035-0.074,0.068-0.197-0.042-0.399c-0.865-1.584-1.344-2.456-5.575-0.954l-1.316,0.468
		l1.034-0.94c0.787-0.715,2.027-1.073,3.228-1.419c1.668-0.48,3.251-0.937,3.503-2.256l-1.562,0.407l0.763-0.741
		c0.131-0.126,0.201-0.228,0.275-0.334c0.122-0.178,0.24-0.347,0.554-0.543c-0.351-0.741-0.611-1.632-0.756-2.576
		c-0.038,0.034-0.077,0.067-0.115,0.1c-0.225,0.197-0.438,0.383-0.614,0.655l-0.882,1.37l0.373-1.586
		c0.16-0.68,0.106-1.263-0.159-1.686c-0.221-0.354-0.589-0.592-1.093-0.706c-0.892-0.202-0.947-0.001-1.094,0.538
		c-0.088,0.321-0.197,0.72-0.521,1.067c-0.096,0.102-0.345,0.419-0.659,0.821c-2.1,2.675-3.45,4.225-4.144,4.225h-0.005
		c-1.403-0.015-1.978-1.165-2.487-2.18c-0.365-0.732-0.712-1.423-1.3-1.528c-0.687-0.118-1.749,0.494-3.234,1.888
		c-5.864,5.501-12.155,16.651-12.363,24.699c2.077-0.385,3.662,0.74,4.825,1.785c0.338,0.304,0.693,0.661,1.065,1.034
		c0.551,0.553,1.12,1.124,1.715,1.607c0.345,0.28,1.045,0.213,1.463,0.175C61.895,43.206,62.001,43.195,62.092,43.195"/>
	<path fill="#1B75BB" d="M80.665,7.41c0-0.004-0.007-0.006-0.009-0.01C80.662,7.411,80.665,7.417,80.665,7.41"/>
	<polygon fill="#1B75BB" points="80.494,7.733 80.398,7.509 80.58,7.413 80.384,7.411 80.583,7.411 80.652,7.374 80.608,7.139 
		80.655,7.372 80.89,7.246 80.985,7.33 80.945,7.411 80.945,7.64 	"/>
	<path fill="#1B75BB" d="M85.376,6.354c1.47,1.455-3.564,7.93,2.21,5.218c1.081-0.507,2.227-1.785,3.422-2.36
		c1.48-0.711,4.412-1.19,5.392-2.317c-0.545-0.106-1.138-0.156-1.689-0.232c1.232-0.327,0.312-0.607,1.689-0.232
		c-0.214-0.426-0.14-1.087-0.402-1.545c1.567,0.736,2.544,0.406,2.592-1.235C95.775,3.581,86.025,2.995,85.376,6.354"/>
	<path fill="#1B75BB" d="M85.492,12.509c-0.304,0-0.537-0.077-0.713-0.229c-0.601-0.519-0.264-1.634,0.127-2.925
		c0.336-1.108,0.716-2.363,0.272-2.802l-0.106-0.106L85.1,6.3c0.647-3.345,9.139-3.069,12.765-2.952l1.014,0.029L98.87,3.659
		c-0.024,0.826-0.272,1.39-0.738,1.676c-0.42,0.256-0.983,0.269-1.68,0.037c0.02,0.106,0.036,0.21,0.05,0.311
		c0.035,0.238,0.069,0.463,0.147,0.622l0.194,0.389l0.086,0.017l-0.049,0.056l0.049,0.1l-0.108-0.031L96.61,7.079
		c-0.685,0.789-2.145,1.25-3.557,1.696c-0.729,0.231-1.419,0.448-1.924,0.691c-0.579,0.278-1.164,0.744-1.73,1.194
		c-0.583,0.465-1.133,0.904-1.693,1.167C86.729,12.284,86.011,12.509,85.492,12.509 M85.682,6.279
		c0.526,0.71,0.138,1.995-0.238,3.239c-0.276,0.916-0.621,2.057-0.298,2.337c0.154,0.133,0.662,0.243,2.321-0.537
		c0.502-0.236,1.027-0.654,1.584-1.097c0.589-0.47,1.199-0.957,1.836-1.262c0.541-0.26,1.249-0.484,1.999-0.721
		c1.027-0.324,2.166-0.684,2.874-1.162c-0.171-0.023-0.343-0.043-0.514-0.064c-0.194-0.023-0.387-0.046-0.574-0.071L93.287,6.75
		l1.351-0.359c0.439-0.116,0.554-0.216,0.624-0.275c0.192-0.167,0.312-0.185,0.728-0.084c-0.017-0.089-0.029-0.179-0.042-0.268
		c-0.039-0.266-0.08-0.541-0.193-0.738L95.31,4.253l0.808,0.379c0.772,0.364,1.368,0.44,1.721,0.225
		c0.248-0.153,0.399-0.467,0.452-0.935l-0.444-0.013C94.712,3.808,86.46,3.541,85.682,6.279"/>
	<path fill="#1B75BB" d="M71.492,81.187c0-0.004-0.003-0.004-0.009-0.002C71.489,81.193,71.492,81.196,71.492,81.187"/>
	<path fill="#1B75BB" d="M77.302,6.177c-0.29,0.987-0.917,1.774-1.706,2.315c0.934,0.212,1.689-0.392,1.689,1.004
		c0,0.363,0.602-0.561,0.644-0.772c1.141,0.352,1.088-0.562,0.966-1.7c0.268,0.283,0.536,0.567,0.805,0.85
		c0.136-0.085,0.638-0.994,0.957-0.473c-0.316-0.749-0.584-1.603-0.957-2.19C78.899,5.533,78.101,5.855,77.302,6.177"/>
	<path fill="#1B75BB" d="M77.321,9.86c-0.009,0-0.017-0.001-0.026-0.002c-0.145-0.014-0.291-0.132-0.291-0.362
		c0-0.429-0.078-0.569-0.125-0.614C76.8,8.805,76.6,8.811,76.366,8.819c-0.233,0.006-0.523,0.016-0.833-0.054l-0.626-0.143
		l0.53-0.363c0.785-0.537,1.337-1.284,1.595-2.162l0.039-0.13l2.739-1.105l0.125,0.197c0.274,0.433,0.493,0.995,0.703,1.538
		c0.091,0.234,0.181,0.469,0.276,0.694l-0.497,0.257h-0.004c-0.08,0-0.274,0.243-0.349,0.335c-0.087,0.111-0.146,0.183-0.217,0.228
		l-0.195,0.123l-0.418-0.442c0.012,0.504-0.062,0.884-0.339,1.113c-0.201,0.165-0.468,0.212-0.811,0.147
		C77.923,9.375,77.616,9.859,77.321,9.86 M76.551,8.254c0.264,0,0.521,0.032,0.72,0.225c0.114,0.112,0.194,0.261,0.242,0.46
		c0.069-0.115,0.129-0.224,0.143-0.276l0.077-0.279l0.28,0.071c0.257,0.079,0.443,0.085,0.526,0.017
		c0.209-0.173,0.126-0.952,0.076-1.419l-0.088-0.825l1.162,1.227c0.138-0.169,0.307-0.358,0.507-0.446
		C80.169,6.94,80.143,6.87,80.115,6.8c-0.168-0.434-0.341-0.879-0.536-1.239L77.53,6.387c-0.235,0.716-0.642,1.352-1.197,1.871
		h0.017C76.416,8.256,76.484,8.254,76.551,8.254"/>
	<path fill="#1B75BB" d="M134.484,63.833c0,0-5.477,2.333-6.626,5.495c-1.15,3.162,0.438,3.765,0.438,3.765
		S136.225,69.692,134.484,63.833"/>
	<path fill="#1B75BB" d="M128.304,73.394l-0.106-0.039c-0.076-0.029-1.834-0.738-0.603-4.123c1.178-3.24,6.552-5.561,6.779-5.658
		l0.29-0.123l0.091,0.302c1.789,6.03-6.267,9.562-6.348,9.597L128.304,73.394z M134.3,64.225c-1.141,0.533-5.233,2.601-6.178,5.199
		c-0.876,2.405-0.101,3.167,0.185,3.355C129.26,72.333,135.487,69.206,134.3,64.225"/>
</g>
</svg>
