<!-- Created with Inkscape (http://www.inkscape.org/) -->
<svg width="493.95" height="92.546" version="1.1" viewBox="0 0 493.95 92.546" xmlns="http://www.w3.org/2000/svg">
 <g transform="matrix(1.3333 0 0 -1.3333 -721.73 741.1)">
  <g transform="matrix(1 0 0 1 .0015462 .0015877)">
   <g fill="#0077c8">
    <path transform="translate(544.66 536.36)" d="m0 0c-1.739-3.529-2.885-7.392-3.328-11.469-0.062-0.569 0.404-1.076 0.98-1.076h15.238c0.555 0 1.016 0.453 1.038 1.005 0.154 3.866 0.549 7.716 1.174 11.399 0.082 0.483-0.265 0.908-0.758 0.908h-13.111c-0.529 0-1-0.295-1.233-0.767"/>
    <path transform="translate(606.11 537.13)" d="m0 0h-39.833c-0.491 0-0.916-0.334-1.005-0.815-0.642-3.484-1.08-7.32-1.25-11.418-0.024-0.586 0.429-1.079 1.02-1.079h44.674c0.58 0 1.041 0.511 0.978 1.084-0.443 4.074-1.589 7.934-3.327 11.461-0.233 0.472-0.728 0.767-1.257 0.767"/>
   </g>
   <g fill="#003da5">
    <path d="m657.74 518.59h-18.024v-14.822h-5.602v34.708h24.766v-5.301h-19.164v-9.274h18.024z"/>
    <path transform="translate(693.88 517.45)" d="m0 0c0-9.644-6.518-14.3-14.727-14.3-8.205 0-14.727 4.656-14.727 14.3v21.026h5.606v-20.599c0-6.622 3.743-9.349 9.121-9.349 5.383 0 9.126 2.727 9.126 9.349v20.599h5.601z"/>
    <path d="m724.77 503.76h-24.818v34.709h5.602v-29.407h19.216z"/>
    <path transform="translate(742.93 538.4)" d="m0 0c7.416 0 12.993-2.556 12.993-9.444 0-3.573-2.304-6.547-5.354-7.393 3.297-0.959 6.148-3.962 6.148-7.952 0-6.917-5.084-9.92-12.994-9.92h-14.252v34.709zm-7.857-5.254v-9.35h7.686c3.891 0 7.288 0.599 7.288 4.742 0 3.99-3.445 4.608-7.34 4.608zm0-14.575v-9.626h8.403c4.414 0 7.364 0.846 7.364 4.865 0 3.915-2.95 4.761-7.364 4.761z"/>
    <path transform="translate(777.74 538.47)" d="m0 0c7.981 0 12.295-3.572 12.295-10.043 0-5.9-4.513-9.815-11.578-10.062l11.431-14.604h-6.941l-11.06 14.604h-2.827v-14.604h-5.601v34.709zm-8.68-5.254v-9.768h8.528c4.513 0 6.622 1.635 6.622 4.979 0 3.297-2.233 4.789-6.622 4.789z"/>
    <path d="m802.42 503.76h-5.601v34.709h5.601z"/>
    <path transform="translate(840.73 533.51)" d="m0 0-4.114-3.991c-2.185 2.604-5.459 4.219-9.326 4.219-7.088 0-12.294-5.131-12.294-12.618s5.206-12.627 12.047-12.627c6.323 0 10.043 3.278 10.936 9.007h-9.202v5.207h15.274c0.024-0.447 0.052-0.893 0.052-1.34 0-9.967-6.323-18.224-17.06-18.224-8.95 0-17.924 6.395-17.924 17.977 0 10.433 7.634 17.996 18.171 17.996 5.53 0 10.29-2.081 13.44-5.606"/>
    <path d="m854.86 523.9h18.741v14.575h5.607v-34.709h-5.607v14.823h-18.741v-14.823h-5.601v34.709h5.601z"/>
    <path d="m911.76 533.17h-11.23v-29.407h-5.607v29.407h-11.23v5.301h28.067z"/>
    <path transform="translate(557.64 518.42)" d="m0 0h-15.645c-0.405 0-0.734-0.357-0.694-0.758 1.367-13.719 10.749-25.085 23.446-29.387 0.405-0.137 0.763 0.295 0.552 0.665-4.006 7.004-6.294 17.754-6.713 28.57-0.019 0.5-0.442 0.91-0.946 0.91"/>
    <path transform="translate(576.01 486.42)" d="m0 0c18.015 0 32.814 13.567 34.688 30.977 0.061 0.563-0.37 1.029-0.94 1.029h-44.799c-0.537 0-0.964-0.448-0.942-0.981 0.726-17.98 6.649-31.019 11.993-31.025"/>
   </g>
   <g fill="#00a9e0">
    <path transform="translate(576.01 555.83)" d="m0 0c-3.196 0-6.595-4.682-8.973-12.274-0.156-0.497 0.223-1.026 0.747-1.026h34.487c0.469 0 0.741 0.561 0.438 0.917-6.403 7.562-15.976 12.383-26.699 12.383"/>
    <path transform="translate(561.31 543.34)" d="m0 0c1.044 3.771 2.38 7.16 3.985 9.959 0.212 0.371-0.148 0.802-0.554 0.665-6.065-2.057-11.366-5.731-15.411-10.5-0.309-0.365-0.031-0.939 0.449-0.939h10.473c0.496 0 0.926 0.34 1.058 0.815"/>
   </g>
  </g>
 </g>
</svg>
