<?xml version="1.0" encoding="UTF-8" standalone="no" ?>
<!DOCTYPE svg PUBLIC "-//W3C//DTD SVG 1.1//EN" "http://www.w3.org/Graphics/SVG/1.1/DTD/svg11.dtd">
<svg xmlns="http://www.w3.org/2000/svg" xmlns:xlink="http://www.w3.org/1999/xlink" version="1.1" width="1080" height="1080" viewBox="0 0 1080 1080" xml:space="preserve">
<desc>Created with Fabric.js 5.2.4</desc>
<defs>
</defs>
<g transform="matrix(1 0 0 1 540 540)" id="059915ac-8430-42e4-8445-b165929f455d"  >
<rect style="stroke: none; stroke-width: 1; stroke-dasharray: none; stroke-linecap: butt; stroke-dashoffset: 0; stroke-linejoin: miter; stroke-miterlimit: 4; fill: rgb(255,255,255); fill-rule: nonzero; opacity: 1; visibility: hidden;" vector-effect="non-scaling-stroke"  x="-540" y="-540" rx="0" ry="0" width="1080" height="1080" />
</g>
<g transform="matrix(1 0 0 1 540 540)" id="449ccbe8-1dce-4785-a482-225847d60d5b"  >
</g>
<g transform="matrix(5.4 0 0 5.4 540 540)"  >
<g style="opacity: 1;"   >
		<g transform="matrix(0.99 0 0 0.99 -69.87 -5.87)"  >
<path style="stroke: none; stroke-width: 1; stroke-dasharray: none; stroke-linecap: butt; stroke-dashoffset: 0; stroke-linejoin: miter; stroke-miterlimit: 4; fill: rgb(75,75,75); fill-rule: nonzero; opacity: 1;" vector-effect="non-scaling-stroke"  transform=" translate(-30.29, -64.47)" d="M 48.87 50.21 C 48.87 50.21 36.33 35.1 11.71 33 L 11.71 95.93 C 11.709900000000001 95.93 25.71 84.53 48.87 89.5 L 48.87 89.5 C 38.9362 84.768 27.5537 84.0761 17.119999999999997 87.57 L 17.119999999999997 39.72 C 17.119999999999997 39.72 32.129999999999995 39.23 48.87 50.21 Z" stroke-linecap="round" />
</g>
		<g transform="matrix(0.99 0 0 0.99 -77.16 10.37)"  >
<path style="stroke: none; stroke-width: 1; stroke-dasharray: none; stroke-linecap: butt; stroke-dashoffset: 0; stroke-linejoin: miter; stroke-miterlimit: 4; fill: rgb(75,75,75); fill-rule: nonzero; opacity: 1;" vector-effect="non-scaling-stroke"  transform=" translate(-22.95, -80.78)" d="M 4.82 107.77 L 5.5600000000000005 46.67999999999999 L 8.74 46.67999999999999 L 8.74 41.75999999999999 L 0.7400000000000002 41.75999999999999 L 0 119.8 C 19.61 97.6 45.91 91.53 45.91 91.53 C 17.999999999999996 91.94 4.819999999999993 107.77 4.819999999999993 107.77 Z" stroke-linecap="round" />
</g>
		<g transform="matrix(0.99 0 0 0.99 -42.58 -15.38)"  >
<path style="stroke: none; stroke-width: 1; stroke-dasharray: none; stroke-linecap: butt; stroke-dashoffset: 0; stroke-linejoin: miter; stroke-miterlimit: 4; fill: rgb(75,75,75); fill-rule: nonzero; opacity: 1;" vector-effect="non-scaling-stroke"  transform=" translate(-57.71, -54.91)" d="M 26.79 33.72 C 76.39 51.35 54.9 88.06 54.9 88.06 C 94.05 67.67 88.34 21.75 88.34 21.75 C 76.55000000000001 48.36 26.790000000000006 33.72 26.790000000000006 33.72 Z" stroke-linecap="round" />
</g>
		<g transform="matrix(0.99 0 0 0.99 -37.97 -53.54)"  >
<path style="stroke: none; stroke-width: 1; stroke-dasharray: none; stroke-linecap: butt; stroke-dashoffset: 0; stroke-linejoin: miter; stroke-miterlimit: 4; fill: rgb(75,75,75); fill-rule: nonzero; opacity: 1;" vector-effect="non-scaling-stroke"  transform=" translate(-62.35, -16.54)" d="M 48.82 14.71 L 48.82 14.709900000000001 C 48.432 14.954 48.3154 15.4664 48.5596 15.854400000000002 C 48.6619 16.017000000000003 48.817600000000006 16.139100000000003 48.999900000000004 16.199800000000003 L 47.879900000000006 19.359800000000003 L 50.75990000000001 19.359800000000003 L 49.57990000000001 16.199800000000003 L 49.57990000000001 16.199800000000003 C 49.89960000000001 16.072800000000004 50.10960000000001 15.763700000000004 50.10990000000001 15.419800000000004 L 50.10990000000001 15.419700000000004 C 50.10820000000001 15.132300000000004 49.96150000000001 14.865200000000005 49.71990000000001 14.709700000000005 L 49.71990000000001 10.589700000000004 L 54.42990000000001 12.669700000000004 L 54.42990000000001 14.119700000000003 C 58.50990000000001 12.119700000000003 61.089900000000014 12.919700000000004 61.089900000000014 12.919700000000004 L 60.42990000000002 12.919700000000004 L 60.42990000000002 12.919600000000004 C 55.76810000000002 13.049300000000004 51.94450000000002 16.653600000000004 51.53990000000002 21.299600000000005 L 51.53990000000002 21.299600000000005 C 51.499800000000015 21.842100000000006 51.499800000000015 22.387000000000004 51.53990000000002 22.929600000000004 L 51.53990000000002 22.929500000000004 C 51.919100000000014 28.904200000000003 57.070000000000014 33.44030000000001 63.04470000000002 33.06100000000001 C 69.01940000000002 32.681700000000006 73.55550000000002 27.530800000000006 73.17620000000002 21.556100000000008 C 73.04750000000003 19.52960000000001 72.35230000000003 17.58000000000001 71.16970000000002 15.929400000000008 L 71.16970000000002 12.669400000000008 L 80.23970000000003 8.359400000000008 L 63.149700000000024 -0.0005999999999914962 L 44.459700000000026 8.269400000000008 L 48.819700000000026 10.189400000000008 Z" stroke-linecap="round" />
</g>
		<g transform="matrix(0.99 0 0 0.99 -38.15 36.27)"  >
<path style="stroke: none; stroke-width: 1; stroke-dasharray: none; stroke-linecap: butt; stroke-dashoffset: 0; stroke-linejoin: miter; stroke-miterlimit: 4; fill: rgb(75,75,75); fill-rule: nonzero; opacity: 1;" vector-effect="non-scaling-stroke"  transform=" translate(-62.17, -106.81)" d="M 52.26 119.8 L 52.26 93.8 L 59.47 93.8 L 59.47 113.50999999999999 L 72.08 113.50999999999999 L 72.08 119.82999999999998 Z" stroke-linecap="round" />
</g>
		<g transform="matrix(0.99 0 0 0.99 -14.67 36.28)"  >
<path style="stroke: none; stroke-width: 1; stroke-dasharray: none; stroke-linecap: butt; stroke-dashoffset: 0; stroke-linejoin: miter; stroke-miterlimit: 4; fill: rgb(75,75,75); fill-rule: nonzero; opacity: 1;" vector-effect="non-scaling-stroke"  transform=" translate(-85.77, -106.82)" d="M 75.2 119.8 L 75.2 93.8 L 96.14 93.8 L 96.14 99.89999999999999 L 82.34 99.89999999999999 L 82.34 103.89999999999999 L 94.84 103.89999999999999 L 94.84 109.58999999999999 L 82.34 109.58999999999999 L 82.34 113.71999999999998 L 96.34 113.71999999999998 L 96.34 119.84999999999998 Z" stroke-linecap="round" />
</g>
		<g transform="matrix(0.99 0 0 0.99 9.89 36.27)"  >
<path style="stroke: none; stroke-width: 1; stroke-dasharray: none; stroke-linecap: butt; stroke-dashoffset: 0; stroke-linejoin: miter; stroke-miterlimit: 4; fill: rgb(75,75,75); fill-rule: nonzero; opacity: 1;" vector-effect="non-scaling-stroke"  transform=" translate(-110.46, -106.82)" d="M 100.05 119.8 L 100.05 93.8 L 120.87 93.8 L 120.87 100.12 L 107.26 100.12 L 107.26 104.55000000000001 L 119.57000000000001 104.55000000000001 L 119.57000000000001 110.55000000000001 L 107.26 110.55000000000001 L 107.26 119.84 Z" stroke-linecap="round" />
</g>
		<g transform="matrix(0.99 0 0 0.99 36.63 36.23)"  >
<path style="stroke: none; stroke-width: 1; stroke-dasharray: none; stroke-linecap: butt; stroke-dashoffset: 0; stroke-linejoin: miter; stroke-miterlimit: 4; fill: rgb(75,75,75); fill-rule: nonzero; opacity: 1;" vector-effect="non-scaling-stroke"  transform=" translate(-137.33, -106.77)" d="M 147.33 116.38 L 147.33 116.38 C 141.69060000000002 121.6139 132.9693 121.6139 127.33000000000001 116.38 L 127.32990000000001 116.38 C 124.72200000000001 113.8986 123.2715 110.4392 123.32990000000001 106.84 L 123.32990000000001 106.77000000000001 L 123.32990000000001 106.7699 C 123.2595 103.1508 124.71060000000001 99.66820000000001 127.32990000000001 97.16990000000001 L 127.32990000000001 97.16990000000001 C 132.9692 91.93590000000002 141.69050000000001 91.93590000000002 147.3299 97.16990000000001 L 147.3299 97.16990000000001 C 149.9357 99.6526 151.38580000000002 103.11110000000001 151.3299 106.7099 L 151.3299 106.7899 L 151.3299 106.7899 C 151.3998 110.4059 149.9486 113.8853 147.3299 116.3799 Z M 132.59 111.72999999999999 L 132.59 111.72989999999999 C 135.0524 114.37979999999999 139.1968 114.5319 141.8468 112.06939999999999 C 141.9439 111.97899999999998 142.0384 111.88579999999999 142.1299 111.78979999999999 L 142.1298 111.78979999999999 C 143.3528 110.44329999999998 144.01149999999998 108.67829999999998 143.9698 106.85979999999998 L 143.9698 106.78979999999999 L 143.9698 106.78979999999999 C 144.0136 104.94259999999998 143.3398 103.15039999999999 142.0898 101.78979999999999 L 142.0898 101.78979999999999 C 139.5785 99.15539999999999 135.40709999999999 99.05549999999998 132.7728 101.56669999999998 C 132.6966 101.63919999999999 132.6223 101.71349999999998 132.5497 101.78969999999998 L 132.5497 101.78959999999998 C 131.3136 103.12539999999998 130.6465 104.89009999999998 130.6897 106.70959999999998 L 130.6897 106.78959999999998 L 130.6897 106.78959999999998 C 130.6521 108.62139999999998 131.33419999999998 110.39499999999998 132.5897 111.72959999999998 Z" stroke-linecap="round" />
</g>
		<g transform="matrix(0.99 0 0 0.99 65.23 36.29)"  >
<path style="stroke: none; stroke-width: 1; stroke-dasharray: none; stroke-linecap: butt; stroke-dashoffset: 0; stroke-linejoin: miter; stroke-miterlimit: 4; fill: rgb(75,75,75); fill-rule: nonzero; opacity: 1;" vector-effect="non-scaling-stroke"  transform=" translate(-166.08, -106.84)" d="M 155.09 119.8 L 155.09 93.8 L 166.28 93.8 L 166.28 93.7999 C 169.10660000000001 93.6531 171.8941 94.5103 174.15 96.2199 L 174.15 96.21979999999999 C 176.1106 97.8736 177.1869 100.3479 177.06 102.90979999999999 L 177.06 102.9998 L 177.0599 102.9998 C 177.2215 105.69309999999999 176.0748 108.29929999999999 173.9799 109.9998 L 173.9799 109.9998 C 171.65359999999998 111.72489999999999 168.8029 112.59389999999999 165.9099 112.45979999999999 L 162.29989999999998 112.45979999999999 L 162.29989999999998 119.88979999999998 Z M 162.3 106.71 L 165.76000000000002 106.71 L 165.76000000000002 106.71 C 166.8386 106.76589999999999 167.90200000000002 106.4362 168.76000000000002 105.77999999999999 L 168.76000000000002 105.77999999999999 C 169.49960000000002 105.16879999999999 169.91340000000002 104.24879999999999 169.88000000000002 103.28999999999999 L 169.88000000000002 103.22 L 169.88000000000002 103.22 C 169.93920000000003 102.25489999999999 169.52970000000002 101.3205 168.78000000000003 100.71 L 168.78000000000003 100.71 C 167.88810000000004 100.0726 166.80400000000003 99.7618 165.71000000000004 99.83 L 162.30000000000004 99.83 Z" stroke-linecap="round" />
</g>
		<g transform="matrix(0.99 0 0 0.99 88.52 36.25)"  >
<path style="stroke: none; stroke-width: 1; stroke-dasharray: none; stroke-linecap: butt; stroke-dashoffset: 0; stroke-linejoin: miter; stroke-miterlimit: 4; fill: rgb(75,75,75); fill-rule: nonzero; opacity: 1;" vector-effect="non-scaling-stroke"  transform=" translate(-189.5, -106.8)" d="M 190.34 120.25 L 190.3399 120.25 C 185.8786 120.3809 181.5288 118.8442 178.1399 115.94 L 182.1399 111.14 L 182.1399 111.14 C 184.512 113.1174 187.49190000000002 114.219 190.5799 114.26 C 192.5799 114.26 193.5799 113.67 193.5799 112.48 L 193.5799 112.4 L 193.5799 112.4 C 193.5744 111.81410000000001 193.2261 111.28580000000001 192.68990000000002 111.05000000000001 L 192.68990000000002 111.05000000000001 C 191.56160000000003 110.52440000000001 190.37730000000002 110.1286 189.15990000000002 109.87 C 187.56990000000002 109.5 186.26990000000004 109.14 185.24990000000003 108.80000000000001 L 185.24990000000003 108.80000000000001 C 184.20050000000003 108.4304 183.19450000000003 107.94760000000001 182.24990000000003 107.36000000000001 L 182.24990000000003 107.36000000000001 C 181.31570000000002 106.81760000000001 180.55590000000004 106.01960000000001 180.05990000000003 105.06000000000002 L 180.05990000000003 105.06000000000002 C 179.56400000000002 104.02140000000001 179.32070000000002 102.88040000000002 179.34990000000002 101.73000000000002 L 179.34990000000002 101.66000000000003 L 179.34990000000002 101.66000000000003 C 179.28810000000001 99.34640000000003 180.29510000000002 97.13330000000002 182.0799 95.66000000000003 L 182.0799 95.65990000000002 C 184.1713 94.02900000000002 186.78150000000002 93.20860000000002 189.4299 93.34990000000002 L 189.4299 93.34980000000002 C 193.2935 93.22320000000002 197.0805 94.44670000000002 200.1399 96.80980000000001 L 196.5299 101.9098 L 196.5299 101.9098 C 194.4441 100.283 191.8847 99.3807 189.2399 99.33980000000001 C 187.50990000000002 99.33980000000001 186.6399 99.89980000000001 186.6399 101.01980000000002 L 186.6399 101.08980000000001 L 186.6399 101.08980000000001 C 186.6511 101.70500000000001 187.0121 102.26 187.56990000000002 102.51980000000002 L 187.56990000000002 102.51980000000002 C 188.71660000000003 103.05140000000002 189.93150000000003 103.42160000000001 191.17990000000003 103.61980000000001 L 191.17990000000003 103.61980000000001 C 193.77440000000004 104.0734 196.24860000000004 105.05350000000001 198.44990000000004 106.49980000000001 L 198.44990000000004 106.49980000000001 C 200.06410000000005 107.73920000000001 200.95920000000004 109.69810000000001 200.83990000000003 111.72980000000001 L 200.83990000000003 111.7998 L 200.83990000000003 111.7998 C 200.94510000000002 114.20280000000001 199.88830000000002 116.5099 197.99990000000003 117.99980000000001 L 197.99990000000003 117.99980000000001 C 195.77820000000003 119.602 193.07510000000002 120.396 190.33990000000003 120.24980000000001 Z" stroke-linecap="round" />
</g>
		<g transform="matrix(0.99 0 0 0.99 -93.78 62.91)"  >
<path style="stroke: none; stroke-width: 1; stroke-dasharray: none; stroke-linecap: butt; stroke-dashoffset: 0; stroke-linejoin: miter; stroke-miterlimit: 4; fill: rgb(75,75,75); fill-rule: nonzero; opacity: 1;" vector-effect="non-scaling-stroke"  transform=" translate(-6.25, -133.59)" d="M 10.14 129.09 L 10.14 138.09 L 8.85 138.09 L 8.85 134.09 L 3.6499999999999995 134.09 L 3.6499999999999995 138.09 L 2.36 138.09 L 2.36 129.09 L 3.65 129.09 L 3.65 133 L 8.85 133 L 8.85 129.11 Z" stroke-linecap="round" />
</g>
		<g transform="matrix(0.99 0 0 0.99 -82.52 64.03)"  >
<path style="stroke: none; stroke-width: 1; stroke-dasharray: none; stroke-linecap: butt; stroke-dashoffset: 0; stroke-linejoin: miter; stroke-miterlimit: 4; fill: rgb(75,75,75); fill-rule: nonzero; opacity: 1;" vector-effect="non-scaling-stroke"  transform=" translate(-17.57, -134.72)" d="M 20.92 135.12 L 15.360000000000003 135.12 L 15.359900000000003 135.12 C 15.422900000000004 135.6933 15.710500000000003 136.2183 16.159900000000004 136.58 L 16.159900000000004 136.58 C 16.641900000000003 136.9546 17.239600000000003 137.1491 17.849900000000005 137.13000000000002 L 17.849900000000005 137.13000000000002 C 18.607000000000006 137.16550000000004 19.340400000000006 136.86120000000003 19.849900000000005 136.3 L 20.539900000000006 137.10000000000002 L 20.539900000000006 137.10000000000002 C 20.225500000000007 137.46590000000003 19.827600000000007 137.75060000000002 19.379900000000006 137.93000000000004 L 19.379900000000006 137.93000000000004 C 18.890000000000008 138.12380000000005 18.366600000000005 138.21890000000005 17.839900000000007 138.21000000000004 L 17.839900000000007 138.21000000000004 C 17.170400000000008 138.22190000000003 16.508000000000006 138.07090000000002 15.909900000000007 137.77000000000004 L 15.909800000000008 137.77000000000004 C 15.367500000000007 137.48380000000003 14.916900000000007 137.05060000000003 14.609800000000007 136.52000000000004 L 14.609700000000007 136.52000000000004 C 14.003400000000008 135.39300000000003 14.003400000000008 134.03690000000003 14.609700000000007 132.91000000000003 L 14.609600000000007 132.91000000000003 C 14.893000000000008 132.38530000000003 15.319500000000007 131.95180000000002 15.839600000000008 131.66000000000003 L 15.839600000000008 131.66000000000003 C 16.378400000000006 131.36380000000003 16.984700000000007 131.21220000000002 17.59960000000001 131.22000000000003 L 17.59960000000001 131.21990000000002 C 18.211500000000008 131.20960000000002 18.815200000000008 131.36140000000003 19.34960000000001 131.65990000000002 L 19.34950000000001 131.65990000000002 C 19.85880000000001 131.95570000000004 20.27460000000001 132.38890000000004 20.54950000000001 132.90990000000002 L 20.54950000000001 132.90990000000002 C 20.84810000000001 133.47660000000002 20.99940000000001 134.10930000000002 20.98950000000001 134.74990000000003 L 20.98940000000001 134.74990000000003 C 20.97380000000001 134.8745 20.95040000000001 134.99810000000002 20.91940000000001 135.11990000000003 Z M 16.07 132.81 L 16.0699 132.81 C 15.6631 133.1772 15.409600000000001 133.6842 15.3599 134.23 L 19.759900000000002 134.23 L 19.759900000000002 134.23 C 19.707600000000003 133.68779999999998 19.454400000000003 133.1847 19.0499 132.82 L 19.0499 132.82 C 18.643800000000002 132.4496 18.1092 132.2522 17.559900000000003 132.26999999999998 L 17.559900000000003 132.26999999999998 C 17.012500000000003 132.25369999999998 16.4796 132.44679999999997 16.069900000000004 132.80999999999997 Z" stroke-linecap="round" />
</g>
		<g transform="matrix(0.99 0 0 0.99 -74.75 62.65)"  >
<path style="stroke: none; stroke-width: 1; stroke-dasharray: none; stroke-linecap: butt; stroke-dashoffset: 0; stroke-linejoin: miter; stroke-miterlimit: 4; fill: rgb(75,75,75); fill-rule: nonzero; opacity: 1;" vector-effect="non-scaling-stroke"  transform=" translate(-25.38, -133.33)" d="M 24.75 128.54 L 26 128.54 L 26 138.13 L 24.75 138.13 Z" stroke-linecap="round" />
</g>
		<g transform="matrix(0.99 0 0 0.99 -66.19 65.23)"  >
<path style="stroke: none; stroke-width: 1; stroke-dasharray: none; stroke-linecap: butt; stroke-dashoffset: 0; stroke-linejoin: miter; stroke-miterlimit: 4; fill: rgb(75,75,75); fill-rule: nonzero; opacity: 1;" vector-effect="non-scaling-stroke"  transform=" translate(-33.99, -135.93)" d="M 35.85 131.66 L 35.85 131.66 C 36.372 131.9435 36.8021 132.3703 37.09 132.89 L 37.0899 132.89 C 37.3906 133.44869999999997 37.5421 134.07549999999998 37.5299 134.70999999999998 L 37.5299 134.70989999999998 C 37.5411 135.3473 37.3897 135.97719999999998 37.0899 136.5399 L 37.0898 136.5399 C 36.801899999999996 137.05949999999999 36.37179999999999 137.4863 35.849799999999995 137.76989999999998 L 35.84969999999999 137.76989999999998 C 35.30579999999999 138.0716 34.69149999999999 138.22349999999997 34.06969999999999 138.20989999999998 L 34.06969999999999 138.20979999999997 C 33.60459999999999 138.21659999999997 33.14369999999999 138.12099999999998 32.71969999999999 137.92979999999997 L 32.719599999999986 137.92979999999997 C 32.32569999999998 137.73529999999997 31.983199999999986 137.45099999999996 31.719599999999986 137.09979999999996 L 31.719599999999986 140.63979999999995 L 30.439599999999984 140.63979999999995 L 30.439599999999984 131.27979999999997 L 31.629599999999986 131.27979999999997 L 31.629599999999986 132.36979999999997 L 31.629599999999986 132.36979999999997 C 31.881699999999984 132.00029999999998 32.22659999999998 131.70379999999997 32.62959999999998 131.50979999999996 L 32.62959999999998 131.50979999999996 C 33.07009999999998 131.31409999999997 33.547499999999985 131.21519999999995 34.02959999999998 131.21979999999996 L 34.02959999999998 131.21979999999996 C 34.66489999999998 131.19889999999995 35.29389999999998 131.35099999999997 35.84959999999998 131.65979999999996 Z M 35.15 136.82 L 35.149899999999995 136.82 C 35.5029 136.62959999999998 35.797 136.346 35.9999 136 L 35.9999 136 C 36.39919999999999 135.2074 36.39919999999999 134.2725 35.99979999999999 133.48 L 35.99969999999999 133.48 C 35.80659999999999 133.1256 35.51939999999999 132.8314 35.16969999999999 132.63 L 35.16969999999999 132.63 C 34.80949999999999 132.428 34.40249999999999 132.3246 33.98969999999999 132.32999999999998 L 33.98969999999999 132.32999999999998 C 33.578799999999994 132.32549999999998 33.17439999999999 132.43259999999998 32.81969999999999 132.64 L 32.81969999999999 132.64 C 32.47029999999999 132.83739999999997 32.18289999999999 133.1283 31.989699999999992 133.48 L 31.989699999999992 133.48 C 31.586899999999993 134.27249999999998 31.59059999999999 135.2106 31.999699999999994 136 L 31.999599999999994 136 C 32.18959999999999 136.3566 32.47749999999999 136.6515 32.82959999999999 136.85 L 32.82959999999999 136.85 C 33.18659999999999 137.0605 33.595099999999995 137.1678 34.00959999999999 137.16 L 34.00959999999999 137.1599 C 34.41309999999999 137.1504 34.80669999999999 137.033 35.14959999999999 136.8199 Z" stroke-linecap="round" />
</g>
		<g transform="matrix(0.99 0 0 0.99 -58.26 62.56)"  >
<path style="stroke: none; stroke-width: 1; stroke-dasharray: none; stroke-linecap: butt; stroke-dashoffset: 0; stroke-linejoin: miter; stroke-miterlimit: 4; fill: rgb(75,75,75); fill-rule: nonzero; opacity: 1;" vector-effect="non-scaling-stroke"  transform=" translate(-41.95, -133.24)" d="M 41.35 129.73 L 41.35 129.73 C 41.191700000000004 129.58329999999998 41.1042 129.3756 41.11 129.16 L 41.109899999999996 129.16 C 41.107899999999994 128.945 41.1947 128.7388 41.3499 128.59 L 41.3499 128.59 C 41.5079 128.4302 41.7252 128.3433 41.9499 128.35 L 41.9499 128.35 C 42.1743 128.3398 42.3936 128.4189 42.5599 128.57 L 42.5599 128.57 C 42.7144 128.7184 42.7981 128.92579999999998 42.789899999999996 129.14 L 42.789899999999996 129.14 C 42.797599999999996 129.35989999999998 42.7144 129.5733 42.5599 129.73 L 42.5599 129.73 C 42.414 129.88739999999999 42.2139 129.98389999999998 41.9999 130 L 41.9999 130 C 41.7534 130.0137 41.513999999999996 129.9143 41.3499 129.73 Z M 41.35 131.28 L 42.59 131.28 L 42.59 138.13 L 41.330000000000005 138.13 Z" stroke-linecap="round" />
</g>
		<g transform="matrix(0.99 0 0 0.99 -49.99 63.99)"  >
<path style="stroke: none; stroke-width: 1; stroke-dasharray: none; stroke-linecap: butt; stroke-dashoffset: 0; stroke-linejoin: miter; stroke-miterlimit: 4; fill: rgb(75,75,75); fill-rule: nonzero; opacity: 1;" vector-effect="non-scaling-stroke"  transform=" translate(-50.26, -134.68)" d="M 52.76 132 L 52.759899999999995 132 C 53.30409999999999 132.6061 53.578399999999995 133.4075 53.51989999999999 134.22 L 53.51989999999999 138.16 L 52.27989999999999 138.16 L 52.27989999999999 134.35999999999999 L 52.27989999999999 134.35999999999999 C 52.31709999999999 133.81869999999998 52.14929999999999 133.2832 51.80989999999999 132.85999999999999 L 51.80989999999999 132.85999999999999 C 51.44219999999999 132.51069999999999 50.946099999999994 132.3296 50.439899999999994 132.35999999999999 L 50.439899999999994 132.35999999999999 C 49.84819999999999 132.32879999999997 49.26969999999999 132.54219999999998 48.83989999999999 132.95 L 48.83979999999999 132.95 C 48.42849999999999 133.4133 48.21969999999999 134.02179999999998 48.25979999999999 134.64 L 48.25979999999999 138.16 L 46.99979999999999 138.16 L 46.99979999999999 131.31 L 48.18979999999999 131.31 L 48.18979999999999 132.31 L 48.18979999999999 132.31 C 48.44059999999999 131.9492 48.78679999999999 131.6653 49.18979999999999 131.49 L 49.18979999999999 131.49 C 49.64779999999999 131.2948 50.14199999999999 131.1994 50.639799999999994 131.21 L 50.639799999999994 131.21 C 51.42479999999999 131.17190000000002 52.19109999999999 131.4574 52.75979999999999 132 Z" stroke-linecap="round" />
</g>
		<g transform="matrix(0.99 0 0 0.99 -39.4 65.28)"  >
<path style="stroke: none; stroke-width: 1; stroke-dasharray: none; stroke-linecap: butt; stroke-dashoffset: 0; stroke-linejoin: miter; stroke-miterlimit: 4; fill: rgb(75,75,75); fill-rule: nonzero; opacity: 1;" vector-effect="non-scaling-stroke"  transform=" translate(-60.91, -135.97)" d="M 64.5 131.28 L 64.5 137.2 L 64.5 137.2 C 64.5798 138.1711 64.2581 139.1324 63.61 139.85999999999999 L 63.609899999999996 139.85999999999999 C 62.86559999999999 140.48309999999998 61.907799999999995 140.7916 60.939899999999994 140.72 L 60.939899999999994 140.7199 C 60.316399999999994 140.7227 59.6962 140.6317 59.09989999999999 140.44989999999999 L 59.09979999999999 140.44989999999999 C 58.57239999999999 140.3114 58.08349999999999 140.05489999999998 57.66979999999999 139.69989999999999 L 58.26979999999999 138.69989999999999 L 58.26979999999999 138.7 C 58.61569999999999 138.9956 59.016699999999986 139.2199 59.44979999999999 139.35999999999999 L 59.449699999999986 139.35999999999999 C 59.92149999999999 139.5117 60.41399999999999 139.58929999999998 60.90969999999999 139.58999999999997 L 60.90959999999998 139.58999999999997 C 61.54999999999998 139.64159999999998 62.185299999999984 139.44059999999996 62.679599999999986 139.02999999999997 L 62.679599999999986 139.02999999999997 C 63.10259999999999 138.55359999999996 63.31219999999999 137.92489999999998 63.259599999999985 137.28999999999996 L 63.259599999999985 136.74999999999997 L 63.259599999999985 136.74999999999997 C 62.97269999999998 137.10099999999997 62.600999999999985 137.37289999999996 62.179599999999986 137.53999999999996 L 62.17949999999998 137.53989999999996 C 61.73889999999998 137.72229999999996 61.266199999999984 137.81409999999997 60.78949999999998 137.80989999999997 L 60.78939999999998 137.80989999999997 C 60.17039999999998 137.81929999999997 59.55879999999998 137.67499999999998 59.00939999999998 137.38989999999998 L 59.009299999999975 137.38989999999998 C 58.49209999999997 137.12249999999997 58.06189999999997 136.7131 57.76929999999997 136.20989999999998 L 57.76919999999997 136.20989999999998 C 57.45669999999997 135.6914 57.29719999999997 135.09509999999997 57.30919999999997 134.48989999999998 L 57.30919999999997 134.48989999999998 C 57.29699999999997 133.88139999999999 57.45639999999997 133.28189999999998 57.76919999999997 132.7599 L 57.76919999999997 132.7599 C 58.06839999999997 132.2781 58.49379999999997 131.88729999999998 58.999199999999966 131.6299 L 58.999199999999966 131.6299 C 59.55109999999997 131.3527 60.161599999999964 131.2121 60.77919999999997 131.2199 L 60.77919999999997 131.2198 C 61.27329999999997 131.213 61.763499999999965 131.3083 62.219199999999965 131.4998 L 62.21909999999996 131.4998 C 62.65099999999996 131.6772 63.027399999999965 131.9673 63.309099999999965 132.3398 L 63.309099999999965 131.2798 Z M 62.14 136.48 L 62.14 136.48 C 62.4928 136.3021 62.7851 136.0237 62.980000000000004 135.67999999999998 L 62.9799 135.67999999999998 C 63.1825 135.331 63.2862 134.93339999999998 63.2799 134.52999999999997 L 63.2799 134.52999999999997 C 63.3082 133.92419999999998 63.070899999999995 133.33619999999996 62.6299 132.91999999999996 L 62.629799999999996 132.91999999999996 C 61.647299999999994 132.09299999999996 60.212199999999996 132.09299999999996 59.2298 132.91989999999996 L 59.2298 132.91989999999996 C 58.786199999999994 133.33509999999995 58.5453 133.92279999999997 58.5698 134.52989999999997 L 58.5698 134.52989999999997 C 58.5634 134.93329999999997 58.6671 135.33089999999996 58.8698 135.67989999999998 L 58.8698 135.67989999999998 C 59.0646 136.0236 59.356899999999996 136.30199999999996 59.7098 136.4799 L 59.7098 136.4799 C 60.0873 136.6719 60.5063 136.76809999999998 60.9298 136.7599 L 60.9297 136.7599 C 61.3499 136.76809999999998 61.765699999999995 136.6719 62.1397 136.4799 Z" stroke-linecap="round" />
</g>
		<g transform="matrix(0.99 0 0 0.99 -23.59 65.3)"  >
<path style="stroke: none; stroke-width: 1; stroke-dasharray: none; stroke-linecap: butt; stroke-dashoffset: 0; stroke-linejoin: miter; stroke-miterlimit: 4; fill: rgb(75,75,75); fill-rule: nonzero; opacity: 1;" vector-effect="non-scaling-stroke"  transform=" translate(-76.8, -136)" d="M 80.57 131.28 L 77.25 138.82 L 77.25 138.82 C 77.052 139.3895 76.707 139.89669999999998 76.25 140.29 L 76.2499 140.29 C 75.8363 140.5849 75.33749999999999 140.7359 74.8299 140.72 L 74.8299 140.7199 C 74.4897 140.7256 74.15119999999999 140.6714 73.8299 140.5599 L 73.82979999999999 140.5599 C 73.53529999999999 140.4626 73.2657 140.3021 73.03979999999999 140.0899 L 73.56979999999999 139.1599 L 73.56979999999999 139.1599 C 73.89989999999999 139.47889999999998 74.34059999999998 139.6581 74.79979999999999 139.6599 L 74.79979999999999 139.6599 C 75.0731 139.6696 75.3415 139.5848 75.5598 139.41989999999998 L 75.5598 139.41989999999998 C 75.8051 139.19359999999998 75.9935 138.91269999999997 76.10979999999999 138.5999 L 76.32979999999999 138.1199 L 73.32979999999999 131.2799 L 74.62979999999999 131.2799 L 76.9998 136.7599 L 79.35979999999999 131.2799 Z" stroke-linecap="round" />
</g>
		<g transform="matrix(0.99 0 0 0.99 -13.89 64.02)"  >
<path style="stroke: none; stroke-width: 1; stroke-dasharray: none; stroke-linecap: butt; stroke-dashoffset: 0; stroke-linejoin: miter; stroke-miterlimit: 4; fill: rgb(75,75,75); fill-rule: nonzero; opacity: 1;" vector-effect="non-scaling-stroke"  transform=" translate(-86.55, -134.71)" d="M 84.72 137.76 L 84.72 137.76 C 84.1875 137.4674 83.745 137.03529999999998 83.44 136.51 L 83.44 136.51 C 82.8408 135.38469999999998 82.8408 134.0352 83.4399 132.91 L 83.4399 132.91 C 83.7449 132.3846 84.1874 131.9525 84.7199 131.66 L 84.7199 131.66 C 85.86829999999999 131.0691 87.2314 131.0691 88.37989999999999 131.66 L 88.37989999999999 131.66 C 88.9092 131.9531 89.3483 132.3853 89.64989999999999 132.91 L 89.64989999999999 132.91 C 90.2635 134.0315 90.2635 135.3884 89.64979999999998 136.51 L 89.64979999999998 136.51 C 89.34819999999999 137.03459999999998 88.90909999999998 137.46679999999998 88.37979999999999 137.76 L 88.37979999999999 137.76 C 87.23339999999999 138.3593 85.86609999999999 138.3593 84.71979999999999 137.76 Z M 87.72 136.82 L 87.7199 136.82 C 88.0689 136.6209 88.3535 136.3259 88.53989999999999 135.97 L 88.53989999999999 135.97 C 88.93919999999999 135.1774 88.93919999999999 134.2425 88.53989999999999 133.45 L 88.53989999999999 133.44989999999999 C 88.35349999999998 133.0939 88.06889999999999 132.79889999999997 87.7199 132.5999 L 87.7199 132.5999 C 87.3566 132.39669999999998 86.946 132.29319999999998 86.5299 132.29989999999998 L 86.5299 132.29989999999998 C 86.1169 132.29349999999997 85.7096 132.397 85.34989999999999 132.5999 L 85.34989999999999 132.5999 C 85.00009999999999 132.8013 84.71289999999999 133.0955 84.51989999999999 133.44989999999999 L 84.51989999999999 133.44989999999999 C 84.12049999999999 134.24239999999998 84.12049999999999 135.17729999999997 84.51979999999999 135.9699 L 84.51979999999999 135.9699 C 84.71279999999999 136.3242 84.99999999999999 136.6184 85.34979999999999 136.8199 L 85.34969999999998 136.8199 C 85.70669999999998 137.0304 86.11519999999999 137.1377 86.52969999999999 137.1299 L 86.52969999999999 137.1299 C 86.954 137.1417 87.3732 137.0343 87.73969999999998 136.8199 Z" stroke-linecap="round" />
</g>
		<g transform="matrix(0.99 0 0 0.99 -3.43 64.07)"  >
<path style="stroke: none; stroke-width: 1; stroke-dasharray: none; stroke-linecap: butt; stroke-dashoffset: 0; stroke-linejoin: miter; stroke-miterlimit: 4; fill: rgb(75,75,75); fill-rule: nonzero; opacity: 1;" vector-effect="non-scaling-stroke"  transform=" translate(-97.07, -134.76)" d="M 100.3 131.28 L 100.3 138.13 L 99.11999999999999 138.13 L 99.11999999999999 137.13 L 99.11999999999999 137.13 C 98.86469999999998 137.48659999999998 98.51969999999999 137.7695 98.11999999999999 137.95 L 98.11999999999999 137.95 C 97.7002 138.1445 97.2426 138.24349999999998 96.77999999999999 138.23999999999998 L 96.77989999999998 138.23999999999998 C 95.98909999999998 138.2849 95.21259999999998 138.01529999999997 94.61989999999999 137.48999999999998 L 94.61979999999998 137.48999999999998 C 94.06569999999998 136.88459999999998 93.78379999999999 136.07869999999997 93.83979999999998 135.26 L 93.83979999999998 131.31 L 95.07979999999998 131.31 L 95.07979999999998 135.11 L 95.07979999999998 135.11 C 95.04089999999998 135.6545 95.20869999999998 136.1937 95.54979999999998 136.62 L 95.54979999999998 136.62 C 95.91609999999997 136.9788 96.41809999999998 137.1643 96.92979999999997 137.13 L 96.92979999999997 137.1299 C 97.50609999999998 137.15779999999998 98.06789999999997 136.94389999999999 98.47979999999997 136.5399 L 98.47979999999997 136.5399 C 98.87979999999997 136.0707 99.08389999999997 135.4655 99.04979999999996 134.8499 L 99.04979999999996 131.3099 Z" stroke-linecap="round" />
</g>
		<g transform="matrix(0.99 0 0 0.99 11.16 63.32)"  >
<path style="stroke: none; stroke-width: 1; stroke-dasharray: none; stroke-linecap: butt; stroke-dashoffset: 0; stroke-linejoin: miter; stroke-miterlimit: 4; fill: rgb(75,75,75); fill-rule: nonzero; opacity: 1;" vector-effect="non-scaling-stroke"  transform=" translate(-111.74, -134.01)" d="M 114.15 137.73 L 114.15 137.73 C 113.9563 137.89839999999998 113.7273 138.0215 113.48 138.09 L 113.48 138.09 C 113.2107 138.1704 112.931 138.2108 112.65 138.21 L 112.65 138.21 C 112.06450000000001 138.2484 111.4881 138.05020000000002 111.05000000000001 137.66 L 111.05000000000001 137.66 C 110.6479 137.2318 110.4415 136.656 110.48000000000002 136.07 L 110.48000000000002 132.29999999999998 L 109.32000000000002 132.29999999999998 L 109.32000000000002 131.29999999999998 L 110.48000000000002 131.29999999999998 L 110.48000000000002 129.79999999999998 L 111.72000000000001 129.79999999999998 L 111.72000000000001 131.29999999999998 L 113.72000000000001 131.29999999999998 L 113.72000000000001 132.29999999999998 L 111.72000000000001 132.29999999999998 L 111.72000000000001 135.99999999999997 L 111.72000000000001 135.99999999999997 C 111.70070000000001 136.31179999999998 111.80080000000001 136.61919999999998 112.00000000000001 136.85999999999999 L 112.00000000000001 136.85999999999999 C 112.21010000000001 137.0709 112.50340000000001 137.1772 112.80000000000001 137.14999999999998 L 112.8 137.14999999999998 C 113.1613 137.17 113.5174 137.0561 113.8 136.82999999999998 Z" stroke-linecap="round" />
</g>
		<g transform="matrix(0.99 0 0 0.99 19.81 64.03)"  >
<path style="stroke: none; stroke-width: 1; stroke-dasharray: none; stroke-linecap: butt; stroke-dashoffset: 0; stroke-linejoin: miter; stroke-miterlimit: 4; fill: rgb(75,75,75); fill-rule: nonzero; opacity: 1;" vector-effect="non-scaling-stroke"  transform=" translate(-120.43, -134.71)" d="M 118.6 137.76 L 118.6 137.7599 C 118.0684 137.46959999999999 117.62859999999999 137.0367 117.33 136.5099 L 117.33 136.5099 C 116.7163 135.3883 116.7163 134.0314 117.3299 132.9099 L 117.3299 132.9099 C 117.62849999999999 132.38299999999998 118.0683 131.9501 118.59989999999999 131.6599 L 118.59989999999999 131.6599 C 119.16699999999999 131.36239999999998 119.7995 131.2112 120.4399 131.2199 L 120.4399 131.2199 C 121.077 131.2112 121.7062 131.3624 122.26989999999999 131.6599 L 122.26989999999999 131.6599 C 122.79639999999999 131.95319999999998 123.2323 132.38559999999998 123.5299 132.9099 L 123.5299 132.9099 C 124.1435 134.0314 124.1435 135.3883 123.5299 136.5099 L 123.5298 136.5099 C 123.23219999999999 137.0341 122.79629999999999 137.4665 122.26979999999999 137.7599 L 122.26979999999999 137.7599 C 121.70879999999998 138.06529999999998 121.07839999999999 138.22029999999998 120.43979999999999 138.20989999999998 L 120.43969999999999 138.20989999999998 C 119.79789999999998 138.22019999999998 119.1642 138.06529999999998 118.59969999999998 137.7599 Z M 121.6 136.82 L 121.6 136.82 C 121.949 136.6209 122.2336 136.3259 122.41999999999999 135.97 L 122.41999999999999 135.9699 C 122.81929999999998 135.1773 122.81929999999998 134.2424 122.41999999999999 133.44989999999999 L 122.41999999999999 133.44979999999998 C 122.23359999999998 133.0938 121.94899999999998 132.79879999999997 121.6 132.5998 L 121.6 132.5998 C 121.24019999999999 132.3969 120.8329 132.2934 120.41999999999999 132.29979999999998 L 120.41999999999999 132.29979999999998 C 120.00379999999998 132.29309999999998 119.59319999999998 132.39659999999998 119.22999999999999 132.5998 L 119.22999999999999 132.5998 C 118.88089999999998 132.7988 118.59629999999999 133.0938 118.41 133.44979999999998 L 118.41 133.44979999999998 C 117.9974 134.23909999999998 117.9974 135.1804 118.4099 135.9698 L 118.40979999999999 135.9698 C 118.59609999999999 136.32569999999998 118.88069999999999 136.6207 119.22979999999998 136.8198 L 119.22969999999998 136.8198 C 119.59019999999998 137.0306 120.00199999999998 137.13789999999997 120.41969999999998 137.1298 L 120.41969999999998 137.1298 C 120.84079999999997 137.1413 121.25679999999998 137.0339 121.61969999999998 136.8198 Z" stroke-linecap="round" />
</g>
		<g transform="matrix(0.99 0 0 0.99 34.71 64.07)"  >
<path style="stroke: none; stroke-width: 1; stroke-dasharray: none; stroke-linecap: butt; stroke-dashoffset: 0; stroke-linejoin: miter; stroke-miterlimit: 4; fill: rgb(75,75,75); fill-rule: nonzero; opacity: 1;" vector-effect="non-scaling-stroke"  transform=" translate(-135.4, -134.76)" d="M 133.7 138 L 133.7 138 C 133.26229999999998 137.88 132.8493 137.6837 132.48 137.42 L 133 136.42 L 133 136.42 C 133.3369 136.65019999999998 133.7082 136.82569999999998 134.1 136.94 L 134.1 136.94 C 134.52599999999998 137.0625 134.9667 137.1264 135.41 137.13 C 136.49 137.13 137.04 136.82 137.04 136.2 L 137.0399 136.2 C 137.0462 136.01139999999998 136.96499999999997 135.8305 136.8199 135.70999999999998 L 136.8199 135.70999999999998 C 136.6572 135.5828 136.4699 135.49089999999998 136.26989999999998 135.43999999999997 C 136.04989999999998 135.43999999999997 135.7299 135.31999999999996 135.32989999999998 135.24999999999997 L 135.32989999999998 135.24999999999997 C 134.8808 135.20079999999996 134.43609999999998 135.11719999999997 133.99989999999997 134.99999999999997 L 133.99989999999997 135 C 133.65379999999996 134.8948 133.34279999999995 134.6978 133.09989999999996 134.43 L 133.09989999999996 134.43 C 132.83139999999997 134.1168 132.69519999999997 133.7116 132.71989999999997 133.3 L 132.71989999999997 133.3 C 132.71039999999996 132.7032 133.00399999999996 132.1422 133.49989999999997 131.81 L 133.49989999999997 131.81 C 134.11739999999998 131.4099 134.84499999999997 131.214 135.57989999999998 131.25 L 135.57989999999998 131.2499 C 136.04199999999997 131.2465 136.50249999999997 131.3037 136.94989999999999 131.41989999999998 L 136.94989999999999 131.41989999999998 C 137.34879999999998 131.5065 137.73059999999998 131.65849999999998 138.07989999999998 131.86989999999997 L 137.54989999999998 132.86989999999997 L 137.54989999999998 132.86989999999997 C 136.951 132.49669999999998 136.25519999999997 132.30879999999996 135.54989999999998 132.32989999999998 L 135.54989999999998 132.32989999999998 C 135.1332 132.29979999999998 134.71669999999997 132.39 134.3499 132.58989999999997 L 134.3499 132.58989999999997 C 134.094 132.72039999999998 133.932 132.98259999999996 133.9299 133.26989999999998 L 133.9299 133.26989999999998 C 133.9203 133.4748 134.0095 133.67189999999997 134.1699 133.79989999999998 L 134.1699 133.79989999999998 C 134.3349 133.93919999999997 134.53 134.03849999999997 134.7399 134.08989999999997 C 134.9699 134.14989999999997 135.28990000000002 134.21989999999997 135.7399 134.28989999999996 L 135.7399 134.28989999999996 C 136.1928 134.36379999999997 136.6404 134.46729999999997 137.0799 134.59989999999996 L 137.0799 134.59989999999996 C 137.4129 134.70409999999995 137.71280000000002 134.89379999999997 137.9499 135.14989999999997 L 137.9499 135.14989999999997 C 138.2117 135.4465 138.34480000000002 135.83499999999998 138.31990000000002 136.2299 L 138.31990000000002 136.2299 C 138.33110000000002 136.8293 138.02750000000003 137.3909 137.5199 137.70989999999998 L 137.5199 137.70989999999998 C 136.87300000000002 138.10959999999997 136.1191 138.30159999999998 135.3599 138.2599 L 135.3599 138.2599 C 134.79680000000002 138.2541 134.23770000000002 138.16649999999998 133.6999 137.9999 Z" stroke-linecap="round" />
</g>
		<g transform="matrix(0.99 0 0 0.99 44.32 64.07)"  >
<path style="stroke: none; stroke-width: 1; stroke-dasharray: none; stroke-linecap: butt; stroke-dashoffset: 0; stroke-linejoin: miter; stroke-miterlimit: 4; fill: rgb(75,75,75); fill-rule: nonzero; opacity: 1;" vector-effect="non-scaling-stroke"  transform=" translate(-145.06, -134.76)" d="M 148.3 131.28 L 148.3 138.13 L 147.12 138.13 L 147.12 137.13 L 147.12 137.13 C 146.8647 137.48659999999998 146.5197 137.7695 146.12 137.95 L 146.12 137.94989999999999 C 145.7002 138.1444 145.2426 138.24339999999998 144.78 138.23989999999998 L 144.7799 138.23989999999998 C 143.9891 138.2848 143.2126 138.01519999999996 142.6199 137.48989999999998 L 142.6199 137.48989999999998 C 142.0622 136.88609999999997 141.7766 136.07999999999998 141.8299 135.2599 L 141.8299 131.3099 L 143.0799 131.3099 L 143.0799 135.1099 L 143.0799 135.1099 C 143.0359 135.655 143.20430000000002 136.196 143.5499 136.6199 L 143.5499 136.6199 C 143.9138 136.976 144.41160000000002 137.1613 144.9199 137.1299 L 144.9199 137.1299 C 145.4994 137.1594 146.06490000000002 136.94549999999998 146.47990000000001 136.5399 L 146.47990000000001 136.5399 C 146.87720000000002 136.06969999999998 147.07780000000002 135.46429999999998 147.03990000000002 134.8499 L 147.03990000000002 131.3099 Z" stroke-linecap="round" />
</g>
		<g transform="matrix(0.99 0 0 0.99 54.52 64.03)"  >
<path style="stroke: none; stroke-width: 1; stroke-dasharray: none; stroke-linecap: butt; stroke-dashoffset: 0; stroke-linejoin: miter; stroke-miterlimit: 4; fill: rgb(75,75,75); fill-rule: nonzero; opacity: 1;" vector-effect="non-scaling-stroke"  transform=" translate(-155.31, -134.71)" d="M 153.86 137.76 L 153.86 137.76 C 153.32260000000002 137.4706 152.8761 137.03789999999998 152.57000000000002 136.51 L 152.56990000000002 136.51 C 151.95620000000002 135.3884 151.95620000000002 134.0315 152.56990000000002 132.91 L 152.56990000000002 132.91 C 152.876 132.382 153.32250000000002 131.9493 153.8599 131.66 L 153.8599 131.66 C 154.43730000000002 131.3612 155.0798 131.21009999999998 155.72990000000001 131.22 L 155.72990000000001 131.22 C 156.30480000000003 131.2085 156.87410000000003 131.3354 157.3899 131.59 L 157.3899 131.59 C 157.8683 131.8303 158.2624 132.2104 158.5199 132.68 L 157.5799 133.29000000000002 L 157.5799 133.29000000000002 C 157.38080000000002 132.979 157.1054 132.72420000000002 156.7799 132.55 L 156.7799 132.55 C 156.4508 132.38510000000002 156.0878 132.29950000000002 155.7199 132.3 L 155.7199 132.3 C 155.2972 132.2921 154.8799 132.3956 154.5099 132.60000000000002 L 154.5099 132.60000000000002 C 154.15269999999998 132.79500000000002 153.86069999999998 133.09050000000002 153.66989999999998 133.45000000000002 L 153.66989999999998 133.45000000000002 C 153.25719999999998 134.24280000000002 153.25719999999998 135.18710000000002 153.66989999999998 135.98000000000002 L 153.66979999999998 135.98000000000002 C 153.86059999999998 136.3394 154.15259999999998 136.63490000000002 154.50979999999998 136.83 L 154.50979999999998 136.83 C 154.8798 137.0343 155.29709999999997 137.1378 155.7198 137.13000000000002 L 155.7198 137.13000000000002 C 156.08769999999998 137.13040000000004 156.45069999999998 137.04480000000004 156.7798 136.88000000000002 L 156.7798 136.88000000000002 C 157.1053 136.70570000000004 157.3807 136.45090000000002 157.5798 136.14000000000001 L 158.5198 136.74 L 158.5198 136.74 C 158.2594 137.2072 157.86610000000002 137.5866 157.3898 137.83 L 157.3898 137.83 C 156.8749 138.08790000000002 156.3056 138.2183 155.7298 138.21 L 155.7298 138.21 C 155.0783 138.22150000000002 154.43470000000002 138.0666 153.8598 137.76000000000002 Z" stroke-linecap="round" />
</g>
		<g transform="matrix(0.99 0 0 0.99 63.83 64.03)"  >
<path style="stroke: none; stroke-width: 1; stroke-dasharray: none; stroke-linecap: butt; stroke-dashoffset: 0; stroke-linejoin: miter; stroke-miterlimit: 4; fill: rgb(75,75,75); fill-rule: nonzero; opacity: 1;" vector-effect="non-scaling-stroke"  transform=" translate(-164.67, -134.71)" d="M 163.22 137.76 L 163.2199 137.76 C 162.6825 137.4706 162.236 137.03789999999998 161.9299 136.51 L 161.9298 136.51 C 161.3161 135.3884 161.3161 134.0315 161.9298 132.91 L 161.9298 132.91 C 162.2359 132.382 162.6824 131.9493 163.2198 131.66 L 163.2198 131.66 C 163.7972 131.3612 164.4397 131.21009999999998 165.0898 131.22 L 165.0898 131.22 C 165.6647 131.2085 166.234 131.3354 166.7498 131.59 L 166.7498 131.59 C 167.2282 131.8303 167.6223 132.2104 167.8798 132.68 L 166.9398 133.29000000000002 L 166.9398 133.29000000000002 C 166.7407 132.979 166.46529999999998 132.72420000000002 166.13979999999998 132.55 L 166.13969999999998 132.55 C 165.80749999999998 132.3839 165.44099999999997 132.2983 165.06969999999998 132.3 L 165.06969999999998 132.3 C 164.6503 132.29340000000002 164.23659999999998 132.3968 163.8697 132.60000000000002 L 163.8697 132.60000000000002 C 163.5125 132.79500000000002 163.2205 133.09050000000002 163.0297 133.45000000000002 L 163.0297 133.45000000000002 C 162.617 134.24280000000002 162.617 135.18710000000002 163.0297 135.98000000000002 L 163.0296 135.98000000000002 C 163.22039999999998 136.3394 163.51239999999999 136.63490000000002 163.8696 136.83 L 163.8696 136.83 C 164.23649999999998 137.03310000000002 164.65019999999998 137.1365 165.06959999999998 137.13000000000002 L 165.06959999999998 137.13000000000002 C 165.44089999999997 137.13160000000002 165.80739999999997 137.04600000000002 166.13959999999997 136.88000000000002 L 166.13959999999997 136.88000000000002 C 166.46509999999998 136.70570000000004 166.74049999999997 136.45090000000002 166.93959999999998 136.14000000000001 L 167.87959999999998 136.74 L 167.87959999999998 136.74 C 167.61919999999998 137.2072 167.2259 137.5866 166.7496 137.83 L 166.74949999999998 137.83 C 166.23459999999997 138.08790000000002 165.66529999999997 138.2183 165.0895 138.21 L 165.0895 138.21 C 164.438 138.22150000000002 163.7944 138.0666 163.21949999999998 137.76000000000002 Z" stroke-linecap="round" />
</g>
		<g transform="matrix(0.99 0 0 0.99 73.37 64.03)"  >
<path style="stroke: none; stroke-width: 1; stroke-dasharray: none; stroke-linecap: butt; stroke-dashoffset: 0; stroke-linejoin: miter; stroke-miterlimit: 4; fill: rgb(75,75,75); fill-rule: nonzero; opacity: 1;" vector-effect="non-scaling-stroke"  transform=" translate(-174.26, -134.72)" d="M 177.63 135.12 L 172.07 135.12 L 172.07 135.12 C 172.1294 135.6921 172.4135 136.2172 172.85999999999999 136.58 L 172.85999999999999 136.58 C 173.34359999999998 136.9516 173.94019999999998 137.1458 174.54999999999998 137.13000000000002 L 174.54999999999998 137.12990000000002 C 175.30679999999998 137.16400000000002 176.03969999999998 136.8599 176.54999999999998 136.2999 L 177.23 137.09990000000002 L 177.23 137.09990000000002 C 176.9185 137.46450000000002 176.52409999999998 137.74910000000003 176.07999999999998 137.92990000000003 L 176.07999999999998 137.92990000000003 C 175.58689999999999 138.12500000000003 175.06009999999998 138.22020000000003 174.52999999999997 138.20990000000003 L 174.52999999999997 138.20990000000003 C 173.86379999999997 138.22060000000005 173.20499999999998 138.06960000000004 172.60999999999999 137.76990000000004 L 172.60999999999999 137.76990000000004 C 172.0657 137.48640000000003 171.6145 137.05250000000004 171.30999999999997 136.51990000000004 L 171.30999999999997 136.51990000000004 C 170.99829999999997 135.96820000000002 170.8395 135.34340000000003 170.84999999999997 134.70990000000003 L 170.84989999999996 134.70990000000003 C 170.84359999999995 134.08250000000004 170.99489999999997 133.46360000000004 171.28989999999996 132.90990000000002 L 171.28989999999996 132.90990000000002 C 171.57879999999997 132.38930000000002 172.00399999999996 131.95720000000003 172.51989999999995 131.65990000000002 L 172.51989999999995 131.65990000000002 C 173.06179999999995 131.3624 173.67169999999996 131.21080000000003 174.28989999999996 131.21990000000002 L 174.28989999999996 131.21990000000002 C 174.90159999999997 131.211 175.50499999999997 131.36270000000002 176.03989999999996 131.65990000000002 L 176.03989999999996 131.65990000000002 C 176.54689999999997 131.95860000000002 176.96199999999996 132.39110000000002 177.23989999999995 132.90990000000002 L 177.23989999999995 132.90990000000002 C 177.53499999999994 133.47750000000002 177.68289999999996 134.11020000000002 177.66989999999996 134.74990000000003 L 177.66989999999996 134.74990000000003 C 177.66499999999996 134.87400000000002 177.65169999999995 134.99760000000003 177.62989999999996 135.11990000000003 Z M 172.76999999999998 132.81 L 172.76999999999998 132.8099 C 172.3661 133.1781 172.1161 133.6853 172.07 134.2299 L 176.45999999999998 134.2299 L 176.45999999999998 134.2299 C 176.38519999999997 133.08339999999998 175.41849999999997 132.20059999999998 174.26999999999998 132.2299 L 174.26999999999998 132.2299 C 173.7139 132.22289999999998 173.17669999999998 132.4306 172.76999999999998 132.8099 Z" stroke-linecap="round" />
</g>
		<g transform="matrix(0.99 0 0 0.99 83.31 64.03)"  >
<path style="stroke: none; stroke-width: 1; stroke-dasharray: none; stroke-linecap: butt; stroke-dashoffset: 0; stroke-linejoin: miter; stroke-miterlimit: 4; fill: rgb(75,75,75); fill-rule: nonzero; opacity: 1;" vector-effect="non-scaling-stroke"  transform=" translate(-184.25, -134.72)" d="M 187.62 135.12 L 182.06 135.12 L 182.06 135.12 C 182.11860000000001 135.6946 182.4072 136.2212 182.86 136.58 L 182.86 136.58 C 183.33890000000002 136.9531 183.93300000000002 137.1476 184.54000000000002 137.13000000000002 L 184.54000000000002 137.13000000000002 C 185.29680000000002 137.16410000000002 186.02970000000002 136.86 186.54000000000002 136.3 L 187.23000000000002 137.10000000000002 L 187.23000000000002 137.10000000000002 C 186.9156 137.46590000000003 186.51770000000002 137.75060000000002 186.07000000000002 137.93000000000004 L 186.07000000000002 137.93000000000004 C 185.58010000000002 138.12380000000005 185.05670000000003 138.21890000000005 184.53000000000003 138.21000000000004 L 184.53000000000003 138.21000000000004 C 183.86050000000003 138.22190000000003 183.19810000000004 138.07090000000002 182.60000000000002 137.77000000000004 L 182.60000000000002 137.77000000000004 C 182.0577 137.48380000000003 181.60710000000003 137.05060000000003 181.3 136.52000000000004 L 181.3 136.52000000000004 C 180.9883 135.96830000000003 180.82950000000002 135.34350000000003 180.84 134.71000000000004 L 180.84 134.71000000000004 C 180.8319 134.08120000000002 180.987 133.46100000000004 181.29 132.91000000000003 L 181.29 132.91000000000003 C 181.5724 132.38790000000003 181.9949 131.955 182.51 131.66000000000003 L 182.5099 131.66000000000003 C 183.05229999999997 131.36380000000003 183.66189999999997 131.21230000000003 184.2799 131.22000000000003 L 184.2799 131.22000000000003 C 184.8916 131.21110000000002 185.495 131.36280000000002 186.0299 131.66000000000003 L 186.0299 131.66000000000003 C 186.5369 131.95870000000002 186.952 132.39120000000003 187.2299 132.91000000000003 L 187.2299 132.91000000000003 C 187.52849999999998 133.47670000000002 187.6798 134.10940000000002 187.66989999999998 134.75000000000003 L 187.66989999999998 134.74990000000003 C 187.6609 134.87410000000003 187.64419999999998 134.99770000000004 187.61989999999997 135.11990000000003 Z M 182.77 132.81 L 182.77 132.81 C 182.3632 133.1772 182.1097 133.6842 182.06 134.23 L 186.46 134.23 L 186.46 134.23 C 186.4077 133.68779999999998 186.1545 133.1847 185.75 132.82 L 185.75 132.82 C 184.886 132.0823 183.6139 132.0823 182.75 132.82 Z" stroke-linecap="round" />
</g>
		<g transform="matrix(0.99 0 0 0.99 93.36 62.69)"  >
<path style="stroke: none; stroke-width: 1; stroke-dasharray: none; stroke-linecap: butt; stroke-dashoffset: 0; stroke-linejoin: miter; stroke-miterlimit: 4; fill: rgb(75,75,75); fill-rule: nonzero; opacity: 1;" vector-effect="non-scaling-stroke"  transform=" translate(-194.36, -133.38)" d="M 197.91 128.54 L 197.91 138.13 L 196.72 138.13 L 196.72 137.04999999999998 L 196.72 137.04999999999998 C 196.4552 137.42719999999997 196.092 137.72469999999998 195.67 137.91 L 195.66989999999998 137.91 C 195.2351 138.1136 194.7599 138.2162 194.2799 138.21 L 194.2799 138.21 C 193.6548 138.2234 193.0374 138.07170000000002 192.4899 137.77 L 192.4899 137.77 C 191.9729 137.4831 191.54670000000002 137.0569 191.25990000000002 136.54000000000002 L 191.25990000000002 136.54000000000002 C 190.9522 135.97990000000001 190.79710000000003 135.3488 190.80990000000003 134.71 L 190.80990000000003 134.71 C 190.79600000000002 134.07410000000002 190.95130000000003 133.446 191.25990000000002 132.89000000000001 L 191.25990000000002 132.89000000000001 C 191.54670000000002 132.37300000000002 191.9729 131.94680000000002 192.4899 131.66000000000003 L 192.4899 131.66000000000003 C 193.03740000000002 131.35820000000004 193.6548 131.20650000000003 194.2799 131.22000000000003 L 194.2799 131.22000000000003 C 194.7481 131.21420000000003 195.212 131.30970000000002 195.6399 131.50000000000003 L 195.6399 131.50000000000003 C 196.0379 131.68320000000003 196.3822 131.96550000000002 196.6399 132.32000000000002 L 196.6399 128.54000000000002 Z M 195.56 136.82 L 195.56 136.8199 C 195.912 136.6214 196.1999 136.32649999999998 196.39000000000001 135.9699 L 196.39000000000001 135.9698 C 196.77700000000002 135.1743 196.77700000000002 134.24519999999998 196.39000000000001 133.44979999999998 L 196.39000000000001 133.44979999999998 C 196.1999 133.0931 195.912 132.79819999999998 195.56 132.5998 L 195.56 132.5998 C 195.1993 132.39909999999998 194.7926 132.29569999999998 194.38 132.29979999999998 L 194.38 132.29979999999998 C 193.96699999999998 132.29339999999996 193.5597 132.3969 193.2 132.5998 L 193.2 132.5998 C 192.84789999999998 132.79819999999998 192.56 133.0931 192.36999999999998 133.44979999999998 L 192.36999999999998 133.44979999999998 C 191.9706 134.24229999999997 191.9706 135.17719999999997 192.36999999999998 135.9698 L 192.36999999999998 135.9698 C 192.55999999999997 136.32639999999998 192.84789999999998 136.6213 193.2 136.8198 L 193.2 136.8198 C 193.557 137.03029999999998 193.9655 137.1376 194.38 137.1298 L 194.38 137.1298 C 194.7941 137.135 195.2019 137.0279 195.56 136.8198 Z" stroke-linecap="round" />
</g>
</g>
</g>
</svg>