<svg xmlns="http://www.w3.org/2000/svg" xmlns:xlink="http://www.w3.org/1999/xlink" version="1.1" x="0px" y="0px" viewBox="0 0 595.3 841.9" style="enable-background:new 0 0 595.3 841.9;" xml:space="preserve">
<style type="text/css">
	.st0{display:none;}
	.st1{fill:#4b4b4b;}
</style>
<g id="Layer_1" class="st0">
	
		<image style="display:inline;overflow:visible;" width="133" height="75" xlink:href="53E7302D.jpg" transform="matrix(3.782 0 0 3.782 46.1378 286.6767)" fill="#4b4b4b">
	</image>
</g>
<g id="Layer_2">
	<g>
		<path class="st1" d="M439.6,384.4v69.2c0,0-1.3,11.2,7.9,11.2c8.7,0,7.1-10.7,7.1-10.7l0-68.7h38v113.4c0,0,5.1,60.5-35.2,60.5    c-31.9,0-40.3,0-40.3,0V522c0,0,18.6,1,24.1-2.2c9-5.3,6.3-17.2,6.3-17.2s-9.9,7.4-27,0.3c-17.1-7.1-18.4-32.4-18.4-32.4v-86    H439.6z" fill="#4b4b4b"/>
	</g>
	<g>
		<path class="st1" d="M350.3,437.6h39.2c0,0,2.3-51.7-51.6-52.2c-71.4,1.7-73.9,124.9-0.3,124.3c53.9,0,51.8-60,51.8-60H350    c0,0-1.5,15.4-13.4,15.1c-17.7-0.4-16.4-37.7,0-38.5C348.2,425.8,350.3,437.6,350.3,437.6z" fill="#4b4b4b"/>
	</g>
	<g>
		<path class="st1" d="M182.7,387.2h37.8v70.5c0,4.2,3.4,7.5,7.5,7.5h0c4.2,0,7.5-3.4,7.5-7.5v-70.5h37v80.7c0,0-2.6,41.9-44.9,41.9    s-44.9-42.1-44.9-42.1V387.2z" fill="#4b4b4b"/>
	</g>
	<g>
		<path class="st1" d="M174.4,458.4v49.4c0,0-15.3,0-26.8-2.3c-12.1-2.4-31.5-8.3-33.2-44c-1.8-37.1,0-118.1,0-118.1H157    c0,0-2.4,100.3,1,108.3C161.8,460.5,174.4,458.4,174.4,458.4z" fill="#4b4b4b"/>
	</g>
	<g>
		<path class="st1" d="M177.3,298.3c0,0-5.1,25.9-17,44.7c-20.5,32.2-43.9,52.6-72,58.3c-28.1,5.6-39.8-9.7-34.2-25    c15.5-42.2,68.2-71.7,96.4-83.8c0,0-71.4,46.5-78.6,75.6c0,0,14.8-28.6,56.2-56.2c0,0-18.3,15-32.2,31.1    c-11.3,13-18.7,26.8-18.9,32.7c-0.5,13.3,23.5-2,23.5-2s47-31.7,64.7-56.7C170.5,309.6,177.3,298.3,177.3,298.3z" fill="#4b4b4b"/>
	</g>
	<g>
		<path class="st1" d="M132.9,556.4v-33.8h4.4v33.8H132.9z" fill="#4b4b4b"/>
		<path class="st1" d="M162.3,556.8l-14.8-18v17.6h-3.9V530h1.4l14.8,17.6V530h4v26.7H162.3z" fill="#4b4b4b"/>
		<path class="st1" d="M167.7,555l1.5-3.6c1.7,1.2,3.6,1.8,5.7,1.8c1.3,0,2.3-0.3,3-1c0.7-0.7,1.1-1.5,1.1-2.6c0-1.3-0.4-2.3-1.2-3    c-0.8-0.7-2-1.4-3.5-2.1c-4.2-2-6.4-4.6-6.4-7.9c0-2,0.7-3.6,2.2-5c1.4-1.3,3.3-2,5.5-2c2.4,0,4.5,0.5,6.4,1.5l-1.4,3.6    c-1.9-1-3.5-1.5-4.9-1.5c-1.2,0-2.1,0.3-2.7,0.9c-0.7,0.6-1,1.4-1,2.4c0,1,0.4,1.9,1.2,2.7c0.8,0.8,2.2,1.6,4.1,2.4    c2.1,1,3.6,2.1,4.4,3.3c0.9,1.2,1.3,2.8,1.3,4.8c0,2.1-0.8,3.8-2.3,5.2c-1.5,1.3-3.5,2-5.9,2C172,556.8,169.6,556.2,167.7,555z" fill="#4b4b4b"/>
		<path class="st1" d="M186.4,530h4.1v17.6c0,3.7,1.8,5.5,5.5,5.5c3.7,0,5.6-1.9,5.6-5.6V530h4.1v17.7c0,2.9-0.8,5.1-2.5,6.7    c-1.7,1.6-4.1,2.4-7.2,2.4c-3.1,0-5.5-0.8-7.2-2.3c-1.7-1.6-2.5-3.8-2.5-6.7V530z" fill="#4b4b4b"/>
		<path class="st1" d="M225.7,556.4l-7-11.1c-0.2,0-1.4-0.1-3.4-0.2v11.2h-4.1V530c3.9-0.2,6.3-0.3,7.4-0.3c6.3,0,9.5,2.5,9.5,7.6    c0,1.6-0.5,3.1-1.5,4.4s-2.3,2.2-3.8,2.8l7.9,11.9H225.7z M215.3,541.6c1.1,0.1,1.9,0.2,2.4,0.2c2.3,0,3.9-0.3,4.7-1    s1.3-1.9,1.3-3.5c0-1.3-0.4-2.3-1.3-2.9c-0.9-0.6-2.2-0.9-4.1-0.9c-0.7,0-1.8,0.1-3,0.2V541.6z" fill="#4b4b4b"/>
		<path class="st1" d="M247.5,556.4l-2.4-6.4h-9l-2.4,6.4h-4.6l10.9-26.2h1.9l10.2,26.2H247.5z M240.8,537.2l-3.6,9.4h6.9    L240.8,537.2z" fill="#4b4b4b"/>
		<path class="st1" d="M272.7,556.8l-14.8-18v17.6H254V530h1.4l14.8,17.6V530h4v26.7H272.7z" fill="#4b4b4b"/>
		<path class="st1" d="M295.5,534.7c-1.8-0.9-3.6-1.4-5.6-1.4c-2.2,0-4,0.9-5.3,2.8c-1.4,1.9-2,4.3-2,7.4c0,2.9,0.7,5.2,2.1,7    c1.4,1.8,3.1,2.7,5.3,2.7c2.1,0,4.1-0.8,5.9-2.3l1.9,2.9c-2.1,2-4.9,3.1-8.3,3.1c-3.5,0-6.2-1.2-8.3-3.7c-2.1-2.4-3.1-5.7-3.1-9.8    c0-4,1.1-7.2,3.3-9.8s5-3.9,8.3-3.9c2.7,0,5,0.5,6.9,1.5L295.5,534.7z" fill="#4b4b4b"/>
		<path class="st1" d="M304.6,533.8v7.3h8.9v3.6h-8.9v8h12.2v3.7h-16.3V530H317v3.7H304.6z" fill="#4b4b4b"/>
		<path class="st1" d="M333.9,566.1v-44.5h10.3v3.9h-5.8v36.7h5.8v3.9H333.9z" fill="#4b4b4b"/>
		<path class="st1" d="M346.4,555l1.5-3.6c1.7,1.2,3.6,1.8,5.7,1.8c1.3,0,2.3-0.3,3-1c0.7-0.7,1.1-1.5,1.1-2.6c0-1.3-0.4-2.3-1.2-3    c-0.8-0.7-2-1.4-3.5-2.1c-4.2-2-6.4-4.6-6.4-7.9c0-2,0.7-3.6,2.2-5c1.4-1.3,3.3-2,5.5-2c2.4,0,4.5,0.5,6.4,1.5l-1.4,3.6    c-1.9-1-3.5-1.5-4.9-1.5c-1.2,0-2.1,0.3-2.7,0.9c-0.6,0.6-1,1.4-1,2.4c0,1,0.4,1.9,1.2,2.7c0.8,0.8,2.2,1.6,4.1,2.4    c2.1,1,3.6,2.1,4.4,3.3c0.9,1.2,1.3,2.8,1.3,4.8c0,2.1-0.8,3.8-2.3,5.2c-1.5,1.3-3.5,2-5.9,2C350.7,556.8,348.3,556.2,346.4,555z" fill="#4b4b4b"/>
		<path class="st1" d="M369.8,549.9c0.9,0,1.7,0.3,2.3,1c0.7,0.7,1,1.5,1,2.4s-0.3,1.8-1,2.5c-0.6,0.7-1.4,1-2.3,1    c-0.9,0-1.7-0.3-2.3-1c-0.7-0.7-1-1.5-1-2.5s0.3-1.8,1-2.4C368.1,550.3,368.9,549.9,369.8,549.9z" fill="#4b4b4b"/>
		<path class="st1" d="M396.4,534.7c-1.8-0.9-3.6-1.4-5.6-1.4c-2.2,0-4,0.9-5.3,2.8c-1.4,1.9-2,4.3-2,7.4c0,2.9,0.7,5.2,2.1,7    c1.4,1.8,3.1,2.7,5.3,2.7c2.1,0,4.1-0.8,5.9-2.3l1.9,2.9c-2.1,2-4.9,3.1-8.3,3.1c-3.5,0-6.2-1.2-8.3-3.7c-2.1-2.4-3.1-5.7-3.1-9.8    c0-4,1.1-7.2,3.3-9.8s5-3.9,8.3-3.9c2.7,0,5,0.5,6.9,1.5L396.4,534.7z" fill="#4b4b4b"/>
		<path class="st1" d="M410,566.1h-10.3v-3.9h5.8v-36.7h-5.8v-3.9H410V566.1z" fill="#4b4b4b"/>
	</g>
	<g>
		<path class="st1" d="M208.2,344.3c0.4-0.5,1-0.7,1.6-0.7c0.6,0,1.1,0.2,1.6,0.7c0.4,0.5,0.7,1.1,0.7,2v5.7h6.1    c0.3,0,0.5,0,0.8,0.1c0.3,0,0.6,0.2,0.8,0.4c0.2,0.2,0.5,0.5,0.6,0.8s0.3,0.8,0.3,1.4v2.1h3.3c0.7,0,1.3,0.3,1.7,0.8    c0.4,0.5,0.6,1.2,0.6,1.9c0,0.7-0.2,1.4-0.6,1.9c-0.4,0.5-0.9,0.8-1.7,0.8h-1.5v-3.6h-1.8v9.6c0,1-0.2,1.7-0.6,2.1    c-0.4,0.4-1,0.6-1.6,0.6c-0.7,0-1.2-0.2-1.6-0.6s-0.6-1.1-0.6-2.1v-12.6c0-0.4,0-0.8-0.1-1c-0.1-0.2-0.2-0.4-0.4-0.5    c-0.2-0.1-0.5-0.2-0.9-0.2s-0.8,0-1.4,0H212v14.4c0,1-0.2,1.7-0.6,2.1s-1,0.6-1.6,0.6c-0.7,0-1.2-0.2-1.6-0.6s-0.6-1.1-0.6-2.1    v-21.9C207.5,345.4,207.8,344.8,208.2,344.3z" fill="#4b4b4b"/>
		<path class="st1" d="M239.1,370.3c-0.6,0-1.2-0.2-1.6-0.7c-0.4-0.5-0.7-1.1-0.7-2v-14.9c0-0.4,0-0.6,0-0.9c0-0.2-0.1-0.4-0.2-0.5    c-0.1-0.1-0.2-0.2-0.4-0.2c-0.2,0-0.4,0-0.6,0h-3.3v16.5c0,0.8-0.2,1.5-0.7,2c-0.5,0.5-1,0.7-1.6,0.7c-0.6,0-1.1-0.2-1.6-0.7    c-0.4-0.5-0.7-1.1-0.7-2v-15.7c0-0.6,0.1-1.1,0.2-1.5c0.1-0.3,0.3-0.6,0.5-0.8c0.2-0.2,0.3-0.3,0.5-0.3c0.2,0,0.3-0.1,0.3-0.1h3    v-3.1c0-0.8,0.2-1.5,0.7-2c0.5-0.5,1-0.7,1.6-0.7c0.6,0,1.1,0.2,1.6,0.7c0.4,0.5,0.7,1.1,0.7,2v3.1h3c0.1,0,0.2,0,0.3,0.1    c0.2,0,0.3,0.2,0.5,0.3c0.2,0.2,0.3,0.5,0.5,0.8c0.1,0.4,0.2,0.9,0.2,1.6v16.4h2.3v-1.8h1.5c0.7,0.1,1.3,0.4,1.7,0.9    c0.4,0.5,0.6,1.1,0.6,1.8c0,0.7-0.2,1.4-0.6,1.9c-0.4,0.5-0.9,0.8-1.7,0.8h-1.5v-1.8L239.1,370.3z" fill="#4b4b4b"/>
		<path class="st1" d="M276.4,368.9v-1.8h1.5c0.7,0,1.3,0.3,1.7,0.8c0.4,0.5,0.6,1.2,0.6,1.9s-0.2,1.4-0.6,1.9    c-0.4,0.5-0.9,0.8-1.7,0.8h-1.5v-1.8h-4.5c-0.7,0-1.2-0.2-1.6-0.6c-0.4-0.4-0.6-1.1-0.6-2.1v-9.5c0-0.6-0.1-0.9-0.3-1    c-0.2-0.1-0.5-0.2-0.8-0.2h-3.1v10.8c0,1-0.2,1.7-0.6,2.1c-0.4,0.4-1,0.6-1.6,0.6c-0.7,0-1.2-0.2-1.6-0.6    c-0.4-0.4-0.6-1.1-0.6-2.1v-12.6c0-0.5,0.1-0.9,0.3-1.1c0.2-0.3,0.5-0.5,0.9-0.7l3.3-2.7h-4.5v-4.8c0-0.9,0.2-1.5,0.7-2    c0.4-0.5,1-0.7,1.6-0.7c0.6,0,1.1,0.2,1.6,0.7c0.4,0.5,0.7,1.1,0.7,2v2.4c0,0.3,0,0.5,0.1,0.6c0.1,0.1,0.3,0.2,0.6,0.2h1.7    c0.3,0,0.5,0.1,0.6,0.2c0.1,0.1,0.2,0.4,0.2,0.7v0.8l-3.2,2.8v1.7h6c0.4,0,0.7,0,1.1,0.1c0.3,0,0.6,0.1,0.9,0.3    c0.2,0.2,0.4,0.4,0.6,0.8c0.1,0.4,0.2,0.9,0.2,1.5v10.7H276.4z" fill="#4b4b4b"/>
		<path class="st1" d="M292,353.3h0.9c0.4,0,0.8,0,1,0.1s0.5,0.1,0.6,0.2c0.1,0.1,0.2,0.3,0.3,0.5c0,0.2,0.1,0.6,0.1,1v13.1    c0,0.8-0.2,1.5-0.7,1.9c-0.4,0.5-1,0.7-1.6,0.7c-0.6,0-1.2-0.2-1.6-0.7c-0.4-0.5-0.7-1.1-0.7-2v-13h-1.9c-0.5,0-0.8-0.1-0.8-0.3    c-0.1-0.2-0.1-0.5-0.1-0.8v-7.4c0-0.6-0.1-1-0.3-1.1c-0.2-0.1-0.4-0.2-0.8-0.2h-2v3.5c0,0.9-0.2,1.5-0.7,2s-1,0.7-1.6,0.7    c-0.6,0-1.2-0.2-1.6-0.7c-0.4-0.5-0.7-1.1-0.7-2v-2.6c0-0.7,0.1-1.2,0.2-1.6c0.1-0.4,0.3-0.6,0.6-0.8c0.2-0.2,0.6-0.3,0.9-0.3    c0.4,0,0.8,0,1.3,0h6.8c0.3,0,0.6,0,0.8,0.1c0.3,0,0.5,0.1,0.7,0.3c0.2,0.2,0.3,0.4,0.5,0.7c0.1,0.3,0.2,0.7,0.2,1.2V353.3z" fill="#4b4b4b"/>
		<path class="st1" d="M311.2,368.2c0,0.9-0.2,1.5-0.6,2c-0.4,0.5-0.9,0.7-1.5,0.7c-0.6,0-1.2-0.2-1.6-0.6c-0.5-0.4-0.7-1.1-0.7-2.1    v-16c0-0.6-0.1-0.9-0.2-1c-0.1-0.1-0.3-0.1-0.6-0.1h-3v17.1c0,0.8-0.2,1.5-0.7,2c-0.5,0.5-1,0.7-1.6,0.7c-0.6,0-1.1-0.2-1.6-0.7    c-0.4-0.5-0.7-1.1-0.7-2v-16.3c0-0.6,0.1-1.1,0.2-1.5c0.1-0.3,0.3-0.6,0.5-0.8c0.2-0.2,0.3-0.3,0.5-0.3s0.3-0.1,0.3-0.1h3v-3.2    h-1.5v1.4h-1.6c-0.6,0-1-0.2-1.5-0.7c-0.4-0.5-0.6-1-0.6-1.6c0-0.6,0.2-1.1,0.6-1.5c0.4-0.5,0.9-0.7,1.5-0.7h1.6v1.3h6.8V343h1.6    c0.6,0,1,0.2,1.5,0.7c0.4,0.5,0.6,1,0.6,1.5c0,0.6-0.2,1.1-0.6,1.6c-0.4,0.5-0.9,0.7-1.5,0.7h-1.6v-1.4h-1.6v3.2h3.4    c0,0,0.1,0,0.2,0.1c0.1,0.1,0.2,0.2,0.4,0.4c0.1,0.2,0.2,0.5,0.4,0.8c0.1,0.3,0.2,0.8,0.2,1.4v4.5h3c0.7,0,1.3,0.3,1.7,0.8    c0.4,0.5,0.6,1.2,0.6,1.9c0,0.7-0.2,1.4-0.6,1.9s-0.9,0.8-1.7,0.8h-1.5v-3.6h-1.5V368.2z" fill="#4b4b4b"/>
		<path class="st1" d="M323.9,346.2c0-0.8,0.2-1.5,0.7-2c0.5-0.5,1-0.7,1.6-0.7c0.6,0,1.1,0.2,1.6,0.7c0.4,0.5,0.7,1.1,0.7,2v5.4    l-5.2,4.5c-0.2,0.2-0.4,0.4-0.6,0.5c-0.2,0.2-0.3,0.4-0.4,0.6c-0.1,0.2-0.2,0.4-0.3,0.7s-0.1,0.6-0.1,1v7.8c0,0.4,0,0.7,0.1,0.9    s0.2,0.4,0.4,0.6c0.2,0.1,0.6,0.2,1,0.3c0.5,0,1.1,0.1,2,0.1v-7.2c0-0.6,0.1-1,0.2-1.4c0.2-0.3,0.4-0.6,0.7-0.8    c0.3-0.2,0.7-0.3,1.2-0.4c0.5-0.1,1-0.1,1.7-0.1h5.1c0.8,0,1.4,0.1,1.6,0.2s0.4,0.4,0.4,0.9v3.4c0,0.9-0.2,1.6-0.7,2    c-0.5,0.4-1,0.6-1.6,0.6c-0.6,0-1.1-0.2-1.6-0.7c-0.5-0.5-0.7-1.1-0.7-2v-2.7h-1.3c-0.4,0-0.7,0.1-0.8,0.2    c-0.1,0.2-0.2,0.4-0.2,0.7v7.1c0,0.4-0.1,0.7-0.2,1c-0.1,0.2-0.3,0.4-0.5,0.5c-0.2,0.1-0.4,0.2-0.7,0.2c-0.2,0-0.5,0.1-0.7,0.1    h-6.2c-0.6,0-1.1,0-1.6-0.1c-0.5-0.1-0.9-0.2-1.2-0.4c-0.3-0.2-0.5-0.6-0.7-1.1c-0.2-0.5-0.3-1.2-0.3-2v-7.6c0-0.3,0-0.6,0.1-0.8    s0.1-0.5,0.2-0.7c0.1-0.2,0.3-0.4,0.5-0.7c0.2-0.2,0.5-0.5,0.8-0.7l5.1-4.5V346.2z" fill="#4b4b4b"/>
		<path class="st1" d="M349,353.3h0.9c0.4,0,0.8,0,1,0.1c0.3,0,0.5,0.1,0.6,0.2c0.1,0.1,0.2,0.3,0.3,0.5c0,0.2,0.1,0.6,0.1,1v13.1    c0,0.8-0.2,1.5-0.7,1.9c-0.4,0.5-1,0.7-1.6,0.7c-0.6,0-1.2-0.2-1.6-0.7c-0.4-0.5-0.7-1.1-0.7-2v-13h-2c-0.5,0-0.8-0.1-0.8-0.3    c-0.1-0.2-0.1-0.5-0.1-0.8v-7.4c0-0.6-0.1-1-0.3-1.1c-0.2-0.1-0.4-0.2-0.8-0.2h-2v3.5c0,0.9-0.2,1.5-0.7,2c-0.5,0.5-1,0.7-1.6,0.7    c-0.6,0-1.2-0.2-1.6-0.7s-0.7-1.1-0.7-2v-2.6c0-0.7,0.1-1.2,0.2-1.6s0.3-0.6,0.6-0.8c0.2-0.2,0.6-0.3,0.9-0.3c0.4,0,0.8,0,1.4,0    h6.8c0.3,0,0.6,0,0.8,0.1c0.3,0,0.5,0.1,0.7,0.3c0.2,0.2,0.3,0.4,0.5,0.7s0.2,0.7,0.2,1.2V353.3z" fill="#4b4b4b"/>
		<path class="st1" d="M357.7,345.3c0-0.7,0.2-1.2,0.6-1.5c0.4-0.3,0.9-0.6,1.7-0.8c0.8,0,1.3,0.5,1.7,1.5l2,4.8h3    c0.1,0,0.2,0,0.3,0.1c0.2,0,0.3,0.2,0.5,0.3c0.2,0.2,0.3,0.5,0.5,0.8c0.1,0.4,0.2,0.9,0.2,1.6v16.1c0,0.8-0.2,1.5-0.7,1.9    c-0.4,0.5-1,0.7-1.6,0.7c-0.6,0-1.2-0.2-1.6-0.7c-0.5-0.5-0.7-1.1-0.7-2v-15.6c0-0.7-0.1-1.2-0.3-1.3c-0.2-0.1-0.5-0.2-0.9-0.2    h-3.3v17.1c0,0.8-0.2,1.5-0.7,2c-0.5,0.5-1,0.7-1.6,0.7c-0.6,0-1.1-0.2-1.6-0.7c-0.4-0.5-0.7-1.1-0.7-2v-16.3    c0-0.6,0.1-1.1,0.2-1.5c0.1-0.3,0.3-0.6,0.5-0.8c0.2-0.2,0.3-0.3,0.5-0.3c0.2,0,0.3-0.1,0.3-0.1h3L357.7,345.3z" fill="#4b4b4b"/>
		<path class="st1" d="M396.7,346.1v3.2h-3.6v21.1h3.6v3.1h-6.2v-27.5H396.7z" fill="#4b4b4b"/>
		<path class="st1" d="M414.4,368.1c0,1-0.2,1.7-0.6,2.1c-0.4,0.4-1,0.6-1.6,0.6c-0.7,0-1.2-0.2-1.6-0.6c-0.4-0.4-0.6-1.1-0.6-2.1    v-9.6c0-0.6-0.1-0.9-0.3-1c-0.2-0.1-0.5-0.2-0.8-0.2h-3.1v10.8c0,1-0.2,1.7-0.6,2.1c-0.4,0.4-1,0.6-1.6,0.6    c-0.7,0-1.2-0.2-1.6-0.6c-0.4-0.4-0.6-1.1-0.6-2.1v-12.6c0-0.5,0.1-0.9,0.3-1.1c0.2-0.3,0.5-0.5,0.9-0.7l3.3-2.7h-4.5v-4.8    c0-0.9,0.2-1.5,0.7-2c0.4-0.5,1-0.7,1.6-0.7s1.1,0.2,1.6,0.7c0.4,0.5,0.7,1.1,0.7,2v2.4c0,0.3,0,0.5,0.1,0.6    c0.1,0.1,0.3,0.2,0.6,0.2h1.7c0.3,0,0.5,0.1,0.6,0.2c0.1,0.1,0.2,0.4,0.2,0.7v0.8l-3.2,2.8v1.7h6c0.4,0,0.7,0,1.1,0.1    c0.3,0,0.6,0.1,0.9,0.3c0.2,0.2,0.4,0.4,0.6,0.8c0.1,0.4,0.2,0.9,0.2,1.5V368.1z" fill="#4b4b4b"/>
		<path class="st1" d="M425.9,364.9c0.3,0.1,0.6,0.3,0.9,0.6c0.3,0.3,0.5,0.6,0.7,1c0.2,0.4,0.3,0.8,0.3,1.3c0,0.5-0.1,0.9-0.2,1.3    c-0.2,0.4-0.4,0.7-0.6,1c-0.3,0.3-0.6,0.5-0.9,0.6s-0.7,0.2-1,0.2s-0.7-0.1-1-0.2c-0.3-0.1-0.6-0.3-0.9-0.6    c-0.3-0.3-0.5-0.6-0.7-1c-0.2-0.4-0.3-0.8-0.3-1.3c0-0.5,0.1-0.9,0.3-1.3c0.2-0.4,0.4-0.7,0.7-1c0.3-0.3,0.6-0.5,0.9-0.6    s0.7-0.2,1-0.2C425.3,364.7,425.6,364.8,425.9,364.9z" fill="#4b4b4b"/>
		<path class="st1" d="M458.9,343.6c0.3,0,0.7,0.2,1,0.4c0.3,0.2,0.6,0.6,0.8,1.1c0.2,0.5,0.3,1.2,0.3,2.1v20.4c0,0.8-0.2,1.5-0.7,2    c-0.4,0.5-1,0.7-1.6,0.7c-0.6,0-1.1-0.2-1.6-0.7c-0.4-0.5-0.7-1.1-0.7-2V358h-3.8c-0.8,0-1.4-0.1-1.9-0.2s-0.9-0.3-1.1-0.6    c-0.3-0.3-0.4-0.6-0.5-1.1c-0.1-0.5-0.1-1.1-0.1-1.8v-6.5c0-1.1-0.1-1.8-0.2-2.1c-0.1-0.4-0.4-0.6-0.9-0.6c-0.5,0-0.8,0.2-1,0.6    c-0.1,0.4-0.2,1.1-0.2,2.1v6.5c0,1.3-0.4,2.2-1.1,2.8c-0.7,0.6-1.9,0.8-3.4,0.8H438c-1,0-1.8-0.3-2.4-1c-0.6-0.7-0.9-1.5-0.9-2.6    v-7.2c0-0.8,0.1-1.5,0.3-2c0.2-0.5,0.4-0.8,0.7-1.1c0.3-0.2,0.7-0.4,1.1-0.5c0.4-0.1,0.8-0.1,1.3-0.1h19.9    C458.2,343.6,458.5,343.6,458.9,343.6z M439.2,356.4c0.6,0,1,0,1.4-0.1c0.4-0.1,0.7-0.2,0.9-0.4c0.2-0.2,0.4-0.5,0.5-0.9    c0.1-0.4,0.1-1,0.1-1.7v-8.1c-0.6,0-1.2,0-1.6,0.1c-0.4,0-0.7,0.2-0.9,0.3c-0.2,0.2-0.4,0.4-0.4,0.8c-0.1,0.3-0.1,0.8-0.1,1.4    V356.4z M456.4,356.4v-8.7c0-0.6,0-1.1-0.1-1.4c-0.1-0.3-0.2-0.6-0.4-0.8c-0.2-0.2-0.5-0.3-0.9-0.3c-0.4,0-0.9-0.1-1.6-0.1v8.4    c0,1,0.1,1.8,0.3,2.2c0.2,0.5,0.7,0.7,1.5,0.7H456.4z" fill="#4b4b4b"/>
		<path class="st1" d="M465.6,373.6v-3.1h3.6v-21.1h-3.6v-3.2h6.2v27.5H465.6z" fill="#4b4b4b"/>
	</g>
</g>
</svg>