<svg xmlns="http://www.w3.org/2000/svg" xmlns:xlink="http://www.w3.org/1999/xlink" version="1.1" id="Layer_1" x="0px" y="0px" viewBox="0 0 595.3 841.9" style="enable-background:new 0 0 595.3 841.9;" xml:space="preserve">
<style type="text/css">
	.st0{fill:#4b4b4b;}
</style>
<g>
	<path class="st0" d="M70.7,351.9c4.8,0.5,9.2,1.2,13.2,2c4,0.8,7.4,1.8,10.3,2.9c2.9,1.1,4.9,2.3,6.1,3.5c1.4-3.6,3.9-6.4,7.8-8.3   c3.8-1.9,7.3-2.9,10.3-2.9c4.4,0,8.9,0.3,13.5,0.8c4.6,0.5,8.8,1.8,12.6,3.7c3.8,1.9,7,4.8,9.4,8.6c2.5,3.8,3.7,8.9,3.7,15.2v68.3   c0,9.4,1.2,16.1,3.7,19.9c2.5,3.8,6.4,5.7,11.8,5.7c6.1,0,10.4-1.9,12.7-5.6c2.4-3.7,3.6-10.4,3.6-20v-53.9   c0-7.1-0.4-12.9-1.3-17.4c-0.9-4.5-2-8.1-3.4-10.8c-1.4-2.6-3.1-4.4-5.1-5.4c-2-1-4.1-1.5-6.5-1.5c-4.6,0-8.5,2.5-11.7,7.6l-2.3-6   c4.1-5.6,12-8.4,23.7-8.4c4.7,0,9.5,0.4,14.1,1.2c4.7,0.8,8.8,2.7,12.3,5.7c3.6,3,6.4,7.4,8.7,13.3c2.2,5.9,3.3,13.8,3.3,23.8v50.1   c0,5.1-0.8,9.6-2.4,13.6c-1.6,4-4.2,7.4-7.9,10.2c-3.7,2.8-8.6,4.9-14.8,6.4c-6.2,1.5-13.9,2.2-23,2.2c-10.7,0-19.2-0.7-25.5-2.2   c-6.3-1.5-11-3.6-14.1-6.4c-3.1-2.8-5.2-6.2-6.1-10.2c-0.9-4-1.4-8.5-1.4-13.6v-52.3c0-7.1-0.1-12.9-0.4-17.6   c-0.3-4.6-0.9-8.3-1.9-11.2c-1-2.8-2.4-4.8-4.2-6c-1.8-1.2-4.2-1.8-7.3-1.8c-2,0-4.5,1.6-7.4,4.9c-2.9,3.3-4.3,8-4.3,14.2v76.8   c0,4.9-1.4,9.3-4.1,13.1c-2.7,3.8-6.3,7-10.7,9.7c-4.4,2.6-9.3,4.6-14.8,6c-5.4,1.4-10.9,2-16.3,2c-6.5,0-12.6-0.2-18.6-0.7   c-5.9-0.5-11.2-1.6-15.8-3.5c-4.6-1.9-8.2-4.8-10.9-8.6c-2.7-3.8-4.1-9.2-4.1-16.1v-61.3c0-7.3,1.9-13.5,5.6-18.6   c3.7-5.2,8.3-9.4,13.6-12.7c5.3-3.3,10.9-5.7,16.7-7.2c5.8-1.5,10.7-2.3,14.8-2.3C61,351.1,65.8,351.4,70.7,351.9z M69,372.6   c0-5.6-0.6-9.8-1.9-12.5c-1.3-2.7-5-4.1-11.1-4.1c-2.5,0-5,0.7-7.3,2.2c-2.3,1.5-4.3,3.3-6,5.6c-1.7,2.3-3.1,4.7-4.1,7.4   c-1,2.6-1.5,5.1-1.5,7.5v69.7c0,9.4,1.4,16.5,4.1,21.1c2.7,4.6,7.2,6.9,13.5,6.9c4.2,0,7.7-2.3,10.3-6.9c2.6-4.6,3.9-11.7,3.9-21.1   V372.6z" fill="#4b4b4b"/>
	<path class="st0" d="M198,338.2c0-3.6,0.6-6.1,1.8-7.5c1.2-1.4,3.5-2,6.9-2c4.6,0,19.8-1,23.2-1.2c5.9-0.3,24.2-1.9,29.1-1.8   c2.5,0,12-1.6,14.9-1.6c24.2,0,10.5,1,13.1,2.9c2.6,1.9,3.9,6.7,3.9,14.3c0,2.7-0.9,5.9-2.8,9.7c-1.9,3.7-3.9,7.5-6.1,11.3   c-2.2,3.8-4.2,7.5-6.1,11.2c-1.9,3.6-2.8,6.6-2.8,9c0,3.1,0.6,5.3,1.9,6.7c1.3,1.4,3.5,2,6.7,2l19.9-3.5c3.7,0,6.2,1.3,7.4,3.9   c1.2,2.6,1.8,5.4,1.8,8.3V483c0,6.9-1.1,12.1-3.4,15.7c-2.3,3.5-6,5.3-11.1,5.3c-5.4,0-9.6-1.5-12.6-4.4c-3-2.9-4.5-8.4-4.5-16.6   v-76.2c0-4.2-0.2-6.9-0.6-8.2c-0.4-1.3-1.4-1.9-2.9-1.9l-17.1,3c-5.8,0-9.7-1-11.7-3c-2-2-3.1-5.3-3.1-9.8c0-2.4,0.8-5.6,2.5-9.7   c1.7-4.1,3.6-8.6,5.7-13.5c2.1-4.9,4-10.1,5.7-15.6c1.7-5.5,2.5-11.1,2.5-16.7c-1.9-2-30.2,0.6-30.5,1.9v14.4   c0,4.5-1.4,8.3-4.1,11.3c-2.7,3-6.6,4.5-11.7,4.5c-4.9,0-8.8-1.6-11.7-4.8c-2.9-3.2-4.3-6.8-4.3-11V338.2z" fill="#4b4b4b"/>
	<path class="st0" d="M316.8,328.3V345c0,10.6-5.2,15.9-15.6,15.9c-4.7,0-8.5-1.2-11.4-3.6c-2.9-2.4-4.4-6.4-4.4-12V328   c0-2.7,1.4-4,4.3-4h86.8c3.2,0,5.2,1.1,6,3.2c0.8,2.2,1.3,7,1.3,14.5v142.5c0,13.8-5.1,20.7-15.3,20.7c-5.2,0-9.2-1.4-11.9-4.3   c-2.8-2.9-4.1-8.3-4.1-16.4V328.3H316.8z" fill="#4b4b4b"/>
	<path class="st0" d="M550.7,360.3h41v18.5c0,4.9-1.4,8.5-4.2,10.7c-2.8,2.2-6.6,3.3-11.5,3.3s-8.8-1.1-11.6-3.4   c-2.9-2.3-4.3-5.9-4.3-10.8v-14.7h-12.4c-5.5,0-9.9,0.3-13.2,0.8c-3.3,0.6-5.9,1.7-7.8,3.3c-1.8,1.7-3.1,4.1-3.8,7.2   c-0.7,3.2-1,7.3-1,12.3V411c0,4.6,0.2,8.3,0.7,11.3c0.4,2.9,1.2,5.2,2.2,6.9c1,1.7,2.4,2.8,4.2,3.6s4,1.1,6.6,1.1h27.7   c3.4,0,6,0.5,7.9,1.4c1.8,0.9,2.8,3.2,2.8,6.9v44.8c0,7-1.1,11.5-3.3,13.7c-2.2,2.2-5.5,3.3-10,3.3c-4.7,0-8.3-1.3-10.6-3.8   c-2.4-2.5-3.5-7.1-3.5-13.7V447c0-4.7-2.4-7.1-7.1-7.1h-29.3c-5.6,0-9.7-1.8-12.3-5.3c-2.6-3.6-3.9-9.6-3.9-18.1v-19.2   c0-7.4,0.4-13.5,1.3-18.2c0.9-4.7,2.5-8.5,5-11.3c2.4-2.8,5.9-4.7,10.4-5.7c4.5-1,10.4-1.5,17.6-1.5v-13.3H494v-14   c0-3.6,1.2-6.7,3.7-9.1c2.4-2.4,5.8-3.7,10.1-3.7c4.1,0,7.7,1.3,10.8,3.8c3,2.5,4.5,5.6,4.5,9.2v8.3h39.2v-8.3   c0-3.5,1.3-6.5,3.8-9.1c2.5-2.6,5.8-3.9,10-3.9c4.3,0,7.6,1.3,10.1,3.9s3.7,5.6,3.7,8.9v14h-39V360.3z" fill="#4b4b4b"/>
</g>
<g>
	<path class="st0" d="M502,475.3c0-1.3-0.2-7.9-0.3-10.3c0-1-0.1-2-0.2-3.1c-11.2,0-25.1-0.1-35.9,0c-13.9,0.1-24.1-6.1-30.6-18.2   c-0.8-1.5-2.2-2.5-3.9-2.7c-8.8-1.1-16.6-4.8-23.8-9.7c-2.8-1.9-5.5-4.1-8.2-6.2c0.8,4.7,1.9,9.3,3.4,13.8   c2.1,6.1,6.6,10.6,11.2,15c2.7,2.6,2.1,4.4-2.4,7.8c-1.7,1.3-3.6,2.4-5.5,3.3c-6.7,3.1-13.8,4.8-21,6l-5.8,30.9l3,1.4   c4.8,2.4,9.6,5.1,15.3,5.2c11.3,0.1,19-4,17.8-18.4c-0.1-1.3-0.2-2.7-0.2-4c-0.1-0.4-0.1-0.7-0.1-1.1c0-0.7,0.1-1.4,0.1-2.1   c-0.2-0.7-0.3-1.4-0.3-2.1c-0.1-0.3-0.3-0.6-0.4-0.9c-0.4-0.9-0.7-1.8-0.9-2.7c-0.2-0.8-0.3-1.6-0.4-2.4c-0.3-0.6-0.5-1.3-0.5-2.1   c-0.1-0.2-0.1-0.4-0.2-0.6c-0.2-0.8-0.3-1.7-0.1-2.4c-0.1-1.3,0.2-2.4,1.6-3.1c1.1-1.2,2.5-2.2,3.9-3c0,0,0,0,0,0   c0.1-0.1,0.1-0.1,0.2-0.2c0.4-0.4,0.8-0.7,1.3-0.9c0.1-0.1,0.1-0.1,0.2-0.2c0.8-0.8,2.1-0.8,3-0.1c0,0,0.1,0.1,0.1,0.1   c0.2,0.1,0.3,0.1,0.5,0.2c0.3,0.1,0.6,0.2,1,0.3c0.8,0.4,1.7,0.8,2.6,1.2c5.9,1.2,11.8,2.5,17.8,3.5c0.3,0,0.6,0.1,0.9,0.2   c0.1,0,0.1,0,0.2,0c3.1,0,6.1,0.4,9.1,0.7c0.2,0,0.4-0.1,0.6-0.1c0.3,0,0.7,0,1,0.1c0.7-0.1,1.4-0.2,2.1-0.2c0.4,0,0.7,0.1,1.1,0.1   h6.1c0,0.7,0.1,1.2,0.1,1.7c0.1,7,0.1,13.9,0.2,20.9c0.1,4.3,0.6,8.7,4.4,11.2c6.2,3.9,12.7,7.4,20.7,6.4c6.2-0.8,10.6-4.5,11-10.7   C502.1,490.2,502,482.8,502,475.3z" fill="#4b4b4b"/>
	<path class="st0" d="M494.5,344.8c0.5-0.3,0.9-0.5,1-0.6c0.6,0,1.3,0.1,2,0.1c-1.8-4.2-3.2-8.5-2.8-7.3c-0.1-0.3-0.2-0.5-0.2-0.8   c-0.1-0.4-0.3-2.2-0.6-4.4c-0.6-0.9-1.1-1.7-1.6-2.6c-0.3-0.5-0.5-1-0.7-1.5c-0.5-0.9-1-2-1.5-3.2c-0.2-0.2-0.4-0.3-0.5-0.4   c-6.7-6.2-14.5-10.6-22.9-14c-9.6-3.9-20.6-3-25.7,7.9c-0.4,0.8-1.1,1.8-1.9,2c-1.3,0.3-2.7,0-4.1,0c0.1-1.2-0.2-2.5,0.3-3.5   c2.1-4.3,5.1-7.8,9.6-9.9c-0.7-0.1-1.4,0-2,0.2c-4.4,1.2-7.5,4.2-9.8,8c-0.7,1.2-1.1,2.7-2.1,3.4c-1.1,0.7-2.7,0.6-4.1,0.9   c0.1-1.1-0.3-2.5,0.2-3.4c2-3.1,4.3-6.1,6.2-8.8c-2.5,0.7-4.6,2.7-6.4,5.2c-1.3,1.9-2.5,3.9-4,5.6c-0.6,0.7-2,0.6-3.1,0.8   c-0.1-1-0.6-2.3-0.2-3.1c1.4-2.5,3.2-4.9,5.1-7.6c-3,1.4-4.8,3.7-6.4,6.2c-0.8,1.3-1.9,2.6-3,3.6c-0.4,0.4-1.5,0-2.3,0   c0.1-0.7,0.2-1.4,0.3-2.1c0.2-0.6,0.5-1.1,0.8-1.7c-0.1-0.1-0.2-0.1-0.4-0.2c-2,2.9-3.9,5.8-6.1,9c4.8,0.9,9.2,1.6,13.6,2.4   c9.7,1.8,19.7,2,28.8,6.9c0.1,0.6,0.2,1.5,0.3,2c1.3-0.6,2.7-1.8,3.8-1.6c5.9,1,11.8,2.3,17.7,3.5c1.8,0.4,2.1,1.5,1.6,3   c-0.7,1.9-2.1,1.8-3.8,1.5c-20.6-3.6-41.1-7.1-61.7-10.6c-2.8-0.5-3.4,0.1-3.2,3.2c14.4,2.5,28.8,4.9,43.4,7.4   c-0.3,1.8-0.6,3.4-0.9,5.1c0.3,0.1,0.5,0.2,0.8,0.3c0.6-1.6,1.2-3.2,1.9-5.1c6.9,1.3,13.8,2.7,20.7,4c2.5,0.5,2.1,2.6,1.9,4.3   c-0.2,1.8-1.3,2.6-3.3,2.3c-16-2.8-32.1-5.5-48.1-8.3c-6.2-1.1-12.3-2.4-18.6-3.7c-0.3,1.3-0.6,2.3-0.9,3.6c14.8,3,29.3,6,43.7,9   c-0.2,1.8-0.4,3.2-0.5,4.6c0.3,0.1,0.6,0.1,0.9,0.2c0.5-1.4,1-2.9,1.6-4.4c7.1,1,14.1,2.1,21.1,3c2.5,0.3,3,1.7,2.9,3.9   c-0.2,2.2-1.4,3.2-3.6,3c-1.4-0.1-2.7,0-4.1-0.2c-15.5-2.7-31.1-5.4-46.6-8.3c-5.7-1.1-11.3-2.7-17-4.1c-1.3,2.8-1.2,3.2,1.6,3.9   c8.7,2.3,17.4,4.6,26.1,6.8c5,1.2,10,2.3,15,3.4c-0.1,1.7-0.3,3.2-0.4,4.7c0.3,0.1,0.5,0.1,0.8,0.2c0.3-1,0.7-1.9,0.9-2.9   c0.3-1.4,0.9-1.8,2.3-1.6c6.7,0.8,13.3,1.6,20,2.4c3,0.3,3.5,1,3,3.9c-0.5,2.8-1.1,3.3-3.9,3c-1.4-0.1-2.7-0.2-4.1-0.3   c-10.4-1.4-20.9-2.3-31.2-4.4c-10.9-2.2-21.5-5.6-32.3-8.5c-1.2,2.2-1.1,3,1.5,3.8c8.1,2.6,16.3,5.3,24.5,7.6   c5.4,1.5,11,2.6,16.7,3.9c-0.1,1.7-0.2,3.2-0.3,4.8c0.3,0.1,0.5,0.1,0.8,0.2c0.4-1.5,0.9-3,1.4-4.7c1.9,0.2,3.9,0.4,5.8,0.5   c5.5,0.4,11,0.6,16.5,1.1c1,0.1,2.5,1,2.7,1.9c0.8,3.1-0.8,5.1-3.9,5.2c-13.3,0.5-26.4-1.3-39.2-5c-9.5-2.8-18.9-6.1-28.4-9.2   c-1.3,2.2-0.2,3.5,2,4.3c9,3.2,18,6.4,27.1,9.4c4.5,1.5,9.1,2.4,13.6,3.5c-0.1,1.7-0.2,3-0.3,4.4l0.7,0.1c0.5-1.4,0.9-2.9,1.3-4.1   c7.9,0.2,15.5,0.4,23.1,0.7c0.7,0,1.8,0.4,2.1,0.9c1.2,1.9-1,6-3.3,6c-6.9,0-13.8,0.3-20.6-0.3c-12.2-1.2-23.8-5.3-35.2-9.7   c-4.1-1.6-8.1-3.2-12.2-4.8c-0.9,2.5,0.1,3.9,2.2,4.7c7.8,3.1,15.5,6.5,23.4,9.3c5.5,1.9,11.2,3.1,16.9,4.6v4.2   c0.6-0.5,1-1.1,1-1.6c-0.1-2.6,1.4-2.6,3.3-2.4c2.2,0.2,4.4,0.4,6.6,0.4c4.3-0.1,8.7-0.2,13-0.4c2-0.1,2.8,0.6,2.6,2.7   c-0.3,3.3-1.5,4.2-5.7,4.8c-15.9,1.9-30.9-1.1-45.5-7.2c-6.4-2.7-12.6-5.6-19-8.4c-0.7,2.2,0,3.8,2,4.7c8,3.5,15.9,7.3,24,10.5   c5.2,2,10.7,3.3,16,4.9c0.1,1.3,0.1,2.5,0.2,3.7c0.2,0,0.4,0,0.6,0.1c0.3-1.3,0.6-2.5,0.9-3.9c3.7,0,7.3,0.1,11,0   c3.6-0.1,7.3-0.4,10.9-0.7c1.8-0.1,2.2,0.7,2,2.3c-0.4,3-1.6,4.4-4.4,4.7c-4,0.5-7.9,0.9-11.9,1.1c-12.2,0.6-23.4-3.2-34.3-8.2   c-5.9-2.7-11.7-5.7-17.7-8.6c0.5,3.5,1.1,7,1.8,11.2c1.5-2.5,2.5-2,3.1-0.4c0.7,1.7,1.2,3.5,1.8,5.3c0.7,2,1.3,3.9,1.9,5.9l0.7-0.2   c-0.5-1.9-1-3.9-1.3-5.8c-0.1-1,0.4-2,0.6-3c0.9,0.6,2,1.1,2.8,1.8c0.4,0.4,0.6,1.2,0.7,1.9c0.7,2.4,1.3,4.9,2.2,7.3   c0.6,1.6,1.7,3,2.5,4.4c0.2-0.1,0.4-0.2,0.6-0.3c-0.5-3.6-3.3-6.8-2.3-10.8c2.3,0.4,3.9,1.9,4.6,4.4c0.6,1.9,1,4,1.6,5.9   c0.9,2.7,2.5,4.3,4.8,5c-2.3-3.3-3.4-6.8-3.1-10.9c3.3,1.2,5.7,2.6,6.3,6.4c0.8,5,4.1,7.9,9.9,9c-4-3-6.3-6.1-6-10.1   c2.2,0.2,4,0.4,5.9,0.7c1.1,0.2,2.8,0.3,3.2,1c3.5,6.5,10.1,7.7,16.2,9c5.1,1.2,10-1,14.7-3.1c5.5-2.5,10.7-5.2,14.8-9.7   c2.3-2.6,2.1-4-0.4-6.2c1.7-2.8,3.4-5.7,5.4-9.1c-3.5,0.8-6.3,1.5-9.3,2.2c0.3-1.3,0.6-2.1,0.6-2.9c0-2.4,1.4-3.3,3.6-3.6   c2-0.3,4-0.9,5.8-1.7c0.9-0.4,1.6-1.6,2.3-2.4c-0.2-0.2-0.3-0.4-0.5-0.5c-3.1,0.4-6.3,0.9-9.5,1.4c0.4-5.7,2-7.2,7.1-6.7   c-0.2,1.2-0.4,2.3-0.6,3.5c0.3,0.1,0.7,0.2,1,0.3c0.5-1.4,1-2.9,1.3-3.8c1.3-1.1,2.4-2.1,3.5-3.1c-0.2-0.3-0.3-0.6-0.5-0.8   c-2.6,0.2-5.2,0.5-7.8,0.6c-0.7,0-1.7-0.1-2-0.6c-0.9-1.3,1.2-5.2,2.8-5.4c1.9-0.2,3.9-0.5,5.8-0.6c2.2-0.2,3.4-1.1,3.3-3.4h-10.4   c0.2-1.2,0.5-2.1,0.5-3c0-2,0.8-2.9,2.9-2.7c2,0.1,4.1-0.1,6.1-0.2c1.9-0.1,2.7-1.1,2.2-3c-0.2-0.1-0.4-0.2-0.5-0.2   c-1.6-0.1-3.2,0-4.8-0.2c-1.5-0.1-3.1-0.2-4.4-0.8c-0.3-0.2,0.4-2.3,0.4-3.5c-0.1-1.7,0.8-1.8,2-1.8c2.3,0.1,4.6,0.2,6.9,0   c0.7-0.1,1.4-1,2.1-1.5c-0.6-0.6-1.2-1.5-1.9-1.6c-1.8-0.4-3.7-0.4-5.6-0.6c-1.4-0.1-3.1,0.1-2.6-2.3c0.4-1.9-0.2-4.3,3.2-3.7   c2.5,0.4,5,0.4,7.7,0.7v-3.1c-2.7-0.5-5.4-0.9-8-1.4c-1.4-0.2-2-0.8-1.7-2.4c0.6-3.9,0.5-3.9,4.2-3.2c0.8,0.1,1.6,0.4,2.4,0.6   c-0.1,1.4-0.3,2.7-0.3,3.9c0,0.5,0.5,1,0.8,1.5c0.4-0.5,0.9-0.9,1-1.4c0.2-1.1,0.2-2.3,0.2-2.8c1-1,2.1-1.7,2-2.1   c-0.1-0.8-1-1.6-1.6-2.3C495.2,345.4,494.8,345.1,494.5,344.8z M488,344.1c3.1-2.5,4.8-1.2,6.3,0.7   C492.4,344.6,490.5,344.4,488,344.1z" fill="#4b4b4b"/>
	<path class="st0" d="M411.3,324.5c-0.5,1.3-0.9,2.7-1.6,3.9c-0.2,0.4-0.9,0.4-1.4,0.6c-0.1-0.4-0.2-0.9-0.1-1.3   c0.3-1,0.6-2,1.1-2.8c0.3-0.4,1-0.6,1.5-0.9C411,324.2,411.1,324.3,411.3,324.5z" fill="#4b4b4b"/>
	<path class="st0" d="M492.3,363.5c0-0.7-0.1-1.3,0-1.8c0.2-1,0.6-1.9,1-2.8c0.3,0.4,0.9,0.8,0.9,1.2   C494.1,361.4,494.8,363.2,492.3,363.5z" fill="#4b4b4b"/>
	<path class="st0" d="M490.9,372.8c0.2-1.5,0.4-2.8,0.6-4c0.1-0.3,0.5-0.6,0.9-0.7c0.2,0,0.6,0.4,0.6,0.6   C493.1,370.3,493.6,372.1,490.9,372.8z" fill="#4b4b4b"/>
	<path class="st0" d="M404.4,344.2c-0.4,1.6-0.8,3.2-1.2,5C401.9,347.4,402.2,345.8,404.4,344.2z" fill="#4b4b4b"/>
	<path class="st0" d="M404.7,338.6c0.6-1.6,1.2-3.2,1.8-4.8c0.3,0.1,0.7,0.3,1,0.4c-0.6,1.7-1.2,3.3-1.9,5   C405.3,339,405,338.8,404.7,338.6z" fill="#4b4b4b"/>
	<path class="st0" d="M489.2,381.4c0.4-1.3,0.9-2.5,1.6-4.4C491.9,380,491.8,380.5,489.2,381.4z" fill="#4b4b4b"/>
	<path class="st0" d="M396.7,379.3c0.1-1.4,0.1-2.8,0.2-4.2c0.3,0,0.6,0,0.9,0c0,1.4,0,2.8,0,4.2   C397.4,379.3,397.1,379.3,396.7,379.3z" fill="#4b4b4b"/>
</g>
</svg>