<svg xmlns="http://www.w3.org/2000/svg" xmlns:xlink="http://www.w3.org/1999/xlink" version="1.1" id="Layer_1" x="0px" y="0px" viewBox="0 0 595.3 841.9" style="enable-background:new 0 0 595.3 841.9;" xml:space="preserve">
<style type="text/css">
	.st0{fill:#4b4b4b;}
</style>
<path class="st0" d="M55,223.2c0,0,205-90,485-8L304.8,92.4c-2.6-1.4-5.7-1.3-8.3,0.1L55,223.2z" fill="#4b4b4b"/>
<circle class="st0" cx="195" cy="274.2" r="19" fill="#4b4b4b"/>
<circle class="st0" cx="226.7" cy="285.5" r="15.3" fill="#4b4b4b"/>
<circle class="st0" cx="258.2" cy="296.1" r="19.6" fill="#4b4b4b"/>
<circle class="st0" cx="291.6" cy="306.6" r="15.5" fill="#4b4b4b"/>
<circle class="st0" cx="320.5" cy="315.6" r="15.5" fill="#4b4b4b"/>
<circle class="st0" cx="311.1" cy="347.2" r="13.6" fill="#4b4b4b"/>
<circle class="st0" cx="269.6" cy="263.7" r="19" fill="#4b4b4b"/>
<circle class="st0" cx="238.6" cy="252.5" r="16.3" fill="#4b4b4b"/>
<circle class="st0" cx="207.4" cy="244.7" r="14.5" fill="#4b4b4b"/>
<circle class="st0" cx="226.7" cy="227.8" r="8.4" fill="#4b4b4b"/>
<circle class="st0" cx="165" cy="263.7" r="11" fill="#4b4b4b"/>
<circle class="st0" cx="183.3" cy="245.3" r="7.3" fill="#4b4b4b"/>
<circle class="st0" cx="255.4" cy="238.6" r="4.9" fill="#4b4b4b"/>
<circle class="st0" cx="290.6" cy="239.6" r="6.9" fill="#4b4b4b"/>
<circle class="st0" cx="303.6" cy="273.6" r="21.1" fill="#4b4b4b"/>
<circle class="st0" cx="335" cy="282.7" r="22.1" fill="#4b4b4b"/>
<circle class="st0" cx="369.4" cy="291.1" r="20.4" fill="#4b4b4b"/>
<circle class="st0" cx="353.4" cy="325.2" r="20.4" fill="#4b4b4b"/>
<circle class="st0" cx="342.5" cy="357" r="20.4" fill="#4b4b4b"/>
<circle class="st0" cx="333" cy="390.7" r="20.4" fill="#4b4b4b"/>
<circle class="st0" cx="322.1" cy="423.1" r="18.3" fill="#4b4b4b"/>
<circle class="st0" cx="312.9" cy="452" r="15.1" fill="#4b4b4b"/>
<circle class="st0" cx="305" cy="483.6" r="12.5" fill="#4b4b4b"/>
<circle class="st0" cx="294.8" cy="515.6" r="10.8" fill="#4b4b4b"/>
<circle class="st0" cx="271.9" cy="369.1" r="5.4" fill="#4b4b4b"/>
<circle class="st0" cx="259.9" cy="401.1" r="11.4" fill="#4b4b4b"/>
<circle class="st0" cx="250.6" cy="431.7" r="15.8" fill="#4b4b4b"/>
<circle class="st0" cx="303.6" cy="376.6" r="15.8" fill="#4b4b4b"/>
<circle class="st0" cx="290.6" cy="406.8" r="18.2" fill="#4b4b4b"/>
<circle class="st0" cx="279.9" cy="441.4" r="24.8" fill="#4b4b4b"/>
<circle class="st0" cx="266.9" cy="476.2" r="19.8" fill="#4b4b4b"/>
<circle class="st0" cx="259.9" cy="504.8" r="17.2" fill="#4b4b4b"/>
<circle class="st0" cx="225.6" cy="495.7" r="20.7" fill="#4b4b4b"/>
<circle class="st0" cx="242.1" cy="462" r="15.6" fill="#4b4b4b"/>
<circle class="st0" cx="214" cy="466.1" r="10.4" fill="#4b4b4b"/>
<circle class="st0" cx="197.8" cy="485.5" r="11.9" fill="#4b4b4b"/>
<circle class="st0" cx="182.4" cy="515.6" r="18.9" fill="#4b4b4b"/>
<circle class="st0" cx="216.9" cy="527.3" r="18.9" fill="#4b4b4b"/>
<circle class="st0" cx="248.8" cy="536.5" r="18.9" fill="#4b4b4b"/>
<circle class="st0" cx="277.8" cy="547.8" r="16.1" fill="#4b4b4b"/>
<circle class="st0" cx="311.1" cy="557.7" r="23.5" fill="#4b4b4b"/>
<circle class="st0" cx="348.2" cy="569" r="17.6" fill="#4b4b4b"/>
<circle class="st0" cx="382.6" cy="579.9" r="19.1" fill="#4b4b4b"/>
<circle class="st0" cx="411" cy="592.1" r="15" fill="#4b4b4b"/>
<circle class="st0" cx="416.6" cy="557.7" r="19.5" fill="#4b4b4b"/>
<circle class="st0" cx="355.4" cy="536.5" r="17.3" fill="#4b4b4b"/>
<circle class="st0" cx="325.5" cy="527.3" r="12.6" fill="#4b4b4b"/>
<circle class="st0" cx="387.3" cy="545.2" r="10.7" fill="#4b4b4b"/>
<circle class="st0" cx="451.6" cy="568" r="10.7" fill="#4b4b4b"/>
<circle class="st0" cx="438.1" cy="586.4" r="8.4" fill="#4b4b4b"/>
<circle class="st0" cx="257.5" cy="599" r="10.5" fill="#4b4b4b"/>
<circle class="st0" cx="230.8" cy="596.3" r="11.6" fill="#4b4b4b"/>
<circle class="st0" cx="198.8" cy="594.1" r="14.6" fill="#4b4b4b"/>
<circle class="st0" cx="164.3" cy="579.9" r="11.9" fill="#4b4b4b"/>
<circle class="st0" cx="175.1" cy="546.2" r="14.9" fill="#4b4b4b"/>
<circle class="st0" cx="205.2" cy="561.6" r="22" fill="#4b4b4b"/>
<circle class="st0" cx="242.1" cy="570.9" r="17.7" fill="#4b4b4b"/>
<circle class="st0" cx="273.7" cy="579" r="14.7" fill="#4b4b4b"/>
<circle class="st0" cx="305" cy="592.7" r="14.7" fill="#4b4b4b"/>
<circle class="st0" cx="333" cy="594.1" r="12.5" fill="#4b4b4b"/>
<circle class="st0" cx="283.9" cy="602.6" r="6.5" fill="#4b4b4b"/>
<circle class="st0" cx="357.8" cy="594.1" r="6.5" fill="#4b4b4b"/>
<circle class="st0" cx="354.8" cy="428.8" r="8.2" fill="#4b4b4b"/>
<circle class="st0" cx="345.6" cy="462" r="3.4" fill="#4b4b4b"/>
<circle class="st0" cx="366.2" cy="400.7" r="14.7" fill="#4b4b4b"/>
<circle class="st0" cx="377" cy="369.1" r="14.7" fill="#4b4b4b"/>
<circle class="st0" cx="384.7" cy="336.6" r="17.7" fill="#4b4b4b"/>
<circle class="st0" cx="398.3" cy="301.3" r="21.4" fill="#4b4b4b"/>
<circle class="st0" cx="408.3" cy="272" r="19.8" fill="#4b4b4b"/>
<circle class="st0" cx="374.6" cy="259" r="17.9" fill="#4b4b4b"/>
<circle class="st0" cx="346.8" cy="249.9" r="16.1" fill="#4b4b4b"/>
<circle class="st0" cx="314.1" cy="238.7" r="14.2" fill="#4b4b4b"/>
<circle class="st0" cx="398.3" cy="239.6" r="10.9" fill="#4b4b4b"/>
<circle class="st0" cx="431.3" cy="246.5" r="8.6" fill="#4b4b4b"/>
<circle class="st0" cx="441.7" cy="283.4" r="13.6" fill="#4b4b4b"/>
<circle class="st0" cx="431.3" cy="316.6" r="14.6" fill="#4b4b4b"/>
<circle class="st0" cx="418" cy="347.2" r="9.7" fill="#4b4b4b"/>
<circle class="st0" cx="406.4" cy="379.1" r="5.7" fill="#4b4b4b"/>
<circle class="st0" cx="159.7" cy="561.6" r="3.4" fill="#4b4b4b"/>
<circle class="st0" cx="176" cy="596.3" r="3.4" fill="#4b4b4b"/>
<circle class="st0" cx="441.7" cy="549.8" r="3.4" fill="#4b4b4b"/>
<g>
	<path class="st0" d="M161.4,643h5.9l-0.2,20.2h14.3l0.2-20.2h5.8l-0.5,45.6H181l0.2-21.1h-14.3l-0.3,21.1h-5.8L161.4,643z" fill="#4b4b4b"/>
	<path class="st0" d="M221.8,642.9l0.3,9.8l10.2,1.1l-2.4,9h6.8c1.5,0,2.8,0.3,3.7,0.8c0.9,0.5,1.6,1.3,2.2,2.2   c0.5,0.9,0.9,2,1.2,3.2c0.3,1.2,0.6,2.5,0.9,3.8l2.5,11.8h8.5l1.2-1.3h6c-0.2,0.4-0.3,0.7-0.4,1c-0.1,0.3-0.1,0.6,0,1l1.2,7.7h-4   l-3.9-4.4h-13.3l-3.3-15c-0.2-0.9-0.4-1.6-0.5-2.3c-0.1-0.7-0.3-1.3-0.5-1.8c-0.2-0.5-0.5-0.9-0.8-1.1c-0.4-0.3-0.9-0.4-1.6-0.4   h-7.2l-5.3,20.6h-5.8l8.1-31.2l-9.2-1l-0.3-13.5H221.8z" fill="#4b4b4b"/>
	<path class="st0" d="M288.3,654.9l-3.1,33.6h-5.6l2.8-30L271,658l-0.3-11.1h-7.3l-3.8,4.4h-4l1.3-8.4h19.5l0.3,11.3L288.3,654.9z" fill="#4b4b4b"/>
	<path class="st0" d="M295,635.7h4l3.8,4.5h16.8l3.9-4.5h4l-1.2,7.7c-0.1,0.3-0.1,0.7,0,1c0.1,0.3,0.2,0.7,0.4,1h-5.9l-1.2-1.3h-5.5   v5.4h10.7v15.9h13l1.3,8.4h-4l-3.9-4.5h-6.4v19.3h-5.8v-33.8h-6c-1.1,0-2.2,0.1-3.4,0.2s-2.2,0.4-3.1,0.9c-0.9,0.5-1.7,1.2-2.3,2.2   c-0.6,1-0.9,2.3-0.9,3.9v26.6h-5.8V662c0-2.3,0.3-4.2,0.9-5.7c0.6-1.5,1.4-2.7,2.5-3.6c1-0.9,2.2-1.6,3.4-2   c1.3-0.4,2.5-0.7,3.8-0.8v-5.7h-5.6l-1.1,1.3h-6c0.1-0.4,0.2-0.7,0.4-1c0.1-0.3,0.1-0.6,0-1L295,635.7z" fill="#4b4b4b"/>
	<path class="st0" d="M385.5,680.3h-4l-3.9-4.5h-5.6c-1.1,0-2,0.4-2.8,1.2c-0.8,0.8-1.2,1.7-1.2,2.8v8.8H346v-14.1   c0-1.5,0.2-2.9,0.8-4.2c0.6-1.3,1.3-2.4,2.3-3.6c0.9-1.1,2-2.2,3.1-3.3c1.1-1.1,2.2-2.2,3.1-3.4c1-1.2,1.8-2.5,2.5-3.9   c0.7-1.4,1.1-3,1.2-4.7V643h5.8v8.5c-0.1,2.2-0.5,4.2-1.2,5.9c-0.7,1.7-1.5,3.2-2.5,4.5c-1,1.3-2,2.5-3,3.6s-2.1,2.1-3,3.1   c-0.9,1-1.7,2-2.3,3s-1,2.1-1,3.3v9.7h10.4v-4.8c0-1.1,0.2-2.1,0.7-3.1c0.5-1,1.1-1.8,1.9-2.5c0.8-0.7,1.7-1.3,2.7-1.7   c1-0.4,2.1-0.6,3.1-0.6h13.5L385.5,680.3z" fill="#4b4b4b"/>
	<path class="st0" d="M413.9,654.9l-3.1,33.6h-5.6l2.8-30l-11.4-0.6l-0.3-11.1H389l-3.8,4.4h-4l1.3-8.4h19.5l0.3,11.3L413.9,654.9z" fill="#4b4b4b"/>
	<path class="st0" d="M423.4,662c0-2.5,0.4-4.5,1.1-6.1s1.6-2.8,2.8-3.6c1.1-0.9,2.4-1.5,3.7-1.9c1.4-0.4,2.7-0.6,4-0.7l-6.8-9.5   h6.8l6.8,9.3h8.8v39h-5.8v-33.8h-6c-1.1,0-2.2,0.1-3.3,0.2c-1.2,0.1-2.2,0.4-3.1,0.9c-0.9,0.5-1.7,1.2-2.3,2.2   c-0.6,1-0.9,2.3-0.9,3.9v26.6h-5.8V662z" fill="#4b4b4b"/>
</g>
<g>
	<path class="st0" d="M169.7,744h17.8v5.3h-26.8v-1.6l18.3-45.7h-18v-5.3h26.3v1.7L169.7,744z" fill="#4b4b4b"/>
	<path class="st0" d="M209.3,749.3v-53.2h6v53.2H209.3z" fill="#4b4b4b"/>
	<path class="st0" d="M242.9,749.3v-19.5c0-3.6-0.5-6.1-1.5-7.5c-1-1.4-2.8-2.1-5.2-2.1c-1.3,0-2.7,0.4-4.1,1.2   c-1.4,0.8-2.5,1.8-3.3,3v24.9h-5.7v-33.5h3.9l1.8,4.3c1.9-3.3,5-4.9,9.2-4.9c7,0,10.6,4.5,10.6,13.4v20.7H242.9z" fill="#4b4b4b"/>
	<path class="st0" d="M252.8,747.3l2-5.6c3.2,2.2,5.7,3.3,7.7,3.3c3.5,0,5.3-1.5,5.3-4.6c0-2.2-1.7-4.1-5.1-5.7   c-2.6-1.3-4.4-2.2-5.3-2.8s-1.7-1.4-2.4-2.2c-0.7-0.8-1.2-1.7-1.5-2.6c-0.3-0.9-0.5-1.9-0.5-3c0-2.8,1-4.9,2.9-6.4   c1.9-1.5,4.4-2.3,7.5-2.3c2.3,0,5.3,0.8,8.9,2.3l-1.6,5.5c-2.3-1.9-4.5-2.8-6.8-2.8c-1.4,0-2.5,0.3-3.4,1c-0.9,0.7-1.4,1.5-1.4,2.5   c0,2.1,1.2,3.8,3.5,4.9l4.1,1.9c2.5,1.2,4.3,2.5,5.5,4.1c1.1,1.5,1.7,3.4,1.7,5.7c0,3-1,5.4-3,7.1c-2,1.7-4.8,2.5-8.4,2.5   C259,749.9,255.8,749.1,252.8,747.3z" fill="#4b4b4b"/>
	<path class="st0" d="M283.5,715.8v21.4c0,5.2,2.2,7.8,6.5,7.8c1.9,0,3.6-0.6,5.2-1.7c1.6-1.1,2.6-2.4,3.1-3.9v-23.5h5.7v33.5h-5.7   v-4.6c-0.6,1.3-1.9,2.5-3.9,3.6c-1.9,1.1-3.8,1.6-5.7,1.6c-3.5,0-6.2-1.1-8.1-3.2c-1.9-2.1-2.8-5.1-2.8-9v-22H283.5z" fill="#4b4b4b"/>
	<path class="st0" d="M327.4,721.5c-1.2-0.9-2.5-1.3-3.8-1.3c-2,0-3.8,1-5.3,2.9c-1.5,1.9-2.3,4.3-2.3,7v19.2h-5.7v-33.5h5.7v5.3   c2.1-4,5.2-6,9.3-6c1,0,2.5,0.2,4.4,0.6L327.4,721.5z" fill="#4b4b4b"/>
	<path class="st0" d="M350.2,745.5c-2.3,3-5.8,4.5-10.5,4.5c-2.5,0-4.7-1-6.6-2.9c-1.9-1.9-2.8-4.3-2.8-7.1c0-3.4,1.4-6.3,4.3-8.6   c2.9-2.3,6.5-3.5,10.9-3.5c1.2,0,2.6,0.3,4.1,0.8c0-5.4-2.3-8.1-7-8.1c-3.6,0-6.3,1-8.2,3l-2.4-5c1.1-0.9,2.6-1.7,4.5-2.4   c1.9-0.7,3.7-1,5.5-1c4.7,0,8.1,1.1,10.2,3.3c2.1,2.2,3.2,5.7,3.2,10.5v12c0,2.9,0.8,4.9,2.5,5.9v3c-2.3,0-4.1-0.3-5.2-1   C351.5,748.2,350.7,747.1,350.2,745.5z M349.6,732.9c-1.8-0.4-3.1-0.6-3.8-0.6c-2.9,0-5.2,0.8-7.1,2.3c-1.8,1.5-2.7,3.4-2.7,5.5   c0,3.5,2,5.2,5.9,5.2c2.9,0,5.4-1.4,7.7-4.3V732.9z" fill="#4b4b4b"/>
	<path class="st0" d="M382.3,749.3v-19.5c0-3.6-0.5-6.1-1.5-7.5c-1-1.4-2.8-2.1-5.2-2.1c-1.3,0-2.7,0.4-4.1,1.2   c-1.4,0.8-2.5,1.8-3.3,3v24.9h-5.7v-33.5h3.9l1.8,4.3c1.9-3.3,5-4.9,9.2-4.9c7,0,10.6,4.5,10.6,13.4v20.7H382.3z" fill="#4b4b4b"/>
	<path class="st0" d="M418.6,718.5l-2.8,4.2c-0.6-0.6-1.6-1.2-3.1-1.7c-1.5-0.5-2.9-0.8-4.3-0.8c-3.1,0-5.6,1.1-7.4,3.4   c-1.8,2.3-2.7,5.4-2.7,9.3c0,3.9,0.9,6.9,2.8,9c1.9,2.1,4.4,3.1,7.7,3.1c2.6,0,5.1-1,7.7-3.1l2.3,5c-3.1,2.1-6.9,3.1-11.4,3.1   c-4.4,0-8-1.5-10.9-4.6c-2.9-3.1-4.3-7.2-4.3-12.4c0-5.3,1.5-9.6,4.5-12.9c3-3.2,7-4.8,12.2-4.8c1.7,0,3.5,0.4,5.4,1.1   C416.3,717,417.7,717.8,418.6,718.5z" fill="#4b4b4b"/>
	<path class="st0" d="M450.1,733.1h-23.2c0,3.9,1,6.9,3.1,9c1.8,1.8,4.2,2.8,7,2.8c3.3,0,6-1,8.2-3l2.4,4.3   c-0.9,0.9-2.2,1.7-4.1,2.4c-2.3,0.9-4.8,1.3-7.6,1.3c-4,0-7.5-1.4-10.3-4.3c-3.1-3.1-4.7-7.4-4.7-12.7c0-5.5,1.6-10,4.8-13.3   c2.9-3,6.3-4.5,10.2-4.5c4.6,0,8.2,1.3,10.8,4c2.5,2.6,3.8,6,3.8,10.3C450.6,730.8,450.4,732,450.1,733.1z M436.3,720.2   c-2.5,0-4.7,0.9-6.4,2.6c-1.6,1.6-2.6,3.6-2.8,6.1h17.8c0-2.4-0.7-4.4-2.2-6C441.1,721.1,439,720.2,436.3,720.2z" fill="#4b4b4b"/>
</g>
</svg>