<svg xmlns="http://www.w3.org/2000/svg" version="1.1" xmlns:xlink="http://www.w3.org/1999/xlink" width="512" height="512" x="0" y="0" viewBox="0 0 512 512" style="enable-background:new 0 0 512 512" xml:space="preserve" class=""><g><path fill="#ecf4ff" d="M341.83 0h-92.29c-12.31 0-22.33 10.01-22.33 22.32v6.63h-57c-12.31 0-22.33 10.01-22.33 22.32v73.42c0 12.3 10.02 22.32 22.33 22.32h5.47v20.26a8 8 0 0 0 4.54 7.21c1.1.53 2.28.79 3.46.79 1.79 0 3.56-.6 5.01-1.76L221.7 147h40.76c12.31 0 22.33-10.01 22.33-22.32v-6.63h5.51l33.02 26.5a8.012 8.012 0 0 0 5.01 1.76 8.01 8.01 0 0 0 8-8v-20.26h5.5c12.3 0 22.3-10 22.3-22.29V22.32c0-12.31-10-22.32-22.3-22.32z" opacity="1" data-original="#ecf4ff"></path><path fill="#9dc6fb" d="M219.46 265.79h-67.74l-56.84-56.8c-8.16-8.15-17.53-17.94-34.81-17.94-15.86 0-28.84 12.96-28.84 28.8v148.91c0 12.01 9.86 21.86 21.89 21.86h81.21v99.52c0 12.04 9.86 21.86 21.89 21.86 12.06 0 21.89-9.82 21.89-21.86V368.76c0-12.04-9.83-21.86-21.89-21.86h-54.39v-78.09L130 296.95c4.12 4.15 9.17 6.22 15.03 6.22h74.44c10.3 0 18.72-8.41 18.72-18.69s-8.43-18.69-18.73-18.69z" opacity="1" data-original="#9dc6fb" class=""></path><path fill="#ffcbbe" d="M86.97 195.19c25.75 0 46.75-20.97 46.75-46.66s-21-46.66-46.75-46.66c-25.73 0-46.72 20.97-46.72 46.66s20.99 46.66 46.72 46.66z" opacity="1" data-original="#ffcbbe" class=""></path><path fill="#ffe07d" d="M451.94 191.04c-17.28 0-26.65 9.79-34.81 17.94l-56.84 56.8h-67.74c-10.3 0-18.72 8.41-18.72 18.69s8.42 18.69 18.72 18.69h74.44c5.85 0 10.9-2.07 15.03-6.22l28.18-28.14v78.09h-54.39c-12.06 0-21.89 9.82-21.89 21.86v121.38c0 12.04 9.83 21.86 21.89 21.86 12.03 0 21.89-9.82 21.89-21.86v-99.52h81.21c12.03 0 21.89-9.85 21.89-21.86v-148.9c-.02-15.84-13-28.81-28.86-28.81z" opacity="1" data-original="#ffe07d"></path><ellipse cx="425.03" cy="148.53" fill="#ffcbbe" rx="46.72" ry="46.66" opacity="1" data-original="#ffcbbe" class=""></ellipse><path fill="#8d9ca8" d="M178.1 390.62v99.52c0 12.04-9.83 21.86-21.89 21.86-12.03 0-21.89-9.82-21.89-21.86v-99.52H53.11c-12.03 0-21.89-9.85-21.89-21.86V346.9h124.99c12.06 0 21.89 9.82 21.89 21.86zM333.9 390.62v99.52c0 12.04 9.83 21.86 21.89 21.86 12.03 0 21.89-9.82 21.89-21.86v-99.52h81.21c12.03 0 21.89-9.85 21.89-21.86V346.9H355.79c-12.06 0-21.89 9.82-21.89 21.86z" opacity="1" data-original="#8d9ca8"></path><path fill="#f7beaf" d="M86.97 101.87c-3.05 0-6.02.3-8.91.86 21.51 4.18 37.83 23.15 37.83 45.8s-16.32 41.62-37.83 45.8c2.89.56 5.86.86 8.91.86 25.75 0 46.75-20.97 46.75-46.66s-21-46.66-46.75-46.66z" opacity="1" data-original="#f7beaf" class=""></path><path fill="#f0d47b" d="M451.94 191.04c-3.57 0-6.8.42-9.76 1.16 11.97 3.51 20.78 14.59 20.78 27.64V346.9h17.82V219.85c0-15.84-12.98-28.81-28.84-28.81z" opacity="1" data-original="#f0d47b"></path><path fill="#8495a0" d="M156.21 346.9h-17.82c12.05 0 21.89 9.82 21.89 21.86v121.38c0 8.87-5.34 16.53-12.97 19.95 2.73 1.22 5.74 1.91 8.91 1.91 12.06 0 21.89-9.82 21.89-21.86V368.76c-.01-12.04-9.84-21.86-21.9-21.86z" opacity="1" data-original="#8495a0"></path><g fill="#8495a0"><path d="M359.85 490.14c0 8.87-5.36 16.53-12.98 19.95 2.73 1.22 5.74 1.91 8.92 1.91 12.03 0 21.89-9.82 21.89-21.86v-99.52h-7.86c-5.5 0-9.96 4.46-9.96 9.96v89.56zM462.95 346.9v21.86c0 12.01-9.86 21.86-21.89 21.86h17.82c12.03 0 21.89-9.85 21.89-21.86V346.9z" fill="#8495a0" opacity="1" data-original="#8495a0"></path></g><path fill="#f7beaf" d="M425.03 101.87c-3.05 0-6.02.3-8.91.86 21.49 4.18 37.81 23.15 37.81 45.8s-16.32 41.62-37.81 45.8c2.89.56 5.86.86 8.91.86 25.73 0 46.72-20.97 46.72-46.66s-20.99-46.66-46.72-46.66z" opacity="1" data-original="#f7beaf" class=""></path><path fill="#d09080" d="M366.98 341.9v-33.72c0-2.76-2.24-5-5-5H150.02c-2.76 0-5 2.24-5 5v33.72c0 2.76 2.24 5 5 5H248v140.3h-13.83c-6.84 0-12.43 5.59-12.43 12.43V507c0 2.76 2.24 5 5 5h58.52c2.76 0 5-2.24 5-5v-7.41c0-6.84-5.55-12.39-12.39-12.39H264V346.9h97.98c2.76 0 5-2.24 5-5z" opacity="1" data-original="#d09080"></path><path fill="#8d9ca8" d="M246.6 109.09h-60.54c-4.42 0-8-3.58-8-8s3.58-8 8-8h60.54c4.42 0 8 3.58 8 8s-3.58 8-8 8zM246.6 82.85h-39.91c-4.42 0-8-3.58-8-8s3.58-8 8-8h39.91c4.42 0 8 3.58 8 8s-3.58 8-8 8zm-60.53 0c-4.42 0-8-3.58-8-8s3.58-8 8-8h.01c4.42 0 8 3.58 8 8s-3.59 8-8.01 8z" opacity="1" data-original="#8d9ca8"></path><g fill="#80b4fb"><path d="M60.06 191.04c-2.8 0-5.5.41-8.06 1.16 11.34 2.83 18.58 10.32 25.05 16.78l50.11 50.07a22.994 22.994 0 0 0 16.26 6.73h8.3l-56.84-56.8c-8.17-8.14-17.54-17.94-34.82-17.94zM219.46 265.79h-17.82c10.3 0 18.72 8.41 18.72 18.69s-8.42 18.69-18.72 18.69h17.82c10.3 0 18.72-8.41 18.72-18.69s-8.42-18.69-18.72-18.69zM68.62 247.31c-3 3.19-2.69 8.28.41 11.37l10.48 10.47c2.87 2.87 4.49 6.76 4.49 10.82v66.92h17.82v-78.07L80.1 247.13c-3.18-3.18-8.38-3.12-11.48.18z" fill="#80b4fb" opacity="1" data-original="#80b4fb" class=""></path></g><path fill="#f0d47b" d="M443.38 247.31c3 3.19 2.69 8.28-.41 11.37l-10.48 10.47a15.306 15.306 0 0 0-4.49 10.82v66.92h-17.82v-78.07l21.72-21.69a7.978 7.978 0 0 1 11.48.18z" opacity="1" data-original="#f0d47b"></path><path fill="#c68679" d="M285.26 495.03h-58.52c-1.34 0-2.55-.53-3.45-1.39-.99 1.78-1.55 3.82-1.55 5.99V507c0 2.76 2.24 5 5 5h58.52c2.76 0 5-2.24 5-5v-7.41c0-2.16-.56-4.19-1.53-5.96-.9.86-2.12 1.4-3.47 1.4zM361.98 329.93H150.02c-2.76 0-5-2.24-5-5v16.97c0 2.76 2.24 5 5 5h211.95c2.76 0 5-2.24 5-5v-16.97c.01 2.77-2.23 5-4.99 5z" opacity="1" data-original="#c68679" class=""></path><path fill="#c7ebfd" d="M341.83 0h-92.29c-12.31 0-22.33 10.01-22.33 22.32v6.63h35.25c12.31 0 22.33 10.01 22.33 22.32v66.79h5.51l33.02 26.5a8.012 8.012 0 0 0 5.01 1.76 8.01 8.01 0 0 0 8-8v-20.26h5.5c12.3 0 22.3-10 22.3-22.29V22.32c0-12.31-10-22.32-22.3-22.32z" opacity="1" data-original="#c7ebfd"></path><g fill="#ddeafb"><path d="M175.97 169.39a8.032 8.032 0 0 0 4.24 5.08c1.1.53 2.28.79 3.46.79 1.79 0 3.56-.6 5.01-1.76L221.7 147h-17.82zM262.46 28.95h-17.82c12.31 0 22.33 10.01 22.33 22.32v73.42c0 12.3-10.02 22.32-22.33 22.32h17.82c12.31 0 22.33-10.01 22.33-22.32V51.26c0-12.3-10.01-22.31-22.33-22.31z" fill="#ddeafb" opacity="1" data-original="#ddeafb"></path></g><path fill="#b6dded" d="M341.83 0H324c12.3 0 22.3 10.01 22.3 22.32v73.45c0 12.29-10.01 22.29-22.3 22.29h-5.5v20.26c0 .73-.11 1.45-.3 2.14l5.11 4.1a8.012 8.012 0 0 0 5.01 1.76 8.01 8.01 0 0 0 8-8v-20.26h5.5c12.3 0 22.3-10 22.3-22.29V22.32C364.13 10.01 354.13 0 341.83 0z" opacity="1" data-original="#b6dded"></path></g></svg>
