<svg xmlns="http://www.w3.org/2000/svg" version="1.1" xmlns:xlink="http://www.w3.org/1999/xlink" width="256" height="256" x="0" y="0" viewBox="0 0 36 36" style="enable-background:new 0 0 256 256" xml:space="F" class=""><g transform="matrix(0.8600000000000001,0,0,0.8600000000000001,6.68,6.68)"><linearGradient id="a" x1="617.273" x2="642.729" y1="-1050.728" y2="-1025.272" gradientTransform="matrix(1 0 0 -1 -618 -1026)" gradientUnits="userSpaceOnUse"><stop offset="0" stop-color="#78498f"></stop><stop offset="1" stop-color="#ef025e"></stop></linearGradient><circle cx="12" cy="12" r="18" fill="url(#a)" opacity="1" data-original="url(#a)" class=""></circle><g fill="#fff"><path d="M6 12v3.5c0 1.4 2.7 2.5 6 2.5s6-1.1 6-2.5V12l-6 2z" fill="#ffffff" opacity="1" data-original="#ffffff" class=""></path><path d="m12.2 8.5-6.7 2.3L12 13l12-4-12-4L0 9l4 1.3 7.8-2.8c.3-.1.5 0 .6.3.2.3 0 .6-.2.7zM5 16.5c0-.7-.4-1.2-1-1.4v-3.6c0-.3-.2-.5-.5-.5s-.5.2-.5.5v3.6c-.6.2-1 .801-1 1.4s.3 1.1.8 1.3L2 21h3l-.8-3.2c.5-.2.8-.7.8-1.3z" fill="#ffffff" opacity="1" data-original="#ffffff" class=""></path></g></g></svg>
