<svg xmlns="http://www.w3.org/2000/svg" version="1.1" xmlns:xlink="http://www.w3.org/1999/xlink" width="512" height="512" x="0" y="0" viewBox="0 0 464 464" style="enable-background:new 0 0 512 512" xml:space="preserve" class=""><g><path fill="#f0b48f" d="M363.641 251.401H59.368v183.265h297.786c71.177-95.666 6.487-183.265 6.487-183.265z" opacity="1" data-original="#f0b48f" class=""></path><ellipse cx="59.368" cy="343.034" fill="#e2a27f" rx="59.368" ry="91.633" opacity="1" data-original="#e2a27f" class=""></ellipse><path fill="#e2a27f" d="M368.349 88.831S347.129-27.466 223.455 6.074s-73.775 142.06-73.775 142.06z" opacity="1" data-original="#e2a27f" class=""></path><path fill="#f0b48f" d="M94.201 216.733c-14.82-51.007 55.821-114.773 157.781-142.424s196.627-8.718 211.447 42.29z" opacity="1" data-original="#f0b48f" class=""></path><ellipse cx="278.814" cy="166.666" fill="#e2a27f" rx="191.285" ry="51.686" transform="rotate(-15.06 279.274 166.846)" opacity="1" data-original="#e2a27f" class=""></ellipse><path fill="#ffebd4" d="m333.19 378.49-61.58 14.87-95.37 23.04-7.56 1.83.27-6.28 3.76-87.6c15.97-7.35 30.54-12.74 43.77-16.59 10.4-3.04 19.98-5.12 28.76-6.45 14.65-2.23 27.09-2.39 37.47-1.4 6.74.64 12.62 1.76 17.66 3.1 16.68 4.43 24.29 11.29 24.29 11.29l3.46 26.03z" opacity="1" data-original="#ffebd4" class=""></path><path fill="#ffebd4" d="M315.06 293.11c-4.59 1.21-8.91.93-8.91.93-1.43 0-2.83-.03-4.22-.08l-1.56 9.05-2.98 17.35-.72 4.2-46.43 1.15-34.87.87c.64-6.19.99-12.54 1.11-18.82.57-29.76-3.79-57.76-3.79-57.76l-.38-1.23-21.34-69.28 3.81-39.52c16.43-6.49 34.32-12.68 53.28-18.3 5.36-1.6 10.81-3.15 16.33-4.64 34.24-9.28 67.03-15.47 95.78-18.56 80.46 122.46 3.42 191.57-45.11 194.64z" opacity="1" data-original="#ffebd4" class=""></path><path fill="#ffd5b8" d="M328.12 340.33c-13.05-4.33-23.14-11.95-30.73-19.97-6.79-7.19-11.58-14.7-14.68-20.45-3.18-5.89-4.59-9.95-4.59-9.95 7.02 2.12 14.97 3.63 23.81 4l-1.56 9.05c16.68 4.43 24.29 11.29 24.29 11.29zM176.24 416.4c-2.44-1.46-4.88-2.95-7.29-4.45l3.76-87.6c15.97-7.35 30.54-12.74 43.77-16.59.57-29.76-3.79-57.76-3.79-57.76l-.38-1.23-21.34-69.28 3.81-39.52c16.43-6.49 34.32-12.68 53.28-18.3-7.27 33.46-16.9 100.05-2.82 179.64 1.42 8 3.07 16.15 5 24.4A453.734 453.734 0 0 0 270 389.15c.56 1.43 1.1 2.84 1.61 4.21 32.11 85.97-34.44 59.75-95.37 23.04z" opacity="1" data-original="#ffd5b8" class=""></path><path fill="#fae26b" d="M387.45 464H49.87c-2.57-39.1 20.78-70.78 47.79-94.01 15.31-13.19 31.8-23.65 45.42-31.21 17.08-9.5 29.63-14.43 29.63-14.43s84.67 103.19 140.84 11.61c3.85-6.27 7.56-13.46 11.11-21.66 0 0 20.69 14.04 38.46 42.58 15.41 24.72 28.63 60.33 24.33 107.12z" opacity="1" data-original="#fae26b" class=""></path><path fill="#edd15a" d="M176.08 464H159.3c-14.44-52.68-48.4-83.6-61.64-94.01 15.31-13.19 31.8-23.65 45.42-31.21C156.19 375.9 175.34 430.02 176 431c.36.53.58 16.31.08 33zM363.12 356.88 333.19 461s-.63 1.11-1.72 3H307.8c13.77-55.11 8.72-107.32 5.75-128.04 3.85-6.27 7.56-13.46 11.11-21.66 0 0 20.69 14.04 38.46 42.58z" opacity="1" data-original="#edd15a"></path><path fill="#52528c" d="M219.247 189.137c-8.985-3.204-20.805-4.317-36.384-1.15-6.702 1.379-12.213 4.84-16.573 9.708-4.675-10.602-8.365-20.29-11.2-29.133a195.546 195.546 0 0 1-2.785-9.423c17.823-9.251 39.021-18.341 62.591-26.699-.01.257-.01.504-.01.751-.039 12.094.817 22.981 2.086 32.404a224.73 224.73 0 0 0 1.88 11.534l.089.504c.02.076.02.152.03.247.168 2.177.266 7.644.276 11.257z" opacity="1" data-original="#52528c" class=""></path><path fill="#ffd5b8" d="m215.371 182.766-3.261-1.372c-8.699-3.105-18.501-2.731-27.544-.87-5.109 1.039-9.054 3.579-12.522 7.324v.01c-23.202 25.885-3.008 104.143 55.976 50.524l4.302-35.546c.001 0-3.079-13.402-16.951-20.07z" opacity="1" data-original="#ffd5b8" class=""></path><path fill="#ffc7a1" d="m195.823 198.264 12.916 39.328c12.134-24.58-12.916-39.328-12.916-39.328z" opacity="1" data-original="#ffc7a1" class=""></path><g fill="#52528c"><path d="M195.082 464c8.28-99-22.374-139.65-22.374-139.65s-49.039-25.956-64.394 37.014c0 0 49.829 28.97 60.363 102.637h26.405zM324.664 314.299s23.318 62.035 0 149.701h15.324s24.354-23.58 31.843-91.29c-.001 0-4.529-45.113-47.167-58.411z" fill="#52528c" opacity="1" data-original="#52528c" class=""></path></g></g></svg>
