<svg xmlns="http://www.w3.org/2000/svg" version="1.1" xmlns:xlink="http://www.w3.org/1999/xlink" width="512" height="512" x="0" y="0" viewBox="0 0 53 53" style="enable-background:new 0 0 512 512" xml:space="preserve" class=""><g><path fill="#c7754f" d="M50.5 45.381c0 .769-.619 1.387-1.387 1.387H3.887a1.383 1.383 0 0 1-1.386-1.387c0-.76.618-1.386 1.386-1.386h45.226c.768 0 1.386.626 1.386 1.386z" opacity="1" data-original="#c7754f"></path><path fill="#ab604b" d="M14.28 46.768H3.89a1.385 1.385 0 1 1 0-2.77h10.39c-.77 0-1.38.62-1.38 1.38 0 .77.61 1.39 1.38 1.39z" opacity="1" data-original="#ab604b"></path><path fill="#5b5e8b" d="M31.091 33.437v10.557H3.981V33.437a6.48 6.48 0 0 1 4.986-6.3l3.682-.872 4.89-1.16 3.227.768 5.355 1.265a6.483 6.483 0 0 1 4.97 6.3z" opacity="1" data-original="#5b5e8b" class=""></path><path fill="#312e4b" d="M17.194 39.354h.683v4.641h-.683zM18.586 25.351l-3.852.91-3.68.878a6.481 6.481 0 0 0-4.99 6.298v10.557H3.982V33.437c0-2.999 2.064-5.6 4.982-6.298l3.68-.878 4.893-1.154 1.048.244z" opacity="1" data-original="#312e4b" class=""></path><path fill="#deddff" d="m22.423 26.257-2.074 6.484-2.81-1.993-2.809 1.993-2.081-6.476 4.85-1.152h.089l3.178.76z" opacity="1" data-original="#deddff" class=""></path><path fill="#ffaf93" d="M20.89 24.399v2.55a3.185 3.185 0 1 1-6.372 0V24.4z" opacity="1" data-original="#ffaf93" class=""></path><path fill="#ee8778" d="m16.445 29.185.02.02a3.086 3.086 0 0 0 1.749.888c-1.753.35-3.696-1.054-3.696-3.143v-1.545a5.85 5.85 0 0 0 4.038.887c-1.503-.217-2.839-1.044-3.623-2.025h5.957v2.15c-1.13.6-2.41.851-3.505.783-1.058-.053-1.683 1.236-.94 1.985z" opacity="1" data-original="#ee8778" class=""></path><path fill="#ffaf93" d="M23.542 13.633v6.882a5.838 5.838 0 1 1-11.675 0v-6.882z" opacity="1" data-original="#ffaf93" class=""></path><path fill="#ffaf93" d="M23.54 13.63v6.882c0 .185-.007.369-.026.546-.02.257-.066.506-.125.756a5.818 5.818 0 0 1-5.682 4.537 5.837 5.837 0 0 1-5.838-5.839V13.63z" opacity="1" data-original="#ffaf93" class=""></path><path fill="#8b4f4f" d="M24.787 11.93v7.343h-1.244V13.63H11.869v5.642h-1.277V11.93z" opacity="1" data-original="#8b4f4f"></path><path fill="#ffaf93" d="M25.596 19.014a2.055 2.055 0 0 1-2.063 2.063v-4.114c1.145 0 2.063.918 2.063 2.051z" opacity="1" data-original="#ffaf93" class=""></path><path fill="#ee8778" d="M24.084 17.046a2.063 2.063 0 0 0-.55-.082v4.113c.192 0 .374-.035.55-.083zM13.565 13.028v7.484a5.844 5.844 0 0 0 4.99 5.78 5.85 5.85 0 0 1-4.037-.887 5.829 5.829 0 0 1-2.65-4.893v.566a2.06 2.06 0 0 1-1.282-3.676c.355-.276.796-.44 1.283-.44v-3.934h1.696zM18.166 19.729v.834a.512.512 0 1 1-1.024 0v-.834a.512.512 0 1 1 1.024 0z" opacity="1" data-original="#ee8778" class=""></path><path fill="#ee8778" d="M15.876 22.13a1.868 1.868 0 0 0 3.649 0z" opacity="1" data-original="#ee8778" class=""></path><path fill="#312e4b" d="M16.052 17.678a1.205 1.205 0 0 0-2.354 0zM21.71 17.678a1.205 1.205 0 0 0-2.353 0z" opacity="1" data-original="#312e4b" class=""></path><path fill="#ab604b" d="M24.787 13.083c-3.177 5.717-14.195 0-14.195 0v-1.07c0-1.053.39-2.082 1.153-2.804 3.974-3.792 8.877-.415 8.877-.415s2.547-1.07 3.742 1.045c.596 1.048.375 2.121.423 3.244z" opacity="1" data-original="#ab604b"></path><path fill="#8b4f4f" d="M13.606 7.954a6.552 6.552 0 0 0-1.86 1.255c-.764.722-1.154 1.75-1.154 2.804v1.07s1.244.645 3.014 1.284V7.954z" opacity="1" data-original="#8b4f4f"></path><path fill="#312e4b" d="m22.423 26.257 2.234 5.286h-2.234l1.367 2.235-6.254 7.737z" opacity="1" data-original="#312e4b" class=""></path><path fill="#312e4b" d="m12.65 26.257-2.234 5.286h2.234l-1.367 2.235 6.253 7.737z" opacity="1" data-original="#312e4b" class=""></path><path fill="#c6c6f7" d="m20.35 32.741-2.81 8.773-2.81-8.773 2.81-1.993z" opacity="1" data-original="#c6c6f7"></path><path fill="#e83d62" d="m18.196 32.95.44 5.13-1.096 3.434-1.097-3.434.44-5.13-.656-1.274 1.313-.928 1.305.928z" opacity="1" data-original="#e83d62"></path><path fill="#312e4b" d="M29.364 37.322v1.227a.272.272 0 0 1-.268.277h-5.632a.272.272 0 0 1-.268-.277v-1.227c0-.154.122-.276.268-.276h5.632c.146 0 .268.122.268.276z" opacity="1" data-original="#312e4b" class=""></path><path fill="#e83d62" d="M41.65 3.942v6.75c0 .798-.652 1.45-1.45 1.45h-7.54l-1.756 1.588c-.291.264-.756.014-.694-.381l.188-1.207h-1.263a1.426 1.426 0 0 1-1.422-1.43V3.97c0-.798.652-1.45 1.45-1.45h11.065c.784 0 1.422.638 1.422 1.422z" opacity="1" data-original="#e83d62"></path><path fill="#ce2955" d="M30.842 12.141h-1.71c-.78 0-1.42-.64-1.42-1.43v-6.74c0-.8.65-1.45 1.45-1.45h1.71c-.8 0-1.45.65-1.45 1.45v6.74c0 .79.64 1.43 1.42 1.43zM39.134 5.348a.387.387 0 0 1-.396.385h-.93a.384.384 0 0 1-.384-.385c0-.218.172-.39.384-.39h.93c.224 0 .396.172.396.39z" opacity="1" data-original="#ce2955" class=""></path><path fill="#ce2955" d="M38.985 9.32a.38.38 0 0 1-.385.384h-7.47a.39.39 0 0 1-.39-.385.39.39 0 0 1 .39-.39h7.47c.218 0 .385.172.385.39zM30.74 5.348c0-.218.173-.39.385-.39h5.254c.213 0 .385.172.385.39a.384.384 0 0 1-.385.385h-5.254a.384.384 0 0 1-.385-.385zM38.985 7.334a.38.38 0 0 1-.385.384h-7.47a.39.39 0 0 1-.39-.384.39.39 0 0 1 .39-.39h7.47c.218 0 .385.172.385.39z" opacity="1" data-original="#ce2955" class=""></path><path fill="#c7754f" d="M50.5 45.381c0 .769-.619 1.387-1.387 1.387H3.887a1.383 1.383 0 0 1-1.386-1.387c0-.76.618-1.386 1.386-1.386h45.226c.768 0 1.386.626 1.386 1.386z" opacity="1" data-original="#c7754f"></path><path fill="#ab604b" d="M14.28 46.768H3.89a1.385 1.385 0 1 1 0-2.77h10.39c-.77 0-1.38.62-1.38 1.38 0 .77.61 1.39 1.38 1.39z" opacity="1" data-original="#ab604b"></path><path fill="#ffaf93" d="M35.11 24.901a2.468 2.468 0 1 1-4.935 0 2.468 2.468 0 0 1 4.935 0zM45.536 24.901a2.468 2.468 0 1 1-4.935 0 2.468 2.468 0 0 1 4.935 0zM33.991 31.516l.72 3.556h6.092l.718-3.556z" opacity="1" data-original="#ffaf93" class=""></path><path fill="#65b9ff" d="M50.5 42.451v8.029H24.93V42.45a5.704 5.704 0 0 1 5.706-5.705h14.162a5.7 5.7 0 0 1 5.7 5.705z" opacity="1" data-original="#65b9ff"></path><path fill="#3e7fff" d="M34.443 36.746a5.701 5.701 0 0 0-5.704 5.703v8.031h-3.808v-8.03a5.701 5.701 0 0 1 5.704-5.704z" opacity="1" data-original="#3e7fff"></path><path fill="#deddff" d="M43.051 35.87v.874H32.148v-.873c0-.962.78-1.742 1.742-1.742h7.42c.962 0 1.741.78 1.741 1.742z" opacity="1" data-original="#deddff" class=""></path><path fill="#c6c6f7" d="M35.593 34.127c-.96 0-1.739.78-1.739 1.744v.875H32.15v-.875c0-.965.78-1.744 1.739-1.744z" opacity="1" data-original="#c6c6f7"></path><path fill="#5b5e8b" d="M42.583 30.892c-1.326 1.771-3.132 2.637-5.38 2.347-4.81-.619-6.507-6.893-6.444-11.752.025-1.854 1.24-3.716 2.797-4.092.774-.186 1.385-.599 2.05-.961.891-.487 1.941-.814 3.01-.469l-.36.145c2.652.17 5.42 1.054 6.036 3.644 1.373 5.772-.635 9.703-1.71 11.138z" opacity="1" data-original="#5b5e8b" class=""></path><path fill="#312e4b" d="M38.732 33.257c-.482.056-.992.05-1.53-.017-4.802-.624-6.51-6.876-6.444-11.754.028-1.85 1.24-3.718 2.798-4.093 1.645-.394 2.81-1.968 4.84-1.497-1.384.282-2.14 1.184-3.449 1.497-1.553.375-2.77 2.243-2.798 4.093-.057 4.892 1.657 11.132 6.443 11.754l.14.017z" opacity="1" data-original="#312e4b" class=""></path></g></svg>
